<?xml version="1.0" encoding="utf-8"?>
<!-- Generator: Adobe Illustrator 16.0.3, SVG Export Plug-In . SVG Version: 6.00 Build 0)  -->
<!DOCTYPE svg PUBLIC "-//W3C//DTD SVG 1.1//EN" "http://www.w3.org/Graphics/SVG/1.1/DTD/svg11.dtd">
<svg version="1.1" id="Layer_1" xmlns="http://www.w3.org/2000/svg" xmlns:xlink="http://www.w3.org/1999/xlink" x="0px" y="0px"
	 width="1200.119px" height="900px" viewBox="0 0 1200.119 900" enable-background="new 0 0 1200.119 900" xml:space="preserve">
<g>
	<path fill-rule="evenodd" clip-rule="evenodd" fill="#D5C8AC" d="M398.119,0c1.667,0,3.333,0,5,0
		c6.156,10.582,12.312,21.165,19,32.661c0-11.771,0-22.216,0-32.661c1.667,0,3.333,0,5,0c-0.024,103.617-0.049,207.234-0.06,310.851
		c0,0.752-0.294,1.711,0.826,1.999c5.748-4.217,8.355-9.269,8.321-16.997c-0.348-78.461-0.22-156.925-0.206-235.387
		c0.004-20.155,0.077-40.311,0.119-60.466c1.333,0,2.667,0,4,0c0,10.539,0,21.079,0,31.618c0.462,0.105,0.924,0.21,1.386,0.316
		C447.013,21.081,454.265,11.23,459.119,0c2,0,4,0,6,0c-7.392,12.825-14.688,25.708-22.255,38.429
		c-1.591,2.673-1.498,4.498,0.026,7.128c24.939,43.027,49.758,86.125,74.616,129.199c5.879,10.188,11.803,20.351,18.121,31.24
		c6.356-6.542,12.113-12.776,18.239-18.622c2.553-2.436,2.8-4.602,1.933-7.811c-12.321-45.611-24.454-91.274-36.785-136.883
		C515.16,28.425,511.927,13.991,507.119,0c2,0,4,0,6,0c-0.855,1.526,0.048,2.917,0.418,4.3
		c13.041,48.711,26.112,97.415,39.182,146.119c2.609,9.722,5.226,19.441,8.049,29.941c9.207-9.23,17.673-17.901,26.369-26.334
		c2.849-2.763,3.931-5.646,3.924-9.625c-0.082-48.133,0.011-96.267,0.059-144.4c1.333,0,2.667,0,4,0
		c0.094,1.49,0.27,2.98,0.271,4.47c0.01,44.492,0.002,88.984-0.002,133.476c0,2.224,0,4.448,0,7.95
		c3.043-3.822,5.384-6.28,8.204-1.648c1.194-1.848,0.714-3.372,0.716-4.789c0.035-30.994,0.042-61.988,0.008-92.982
		c-0.018-15.492-0.127-30.984-0.195-46.477c1.666,0,3.334,0,5,0c-0.061,1.995-0.176,3.991-0.176,5.986
		c-0.01,43.154,0.336,86.313-0.258,129.458c-0.143,10.329,2.158,18.019,10.305,24.543c6.203,4.969,11.396,11.196,17.084,16.817
		c0.861,0.851,1.421,2.288,3.297,2.07c0.271-0.893,0.583-1.821,0.836-2.764c10.967-40.841,21.96-81.674,32.873-122.53
		c4.766-17.837,9.365-35.719,14.039-53.581c1.666,0,3.334,0,5,0c-0.881,3.377-1.742,6.759-2.646,10.13
		c-15.122,56.414-30.259,112.824-45.333,169.251c-0.437,1.636-1.979,3.455-0.315,5.154c6.785,6.93,13.641,13.791,20.562,20.769
		c0.658-0.933,0.871-1.189,1.035-1.475c30.632-53.014,61.244-106.039,91.942-159.013c1.272-2.196,1.146-3.703-0.079-5.823
		C749.806,26.048,742.49,13.008,735.119,0c1.667,0,3.333,0,5,0c6.051,10.59,12.102,21.179,18.152,31.769
		c0.282-0.162,0.565-0.323,0.848-0.485c0-10.428,0-20.856,0-31.284c1.667,0,3.333,0,5,0c-0.058,2.162-0.165,4.324-0.166,6.485
		c-0.012,97.61,0.061,195.221-0.175,292.83c-0.018,7.166,4.824,9.485,9.1,14.308c0-2.179,0-3.003,0-3.828
		c-0.006-101.108-0.013-202.216-0.006-303.324c0-2.157,0.161-4.315,0.247-6.472c1.333,0,2.667,0,4,0c0,10.516,0,21.033,0,31.549
		c0.419,0.101,0.837,0.203,1.256,0.304C784.042,21.092,790.985,11.07,796.119,0c2,0,4,0,6,0
		c-7.613,13.097-15.165,26.23-22.899,39.255c-1.347,2.268-0.886,3.833,0.288,5.865c46.395,80.294,92.742,160.617,139.124,240.919
		c0.644,1.114,0.891,2.747,2.722,3.088c0.32-2.124-0.469-3.807-0.933-5.543c-19.846-74.146-39.665-148.3-59.555-222.435
		C855.389,40.738,849.707,20.382,844.119,0c1.667,0,3.333,0,5,0c17.642,65.752,35.307,131.499,52.916,197.26
		c8.094,30.226,16.082,60.479,24.118,90.721c0.003,0.993,0.095,2.544,1.163,2.258c1.666-0.446,0.811-2.262,0.812-3.466
		c0.019-95.591,0.004-191.182-0.009-286.773c1.333,0,2.667,0,4,0c0.045,2.163,0.13,4.326,0.13,6.489
		c0.006,270.854,0.009,541.708-0.001,812.562c0,26.983-0.084,53.967-0.129,80.949c-1.333,0-2.667,0-4,0
		c-1.015-14.136,0.014-28.311-0.559-44.002c-8.971,15.516-17.206,29.758-25.441,44.002c-1.667,0-3.333,0-5,0
		c9.392-16.447,18.711-32.936,28.246-49.298c1.54-2.641,1.607-4.479,0.036-7.135c-8.296-14.021-16.348-28.188-24.53-42.277
		c-0.518-0.892-0.599-2.392-2.368-2.247c-19.437,33.611-38.91,67.284-58.384,100.957c-1.667,0-3.333,0-5,0
		c0.52-1.035,0.988-2.098,1.566-3.1c19.143-33.171,38.252-66.361,57.522-99.459c1.74-2.988,1.695-5.068-0.043-8.033
		c-12.467-21.256-24.711-42.643-37.066-63.965c-0.714-1.231-0.995-2.892-2.809-3.438c-0.371,1.118-0.792,2.198-1.091,3.311
		c-15.087,56.303-30.17,112.605-45.216,168.918c-0.499,1.867-1.652,3.687-0.864,5.766c-2,0-4,0-6,0
		c1.293-1.06,1.228-2.699,1.601-4.088c15.891-59.188,31.699-118.396,47.675-177.559c0.771-2.858-0.093-4.731-1.354-6.914
		c-23.322-40.369-46.619-80.753-69.924-121.133c-0.472-0.816-0.761-1.873-1.841-1.766c0,2.536,0,5.014,0,7.492
		c-0.007,99.492-0.013,198.982-0.025,298.475c0,1.83-0.086,3.661-0.132,5.492c-1.333,0-2.667,0-4,0
		c-0.086-1.657-0.247-3.314-0.247-4.973c-0.012-101.263-0.007-202.525-0.041-303.789c-0.001-1.226,0.571-2.592-0.873-4.354
		c-2.537,4.439-8.129,5.863-8.119,12.335c0.144,98.432,0.104,196.863,0.114,295.295c0.001,1.829,0.108,3.657,0.166,5.485
		c-1.667,0-3.333,0-5,0c0.034-0.998,0.1-1.997,0.1-2.995c0.003-97.481,0.003-194.963-0.024-292.444
		c-0.001-1.08,0.459-2.279-0.77-3.717c-5.992,6.463-13.466,11.504-17.921,19.119c-17.819,30.467-35.308,61.127-53,91.668
		c-1.434,2.477-1.798,4.65-1.021,7.48c5.378,19.587,10.544,39.232,15.814,58.85c10.929,40.684,21.88,81.359,32.822,122.039
		c-1.667,0-3.333,0-5,0c-12.871-48.204-25.742-96.408-38.615-144.611c-2.98-11.16-5.974-22.318-9.309-34.777
		c-0.77,1.488-0.971,1.918-1.207,2.328c-13.144,22.754-26.242,45.533-39.512,68.215c-1.332,2.275-0.479,3.602,0.535,5.349
		c7.178,12.371,14.278,24.788,21.464,37.153c12.858,22.128,25.761,44.23,38.644,66.344c-2,0-4,0-6,0
		c-0.313-0.756-0.545-1.558-0.95-2.26c-18.53-32.126-37.07-64.245-55.638-96.349c-0.521-0.898-0.699-2.233-2.389-2.391
		c-8.879,15.34-17.767,30.739-26.719,46.101c-0.871,1.494-0.793,2.614,0.071,4.088c9.915,16.914,19.761,33.867,29.624,50.811
		c-2,0-4,0-6,0c-8.071-14.25-16.143-28.501-24.213-42.752c-0.263,0.158-0.525,0.316-0.787,0.475c0,14.092,0,28.186,0,42.277
		c-1.666,0-3.334,0-5,0c0.066-0.828,0.191-1.655,0.192-2.482c0.019-46.297,0.029-92.593,0.017-138.889
		c0-0.905,0.428-2.045-1.195-2.764c-1.84,3.564-3.968,3.275-6.028,0.025c-3.614-1.127-1.985,1.896-1.987,2.893
		c-0.065,47.072-0.026,94.145,0.001,141.217c-1.333,0-2.667,0-4,0c0-14.164,0-28.329,0-42.494
		c-8.128,11.982-15.206,24.13-22.146,36.354c-1.103,1.943-3.024,3.581-2.854,6.141c-2,0-4,0-6,0
		c7.039-12.275,14.098-24.539,21.106-36.832c3.04-5.332,8.311-10.727,8.305-16.088c-0.005-5.369-5.273-10.764-8.332-16.092
		c-6.176-10.755-12.418-21.473-18.887-32.645c-0.733,1.039-1.132,1.519-1.44,2.052c-18.667,32.294-37.326,64.594-55.985,96.893
		c-0.484,0.839-1.276,1.591-0.768,2.712c-2,0-4,0-6,0c19.773-34.29,39.52-68.596,59.373-102.838
		c1.483-2.559,1.791-4.431,0.188-7.168c-12.782-21.811-25.364-43.74-38.04-65.613c-0.522-0.902-0.658-2.346-2.342-2.236
		c-0.289,0.926-0.621,1.866-0.878,2.827c-12.463,46.601-24.971,93.188-37.341,139.813c-3.106,11.705-6.869,23.25-8.96,35.215
		c-1.667,0-3.333,0-5,0c0.25-1.297,0.419-2.616,0.759-3.89c15.788-59.026,31.564-118.056,47.469-177.05
		c0.771-2.859,0.424-4.965-1.019-7.447C495.68,682.973,479,654.348,462.662,625.53c-4.094-7.222-9.055-13.508-15.107-19.043
		c-1.93-1.765-4.114-3.269-5.456-5.602c-3.89-0.392-1.953,2.667-1.956,3.898c-0.121,53.448-0.119,106.897-0.106,160.347
		c0.011,44.957,0.053,89.912,0.081,134.869c-1.333,0-2.667,0-4,0c-0.042-1.83-0.119-3.66-0.119-5.491
		c-0.006-97.444-0.106-194.89,0.195-292.333c0.023-7.485-3.864-11.063-9.134-15.816c0,4.757,0,8.535,0,12.313
		c0.02,100.443,0.039,200.886,0.058,301.328c-1.333,0-2.667,0-4,0c-0.039-2.33-0.111-4.659-0.111-6.989
		c-0.006-95.736-0.001-191.474-0.026-287.21c0-2.305,0.433-4.666-0.505-6.912c-0.004-0.602-0.008-1.203-0.012-1.805
		c0.913-2.38,0.694-4.778,0.115-7.183c-2.37-1.618-2.129,1.171-2.508,1.823c-23.224,39.98-46.313,80.039-69.509,120.035
		c-1.467,2.53-1.626,4.7-0.876,7.487c16.205,60.235,32.308,120.497,48.431,180.753c-1.667,0-3.333,0-5,0
		c-0.206-1.136-0.331-2.293-0.628-3.403c-13.99-52.257-27.994-104.511-41.998-156.764c-1.604-5.985-3.214-11.968-5.106-19.012
		c-14.085,24.359-27.546,47.665-41.055,70.942c-0.941,1.621-0.289,2.773,0.486,4.11c20.112,34.702,40.205,69.415,60.3,104.126
		c-2,0-4,0-6,0c-0.332-0.908-0.539-1.888-1.014-2.713c-18.612-32.247-37.249-64.48-55.88-96.717
		c-0.404-0.697-0.702-1.496-1.915-1.635c-8.844,15.307-17.709,30.713-26.669,46.066c-1.009,1.729-0.707,2.943,0.22,4.533
		c9.795,16.797,19.516,33.637,29.258,50.465c-2,0-4,0-6,0c-0.155-0.621-0.179-1.316-0.485-1.852
		c-7.593-13.229-15.215-26.442-22.841-39.652c-0.318-0.552-0.685-1.15-1.673-0.678c0,14.007,0,28.094,0,42.182c-1.333,0-2.667,0-4,0
		c-0.032-1.832-0.091-3.663-0.091-5.494c-0.004-296.338-0.004-592.674,0-889.012c0-1.831,0.06-3.663,0.091-5.494
		c1.333,0,2.667,0,4,0c0,96.383,0,192.766,0,289.148c1.222-0.845,1.628-1.873,1.912-2.934
		c22.526-84.13,45.072-168.255,67.522-252.405c2.996-11.23,6.598-22.315,8.566-33.809c1.667,0,3.333,0,5,0
		c-0.182,0.975-0.298,1.967-0.554,2.922c-25.219,94.224-50.447,188.445-75.681,282.665c-0.515,1.924-1.102,3.829-2.003,6.946
		c1.298-1.388,1.718-1.699,1.958-2.113c47.145-81.742,94.26-163.5,141.482-245.198c1.491-2.58,1.233-4.322-0.141-6.687
		C412.744,25.737,405.457,12.854,398.119,0z M724.797,634.676c-26.196,26.114-52.376,52.244-78.625,78.305
		c-1.815,1.803-2.311,3.996-2.907,6.208c-6.021,22.351-12,44.713-17.988,67.072c-3.733,13.942-7.462,27.886-11.192,41.829
		c1.089-0.546,1.675-1.287,2.142-2.098c10.739-18.602,21.469-37.209,32.193-55.818c25.855-44.865,51.708-89.732,77.562-134.598
		c0.385-0.734,1.729-1.5,0.823-2.215C725.956,632.69,725.317,633.951,724.797,634.676z M583.438,825.688
		c0.457,0.643,0.915,1.287,1.372,1.932c1.025-1.1,0.194-2.025-0.278-2.985c-0.082-0.491-0.125-0.995-0.253-1.475
		c-9.485-35.534-18.982-71.065-28.457-106.604c-0.489-1.833-1.436-3.28-2.776-4.618c-25.577-25.531-51.119-51.098-76.701-76.623
		c-1.052-1.049-1.876-2.936-3.986-2.027C509.408,697.461,546.423,761.574,583.438,825.688z M442.045,53.017
		c-0.457-0.828-1.303-1.46-1.73-0.352c-0.454,1.175-0.271,2.617-0.271,3.942c-0.006,79.532-0.003,159.064,0.007,238.596
		c0,1.327-0.124,2.717,0.227,3.961c0.312,1.107,1.196,0.796,1.823,0.01c17.059-17.102,34.082-34.239,51.218-51.264
		c2.345-2.33,3.812-4.862,4.637-8.025c4.075-15.624,7.496-31.48,12.69-46.729c3.625-10.64,1.783-18.785-3.823-28.199
		C484.768,127.919,463.565,90.374,442.045,53.017z M422.687,52.915c-2.32-1.325-2.122,1.184-2.58,1.973
		c-23.222,40.033-46.335,80.13-69.55,120.168c-1.465,2.528-1.632,4.724-0.881,7.506c14.484,53.689,28.868,107.405,43.298,161.109
		c0.272,1.012-0.031,2.421,1.763,2.893c8.968-9.657,19.092-18.345,27.742-28.488c0.925-2.075,0.5-4.271,0.5-6.408
		c0.021-83.096,0.019-166.193,0.001-249.289C422.979,59.224,422.789,56.069,422.687,52.915z M926.197,824.888
		c-0.011,0.853,0.022,1.889,0.901,2.132c1.365,0.377,1.064-0.902,1.077-1.574c0.046-2.33-0.043-4.661-0.043-6.992
		c-0.003-164.511-0.001-329.021-0.006-493.532c0-1.328,0.181-2.731-0.185-3.963c-0.372-1.251-1.171-0.679-1.692,0.133
		c-16.936,29.438-33.815,58.908-50.887,88.267c-1.876,3.226-2.081,5.06,0.853,7.862c10,9.55,19.514,19.609,29.49,29.185
		c2.924,2.806,3.186,4.188,0.128,7.195c-19.838,19.514-39.418,39.289-59.147,58.913c-2.031,2.021-3.066,3.705-2.209,6.883
		c19.118,70.907,38.112,141.85,57.087,212.796C909.825,763.077,917.989,793.988,926.197,824.888z M903.173,450.662
		c-1.675-1.804-2.738-3.025-3.88-4.167c-98.485-98.521-196.995-197.018-295.385-295.635c-3.193-3.201-4.629-2.888-7.618,0.107
		c-98.515,98.726-197.118,197.364-295.781,295.941c-2.416,2.414-2.629,3.645-0.102,6.169
		c98.802,98.683,197.544,197.426,296.183,296.273c3.093,3.1,4.469,2.603,7.263-0.199c56.95-57.107,114.011-114.105,171.044-171.131
		c41.477-41.471,82.943-82.953,124.438-124.407C900.384,452.565,901.701,451.782,903.173,450.662z M272.248,826.203
		c1.488-0.665,1.427-1.976,1.703-3.007c27.13-101.324,54.217-202.659,81.42-303.964c0.808-3.008,0.298-4.789-1.861-6.93
		c-19.76-19.591-39.362-39.34-59.132-58.921c-2.473-2.449-3.074-3.731-0.162-6.513c10.118-9.665,19.788-19.796,29.832-29.54
		c2.458-2.385,2.765-3.965,0.975-7.031c-16.956-29.04-33.699-58.204-50.537-87.313c-0.504-0.871-0.567-2.402-2.238-2.137
		C272.248,489.274,272.248,657.669,272.248,826.203z M778.248,52.226c-0.335,0.127-0.669,0.254-1.003,0.381
		c0,0.637-0.001,1.273-0.001,1.91c0.005,83.826,0.137,167.651-0.178,251.476c-0.032,8.576,1.519,15.156,8.506,20.571
		c4.834,3.746,8.734,8.681,13.172,12.96c2.297,2.215,4.181,4.956,7.19,6.615c0.364-0.821,0.629-1.255,0.756-1.727
		c14.571-54.367,29.109-108.742,43.771-163.084c0.657-2.435,0.014-4.06-1.108-5.997c-17.682-30.55-35.309-61.131-52.953-91.702
		C790.356,73.156,784.298,62.692,778.248,52.226z M277.727,826.605c0.34,0.131,0.68,0.262,1.02,0.394
		c0.35-0.53,0.73-1.044,1.047-1.593c46.599-80.762,93.172-161.538,139.875-242.239c1.607-2.777,0.718-3.968-1.096-5.769
		c-16.667-16.561-33.296-33.16-49.857-49.826c-2.656-2.673-4.921-5.734-7.367-8.617c-0.482,0.319-0.964,0.638-1.447,0.956
		C332.511,622.143,305.119,724.373,277.727,826.605z M839.789,519.372c-19.826,19.852-38.829,38.991-58.012,57.95
		c-2.498,2.47-2.658,4.029-0.904,7.061c46.513,80.401,92.9,160.875,139.327,241.326c0.406,0.705,0.607,1.75,2.181,1.901
		C894.873,724.952,867.446,622.592,839.789,519.372z M758.869,299.678c0-83.033,0-165.075,0-247.671
		c-0.747,0.853-1.123,1.165-1.353,1.562c-23.442,40.654-46.857,81.324-70.353,121.948c-1.286,2.225-1.416,4.193-0.766,6.59
		c5.322,19.596,10.561,39.215,15.793,58.835c0.438,1.645,1.05,3.098,2.288,4.335C722.388,263.161,740.274,281.071,758.869,299.678z
		 M345.599,184.833c-0.754,0.675-1.2,0.915-1.415,1.288c-13.141,22.767-26.234,45.562-39.438,68.292
		c-1.11,1.911-0.857,3.193,0.164,4.955c21.112,36.417,42.194,72.852,63.166,109.35c1.599,2.782,2.452,2.104,4.172,0.306
		c4.487-4.692,8.956-9.431,13.784-13.758c3.212-2.879,3.998-5.437,2.798-9.841C374.306,292.129,360.066,238.757,345.599,184.833z
		 M854.69,184.562c-0.533,1.153-0.719,1.44-0.804,1.753c-14.467,53.815-28.912,107.637-43.438,161.437
		c-0.628,2.324,0.081,3.706,1.643,5.224c5.012,4.875,10.074,9.714,14.809,14.851c2.63,2.853,3.758,2.922,5.82-0.679
		c20.504-35.794,41.158-71.503,61.912-107.153c1.515-2.601,1.253-4.329-0.161-6.711c-5.689-9.582-11.168-19.288-16.745-28.937
		C870.172,211.279,862.6,198.222,854.69,184.562z M330.433,410.785c11.18-11.184,21.917-22.096,32.889-32.769
		c2.465-2.398,2.775-3.935,0.973-7.024c-19.211-32.93-38.215-65.981-57.285-98.994c-1.971-3.412-3.996-6.792-6.253-10.623
		c-8.989,15.574-17.565,30.604-26.358,45.507c-1.567,2.657-1.466,4.567,0.048,7.16c12.095,20.699,24.043,41.483,36.038,62.24
		C317.054,387.648,323.626,399.012,330.433,410.785z M899.044,261.282c-21.633,37.438-42.759,74.032-63.954,110.585
		c-1.106,1.908-1.083,3.062,0.551,4.672c10.674,10.52,21.285,21.104,31.79,31.792c1.964,1.998,2.613,1.431,3.804-0.639
		c18.247-31.729,36.558-63.423,54.883-95.107c0.803-1.388,1.145-2.443,0.202-4.058C917.296,293.053,908.39,277.51,899.044,261.282z
		 M562.981,721.818c-0.283,0.164-0.565,0.33-0.848,0.494c9.299,34.645,18.597,69.288,27.896,103.932
		c0.949-24.822,0.937-49.422,0.978-74.021c0.003-1.638-0.539-2.824-1.668-3.951C580.533,739.474,571.763,730.641,562.981,721.818z
		 M608.935,826.1c0.322-0.039,0.645-0.078,0.967-0.117c9.183-34.273,18.365-68.547,27.548-102.82
		c-9.793,8.471-18.714,17.384-27.642,26.29c-1.238,1.235-0.859,2.794-0.862,4.254c-0.022,9.327-0.011,18.654-0.011,27.981
		C608.935,796.491,608.935,811.295,608.935,826.1z M503.205,237.807c9.767-9.746,18.56-18.526,27.366-27.295
		c0.869-0.865,1.482-1.552,0.652-2.947c-4.464-7.502-8.814-15.072-13.662-23.405C512.703,202.313,508.125,219.417,503.205,237.807z
		 M682.252,184.066c-2.806,4.879-5.063,8.726-7.243,12.616c-2.254,4.021-6.571,8.391-6.049,12.044
		c0.534,3.728,5.857,6.77,9.081,10.114c5.678,5.892,11.354,11.787,17.03,17.681c0.334-0.28,0.668-0.56,1.001-0.839
		C691.578,218.894,687.083,202.105,682.252,184.066z"/>
	<path fill-rule="evenodd" clip-rule="evenodd" fill="#D5C8AC" d="M976.119,900c-1.667,0-3.333,0-5,0
		c-8.133-14.228-16.267-28.455-25-43.733c0,15.562,0,29.647,0,43.733c-1.667,0-3.333,0-5,0c0-300,0-600,0-900c1.333,0,2.667,0,4,0
		c0.045,1.497,0.13,2.993,0.13,4.49c0.004,88.399-0.015,176.799,0.03,265.198c0.003,6.14-0.522,12.302,0.386,18.426
		c0.093,0.138,0.167,0.296,0.285,0.408c0.101,0.096,0.313,0.229,0.37,0.19c1.537-1.048,1.313-2.846,1.711-4.329
		c12.04-44.815,24.043-89.641,36.031-134.471C997.424,99.944,1010.767,49.971,1024.119,0c1.667,0,3.333,0,5,0
		c-0.575,1.913-1.201,3.812-1.718,5.74c-22.228,82.97-44.446,165.942-66.663,248.915c-3.216,12.01-6.422,24.023-9.94,37.189
		c1.244-1.348,1.747-1.728,2.037-2.23c22.631-39.197,45.235-78.41,67.864-117.609c24.298-42.092,48.624-84.167,72.906-126.268
		c1.01-1.75,2.643-3.251,1.089-5.833c-7.966-13.236-15.736-26.59-23.575-39.903c2,0,4,0,6,0
		c5.99,10.612,11.981,21.225,17.973,31.837c0.342-0.18,0.685-0.36,1.027-0.541c0-10.432,0-20.865,0-31.297c1.333,0,2.667,0,4,0
		c0.038,1.998,0.11,3.995,0.11,5.993c0.005,296.005,0.005,592.009-0.001,888.014c0,1.998-0.071,3.995-0.109,5.993
		c-1.333,0-2.667,0-4,0c0-103.588,0-207.176,0-311.84c-1.196,1.428-1.577,1.768-1.82,2.188
		c-23.455,40.649-46.865,81.324-70.426,121.912c-1.459,2.513-1.228,4.592-0.574,7.021c10.663,39.702,21.277,79.419,31.976,119.111
		c5.54,20.556,11.226,41.073,16.845,61.608c-1.667,0-3.333,0-5,0c-15.916-59.388-31.833-118.775-47.937-178.861
		c-0.966,1.387-1.478,2.018-1.879,2.713c-12.897,22.324-25.738,44.682-38.739,66.946c-1.352,2.314-0.826,3.783,0.345,5.802
		c15.523,26.764,31.012,53.547,46.396,80.391c4.364,7.615,9.268,14.938,12.814,23.01c-1.667,0-3.333,0-5,0
		c-19.344-33.562-38.686-67.123-58.05-100.673c-0.104-0.179-0.518-0.179-0.911-0.301c-7.885,13.245-15.536,26.639-23.761,39.669
		c-3.67,5.814-4.656,10.821,0.146,16.287c1.292,1.47,2.068,3.402,3.035,5.148C960.98,873.484,969.353,886.287,976.119,900z
		 M945.786,323.902c-1.043,2.918-0.515,5.945-0.515,8.913c-0.027,157.267-0.02,314.536,0.007,471.803
		c0.002,7.146,0.211,14.291,0.323,21.437c1.921,0.198,1.47-1.443,1.732-2.383c1.526-5.45,2.967-10.925,4.432-16.393
		c28.742-107.26,57.484-214.519,86.227-321.778c0.681-2.542,1.305-4.764-0.312-7.546c-29.838-51.394-59.515-102.882-89.291-154.312
		c-0.614-1.062-0.533-3.194-2.773-2.763c-0.079,0.136-0.247,0.293-0.22,0.403c0.07,0.29,0.226,0.559,0.348,0.835
		C945.757,322.714,945.772,323.308,945.786,323.902z M1095.949,51.157c-1.226,1.957-1.686,2.642-2.097,3.355
		c-22.898,39.64-45.745,79.311-68.768,118.879c-2.083,3.58-2.529,6.624-1.444,10.655c23.638,87.781,47.123,175.603,70.658,263.411
		c0.277,1.033,0.186,2.372,1.65,2.811C1095.949,317.684,1095.949,185.145,1095.949,51.157z M951.04,827.682
		c0.197,0.081,0.395,0.162,0.592,0.244c0.485-0.634,1.048-1.222,1.443-1.906c46.85-81.146,93.67-162.309,140.599-243.408
		c1.635-2.826,1.717-4.793,0.059-7.623c-12.705-21.682-25.222-43.475-37.806-65.227c-4.313-7.456-8.651-14.896-13.482-23.215
		C1011.801,600.91,981.42,714.296,951.04,827.682z M974.502,261.293c-9.035,15.605-17.515,30.486-26.281,45.196
		c-1.799,3.018-1.531,5.141,0.129,8.009c48.437,83.701,96.79,167.45,145.195,251.17c0.567,0.979,0.583,2.732,2.565,2.551
		c0-30.529-0.037-61.012,0.054-91.494c0.01-3.29-0.736-6.09-2.384-8.935c-26.611-45.949-53.143-91.943-79.691-137.928
		C1001.029,307.242,987.97,284.622,974.502,261.293z M1019.111,184.078c-13.768,23.823-26.764,46.484-40.002,69.001
		c-1.728,2.938-1.394,4.865,0.177,7.577c36.207,62.523,72.324,125.1,108.485,187.65c0.498,0.862,0.58,2.296,2.667,2.192
		C1066.739,361.978,1043.081,273.611,1019.111,184.078z"/>
	<path fill-rule="evenodd" clip-rule="evenodd" fill="#D5C8AC" d="M103.119,900c-1.333,0-2.667,0-4,0c0-300,0-600,0-900
		c1.667,0,3.333,0,5,0c0,10.501,0,21.001,0,32.65c6.708-11.526,12.854-22.088,19-32.65c1.667,0,3.333,0,5,0
		c-7.282,12.702-14.495,25.444-21.901,38.073c-1.569,2.676-1.902,4.59-0.184,7.559c47.197,81.543,94.253,163.167,141.321,244.785
		c0.295,0.512,0.432,1.115,0.642,1.675c0.317-3.168-0.345-5.54-0.983-7.918c-19.494-72.679-39.007-145.352-58.463-218.041
		C182.656,44.111,176.925,22.045,171.119,0c1.667,0,3.333,0,5,0c-0.524,1.547,0.192,2.939,0.573,4.362
		c25.217,94.193,50.44,188.384,75.689,282.569c0.232,0.867,0.184,2.069,1.738,2.324c0-96.452,0-192.854,0-289.255
		c1.333,0,2.667,0,4,0c0.007,11.494,0.021,22.987,0.021,34.481c-0.006,288.506-0.014,577.013-0.021,865.519c-1.333,0-2.667,0-4,0
		c0-14.139,0-28.278,0-42.418c-6.019,8.516-11.142,17.17-16.047,25.946c-3.048,5.453-6.832,10.515-8.953,16.472c-2,0-4,0-6,0
		c9.585-16.578,19.125-33.182,28.808-49.702c1.352-2.306,1.485-4.009,0.017-6.325c-3.117-4.918-5.888-10.055-8.806-15.099
		c-5.802-10.028-11.608-20.055-17.373-30.015c-1.731,0.535-1.941,1.847-2.491,2.797c-14.093,24.356-28.209,48.7-42.168,73.134
		c-4.766,8.343-10.194,16.325-13.986,25.21c-2,0-4,0-6,0c19.985-34.57,39.929-69.166,60.035-103.666
		c1.627-2.793,0.63-4.522-0.653-6.737c-12.513-21.595-24.958-43.228-37.481-64.817c-0.588-1.014-0.642-2.742-2.645-2.682
		c-11.436,42.72-22.909,85.449-34.303,128.199c-4.409,16.544-8.641,33.135-12.954,49.703c-1.667,0-3.333,0-5,0
		c0.128-0.65,0.219-1.313,0.391-1.951c15.957-59.631,31.899-119.266,47.948-178.871c0.756-2.809,0.541-4.973-0.937-7.48
		c-7.261-12.328-14.326-24.771-21.475-37.166c-15.959-27.666-31.917-55.335-47.955-82.957c-0.432-0.743-0.229-3.38-2.519-1.673
		c-0.12,2.151-0.342,4.304-0.343,6.455c-0.018,77.909-0.008,155.818-0.019,233.728C103.207,853.39,103.15,876.695,103.119,900z
		 M103.879,471.938c-1.126,1.847-0.637,3.896-0.64,5.851c-0.037,22.617-0.05,45.235-0.01,67.854
		c0.013,7.474,0.2,14.947,0.307,22.421c2.634,1.085,2.231-1.585,2.79-2.547c22.462-38.723,44.826-77.503,67.204-116.275
		c25.957-44.973,51.923-89.94,77.842-134.934c0.992-1.722,2.781-3.196,1.248-5.813c-9.058-15.461-17.953-31.017-27.164-46.995
		c-1.158,1.806-2.092,3.141-2.903,4.547c-15.476,26.81-30.944,53.624-46.4,80.444C152.057,388.304,127.97,430.123,103.879,471.938z
		 M103.473,450.033c2.735,0.05,1.899-2.394,2.234-3.641c23.619-87.951,47.123-175.932,70.753-263.88
		c0.822-3.061,0.363-5.317-1.174-7.921c-6.519-11.037-12.854-22.182-19.257-33.288c-16.546-28.7-33.076-57.409-49.723-86.05
		c-0.51-0.877-0.12-3.768-2.812-2.308c-0.094,1.656-0.269,3.311-0.269,4.967c-0.011,129.218-0.009,258.436,0.004,387.654
		C103.229,447.056,103.388,448.544,103.473,450.033z M253.905,319.698c-1.072,1.612-1.624,2.352-2.083,3.146
		c-29.752,51.459-59.472,102.937-89.309,154.346c-1.7,2.93-1.54,5.42-0.722,8.465c30.181,112.418,60.287,224.854,90.434,337.281
		c0.297,1.106,0.104,2.623,1.68,3.102C253.905,657.577,253.905,489.196,253.905,319.698z M157.495,486.93
		c-0.95,1.288-1.368,1.756-1.675,2.287c-16.752,28.957-33.462,57.939-50.304,86.845c-1.333,2.288-0.902,3.763,0.285,5.815
		c46.656,80.687,93.25,161.408,139.875,242.113c0.614,1.063,0.822,2.529,2.953,3.081
		C218.278,713.791,188.017,600.848,157.495,486.93z M108.607,453.382c1.259-1.474,1.643-1.804,1.882-2.218
		c36.856-63.836,73.682-127.69,110.618-191.48c1.442-2.49,0.962-4.109-0.308-6.295c-12.627-21.723-25.152-43.505-37.749-65.245
		c-0.606-1.046-0.71-2.668-2.648-2.835C156.608,274.149,132.816,362.988,108.607,453.382z M104.595,451.727
		c-0.093-0.302-0.181-0.586-0.268-0.871c-0.264,0.085-0.759,0.193-0.753,0.251c0.039,0.384,0.186,0.756,0.297,1.132
		C104.113,452.066,104.355,451.896,104.595,451.727z"/>
	<path fill-rule="evenodd" clip-rule="evenodd" fill="#194B55" d="M777.119,900c0.046-1.831,0.132-3.662,0.132-5.492
		c0.013-99.492,0.019-198.982,0.025-298.475c0-2.479,0-4.956,0-7.492c1.08-0.107,1.369,0.949,1.841,1.766
		c23.305,40.38,46.602,80.764,69.924,121.133c1.261,2.183,2.125,4.056,1.354,6.914c-15.976,59.163-31.784,118.371-47.675,177.559
		c-0.373,1.389-0.308,3.028-1.601,4.088C793.119,900,785.119,900,777.119,900z"/>
	<path fill-rule="evenodd" clip-rule="evenodd" fill="#194B55" d="M1138.119,900c-8,0-16,0-24,0c0-103.573,0-207.146,0-311.881
		c1.273,1.504,1.658,1.841,1.9,2.26c23.456,40.646,46.865,81.321,70.437,121.902c1.481,2.551,1.154,4.615,0.506,7.031
		c-11.648,43.398-23.253,86.809-34.94,130.197C1147.481,866.365,1142.758,883.172,1138.119,900z"/>
	<path fill-rule="evenodd" clip-rule="evenodd" fill="#194B55" d="M1072.119,900c-5.619-20.535-11.305-41.053-16.845-61.608
		c-10.698-39.692-21.313-79.409-31.976-119.111c-0.653-2.429-0.885-4.508,0.574-7.021c23.561-40.588,46.971-81.263,70.426-121.912
		c0.243-0.42,0.624-0.76,1.82-2.188c0,104.664,0,208.252,0,311.84C1088.119,900,1080.119,900,1072.119,900z"/>
	<path fill-rule="evenodd" clip-rule="evenodd" fill="#194B55" d="M398.119,900c-16.123-60.256-32.227-120.518-48.431-180.753
		c-0.75-2.787-0.591-4.957,0.876-7.487c23.196-39.996,46.285-80.055,69.509-120.035c0.379-0.652,0.138-3.441,2.508-1.823
		c-0.66,2.384-0.51,4.782-0.115,7.183c0.004,0.602,0.008,1.203,0.012,1.805c-0.105,2.32-0.302,4.641-0.303,6.961
		c-0.029,98.05-0.042,196.1-0.056,294.15C414.119,900,406.119,900,398.119,900z"/>
	<path fill-rule="evenodd" clip-rule="evenodd" fill="#194B55" d="M103.572,589.901c2.29-1.707,2.087,0.93,2.519,1.673
		c16.037,27.622,31.995,55.291,47.955,82.957c7.149,12.395,14.214,24.838,21.475,37.166c1.478,2.508,1.692,4.672,0.937,7.48
		c-16.049,59.605-31.991,119.24-47.948,178.871c-0.171,0.639-0.262,1.301-0.391,1.951c-8,0-16,0-24,0
		c-0.02-2.33-0.057-4.661-0.057-6.991c-0.004-98.894-0.002-197.786-0.026-296.68C104.035,594.187,103.733,592.044,103.572,589.901z"
		/>
	<path fill-rule="evenodd" clip-rule="evenodd" fill="#194B55" d="M85.119,900c-8,0-16,0-24,0c-0.189-0.975-0.319-1.965-0.575-2.921
		C44.878,838.6,29.25,780.111,13.432,721.674c-1.217-4.497-0.923-7.996,1.483-12.085c13.917-23.647,27.496-47.494,41.252-71.235
		c9.659-16.67,19.419-33.28,29.135-49.916c-0.001,102.692-0.001,205.385-0.01,308.078C85.292,897.677,85.179,898.838,85.119,900z"/>
	<path fill-rule="evenodd" clip-rule="evenodd" fill="#194B55" d="M735.119,900c-10.942-40.68-21.894-81.355-32.822-122.039
		c-5.271-19.617-10.437-39.263-15.814-58.85c-0.776-2.83-0.412-5.004,1.021-7.48c17.692-30.541,35.181-61.201,53-91.668
		c4.455-7.615,11.929-12.656,17.921-19.119c1.229,1.438,0.769,2.637,0.77,3.717c0.027,97.481,0.027,194.963,0.024,292.444
		c0,0.998-0.065,1.997-0.1,2.995C751.119,900,743.119,900,735.119,900z"/>
	<path fill-rule="evenodd" clip-rule="evenodd" fill="#194B55" d="M442.1,600.886c1.342,2.333,3.525,3.837,5.456,5.602
		c6.052,5.535,11.013,11.821,15.107,19.043c16.338,28.817,33.018,57.442,49.666,86.083c1.443,2.482,1.79,4.588,1.019,7.447
		c-15.905,58.994-31.682,118.023-47.469,177.05c-0.34,1.273-0.51,2.593-0.759,3.89c-8,0-16,0-24,0
		c-0.107-0.988-0.31-1.977-0.31-2.966c-0.014-97.247-0.018-194.493,0.031-291.741C440.841,603.802,440.008,601.865,442.1,600.886z"
		/>
	<path fill-rule="evenodd" clip-rule="evenodd" fill="#194B55" d="M171.119,0c5.806,22.045,11.538,44.111,17.432,66.132
		c19.456,72.689,38.969,145.362,58.463,218.041c0.638,2.378,1.301,4.75,0.983,7.918c-0.21-0.56-0.347-1.163-0.642-1.675
		C200.287,208.8,153.231,127.175,106.034,45.632c-1.719-2.969-1.385-4.883,0.184-7.559C113.624,25.444,120.837,12.702,128.119,0
		C142.452,0,156.785,0,171.119,0z"/>
	<path fill-rule="evenodd" clip-rule="evenodd" fill="#194B55" d="M1071.119,0c7.839,13.313,15.609,26.667,23.575,39.903
		c1.554,2.582-0.079,4.083-1.089,5.833c-24.282,42.101-48.608,84.176-72.906,126.268c-22.629,39.199-45.233,78.412-67.864,117.609
		c-0.29,0.503-0.793,0.883-2.037,2.23c3.519-13.166,6.725-25.179,9.94-37.189c22.217-82.972,44.436-165.945,66.663-248.915
		c0.517-1.928,1.143-3.828,1.718-5.74C1043.119,0,1057.119,0,1071.119,0z"/>
	<path fill-rule="evenodd" clip-rule="evenodd" fill="#194B55" d="M398.119,0c7.338,12.854,14.625,25.737,22.061,38.535
		c1.374,2.365,1.632,4.107,0.141,6.687c-47.222,81.697-94.338,163.456-141.482,245.198c-0.239,0.415-0.66,0.725-1.958,2.113
		c0.901-3.117,1.488-5.021,2.003-6.946c25.234-94.22,50.462-188.441,75.681-282.665c0.255-0.955,0.372-1.947,0.554-2.922
		C369.452,0,383.785,0,398.119,0z"/>
	<path fill-rule="evenodd" clip-rule="evenodd" fill="#194B55" d="M844.119,0c5.588,20.382,11.271,40.738,16.747,61.149
		c19.89,74.135,39.709,148.288,59.555,222.435c0.464,1.736,1.253,3.419,0.933,5.543c-1.831-0.341-2.078-1.974-2.722-3.088
		C872.25,205.737,825.902,125.415,779.507,45.12c-1.174-2.032-1.635-3.597-0.288-5.865C786.954,26.23,794.505,13.097,802.119,0
		C816.119,0,830.119,0,844.119,0z"/>
	<path fill-rule="evenodd" clip-rule="evenodd" fill="#194B55" d="M254.119,0c0,96.401,0,192.803,0,289.255
		c-1.555-0.255-1.506-1.457-1.738-2.324c-25.249-94.185-50.472-188.376-75.689-282.569c-0.381-1.423-1.097-2.815-0.573-4.362
		C202.119,0,228.119,0,254.119,0z"/>
	<path fill-rule="evenodd" clip-rule="evenodd" fill="#194B55" d="M350.119,0c-1.968,11.494-5.57,22.579-8.566,33.809
		c-22.451,84.15-44.997,168.275-67.522,252.405c-0.284,1.061-0.689,2.089-1.912,2.934c0-96.382,0-192.765,0-289.148
		C298.119,0,324.119,0,350.119,0z"/>
	<path fill-rule="evenodd" clip-rule="evenodd" fill="#194B55" d="M1024.119,0c-13.352,49.971-26.694,99.944-40.057,149.913
		c-11.988,44.83-23.991,89.655-36.031,134.471c-0.398,1.482-0.174,3.28-1.711,4.329c-0.057,0.039-0.27-0.095-0.37-0.19
		c-0.118-0.112-0.192-0.27-0.285-0.408c0.143-3.314,0.409-6.628,0.41-9.943C946.106,185.447,946.11,92.724,946.119,0
		C972.119,0,998.119,0,1024.119,0z"/>
	<path fill-rule="evenodd" clip-rule="evenodd" fill="#194B55" d="M926.153,287.981c-8.036-30.241-16.024-60.495-24.118-90.721
		C884.425,131.499,866.76,65.752,849.119,0c26,0,52,0,78,0c0.062,0.828,0.178,1.656,0.178,2.484
		c0.016,93.839,0.024,187.679,0.001,281.519C927.297,285.379,927.957,287.071,926.153,287.981z"/>
	<path fill-rule="evenodd" clip-rule="evenodd" fill="#194B55" d="M507.119,0c4.808,13.991,8.041,28.425,11.896,42.681
		c12.332,45.609,24.464,91.271,36.785,136.883c0.867,3.208,0.62,5.375-1.933,7.811c-6.126,5.846-11.883,12.081-18.239,18.622
		c-6.318-10.89-12.242-21.052-18.121-31.24c-24.858-43.075-49.676-86.172-74.616-129.199c-1.524-2.63-1.617-4.455-0.026-7.128
		C450.431,25.708,457.727,12.825,465.119,0C479.119,0,493.119,0,507.119,0z"/>
	<path fill-rule="evenodd" clip-rule="evenodd" fill="#194B55" d="M735.119,0c7.371,13.008,14.688,26.048,22.166,38.994
		c1.225,2.12,1.352,3.627,0.079,5.823c-30.698,52.974-61.311,105.999-91.942,159.013c-0.164,0.285-0.377,0.542-1.035,1.475
		c-6.921-6.979-13.776-13.839-20.562-20.769c-1.663-1.699-0.121-3.519,0.315-5.154c15.074-56.427,30.211-112.837,45.333-169.251
		c0.903-3.371,1.765-6.753,2.646-10.13C706.453,0,720.786,0,735.119,0z"/>
	<path fill-rule="evenodd" clip-rule="evenodd" fill="#D5C8AC" d="M1138.119,900c4.64-16.828,9.362-33.635,13.902-50.49
		c11.688-43.389,23.292-86.799,34.94-130.197c0.648-2.416,0.976-4.48-0.506-7.031c-23.571-40.581-46.98-81.256-70.437-121.902
		c-0.242-0.419-0.627-0.756-1.9-2.26c0,104.734,0,208.308,0,311.881c-1.333,0-2.667,0-4,0c-0.029-1.832-0.083-3.663-0.083-5.494
		c-0.004-296.338-0.004-592.674,0-889.011c0-1.832,0.054-3.663,0.083-5.495c1.333,0,2.667,0,4,0c0,10.513,0,21.025,0,31.538
		c0.386,0.102,0.771,0.204,1.156,0.306c5.947-10.615,11.896-21.229,17.844-31.844c2,0,4,0,6,0
		c-7.813,13.304-15.563,26.646-23.502,39.875c-1.392,2.32-0.185,3.734,0.78,5.405c27.096,46.927,54.198,93.851,81.329,140.757
		c0.628,1.084,0.846,2.587,2.393,2.963c0,3.333,0,6.667,0,10c-2.806-4.636-5.611-9.271-8.889-14.688
		c-24.116,89.915-48.017,179.023-71.967,268.319c1.61-0.522,1.856-1.771,2.406-2.723c25.291-43.8,50.555-87.616,75.857-131.409
		c0.718-1.243,1.017-2.866,2.592-3.5c0,3,0,6,0,9c-0.522,0.623-1.152,1.184-1.553,1.876
		c-27.662,47.861-55.291,95.742-82.998,143.577c-1.263,2.18-1.423,4.341-1.422,6.682c0.016,29.164,0.012,58.328,0.013,87.492
		c0,1.576,0,3.152,0,4.905c2.038-0.524,2.166-2.056,2.773-3.104c16.688-28.816,33.304-57.678,49.995-86.492
		c11.012-19.01,22.124-37.959,33.191-56.936c0,3.333,0,6.667,0,10c-0.826-0.125-1.166,0.493-1.484,1.044
		c-8.823,15.284-17.586,30.604-26.509,45.831c-1.231,2.1-0.544,3.783-0.038,5.674c7.541,28.146,15.021,56.309,22.666,84.426
		c1.644,6.043,2.459,12.353,5.365,18.025c0,6.334,0,12.666,0,19c-0.525-1.537-1.143-3.051-1.562-4.617
		c-9.819-36.664-19.614-73.336-29.43-110.002c-0.349-1.302-0.856-2.561-1.349-4.01c-0.578,0.578-0.871,0.77-1.027,1.041
		c-16.926,29.247-33.805,58.521-50.822,87.716c-1.368,2.347-0.771,3.875,0.378,5.861c25.084,43.372,50.09,86.79,75.219,130.136
		c2.724,4.697,4.876,9.781,8.593,13.875c0,3,0,6,0,9c-3.73-3.725-5.144-9.04-8.978-13.445c-4.081,15.146-8.021,29.752-11.951,44.361
		c-12.025,44.693-24.048,89.389-36.071,134.084C1141.452,900,1139.786,900,1138.119,900z M1114.185,450.43
		c1.545-0.696,1.521-1.807,1.763-2.706c23.704-88.463,47.378-176.935,71.134-265.384c0.752-2.801,0.403-4.94-1.045-7.437
		c-23.136-39.897-46.161-79.859-69.263-119.776c-0.559-0.965-0.572-2.768-2.589-2.499
		C1114.185,185.135,1114.185,317.6,1114.185,450.43z"/>
	<path fill-rule="evenodd" clip-rule="evenodd" fill="#D5C8AC" d="M85.302,588.438c-9.715,16.636-19.476,33.246-29.135,49.916
		c-13.757,23.741-27.335,47.588-41.252,71.235c-2.406,4.089-2.7,7.588-1.483,12.085C29.25,780.111,44.878,838.6,60.543,897.079
		c0.256,0.956,0.386,1.946,0.575,2.921c-1.667,0-3.333,0-5,0c-0.197-1.296-0.271-2.624-0.608-3.883
		c-14.634-54.688-29.292-109.371-43.948-164.055c-0.909-3.391-1.839-6.774-3.007-11.074C5.344,726.321,2.731,730.66,0.119,735
		c0-3.334,0-6.666,0-10c1.003-0.084,1.286-0.938,1.685-1.628c27.298-47.241,54.563-94.501,81.954-141.688
		c1.444-2.488,0.947-4.072-0.316-6.248c-15.622-26.9-31.156-53.852-46.717-80.787c-1.368-2.367-2.771-4.714-4.549-7.736
		c-0.55,1.397-0.832,1.948-0.988,2.531c-7.015,26.195-13.941,52.416-21.06,78.582C6.858,580.035,4.204,592.218,0.119,604
		c0-6.334,0-12.666,0-19c1.67-0.773,1.413-2.515,1.771-3.844c7.59-28.225,14.603-56.617,22.903-84.629
		c3.261-11.006,3.072-19.936-3.766-29.561C13.181,455.923,7.665,443.324,0.119,432c0-3,0-6,0-9c1.225,0.475,1.503,1.7,2.066,2.674
		c26.779,46.346,53.537,92.703,80.349,139.031c0.87,1.503,1.173,3.568,3.255,4.172c0.685-1.38,0.333-2.74-0.077-4.099
		c0.003-0.515,0.007-1.028,0.011-1.542c0.129-0.982,0.37-1.963,0.371-2.944c0.023-28.353,0.03-56.704-0.001-85.056
		c-0.001-1.119-0.39-2.236-0.598-3.354c-27.995-48.538-55.989-97.075-84.006-145.599c-0.299-0.519-0.906-0.86-1.369-1.284
		c0-3,0-6,0-9c1.826,0.621,2.096,2.479,2.884,3.84c21.786,37.603,43.516,75.238,65.261,112.865
		c3.723,6.442,7.469,12.87,11.204,19.303c0.28-0.119,0.561-0.238,0.841-0.358c-23.82-88.816-47.64-177.633-71.675-267.25
		c-3.138,5.012-5.826,9.306-8.515,13.601c0-3.333,0-6.667,0-10c1.336,0.13,1.525-1.039,1.98-1.826
		C29.327,139.026,56.521,91.856,83.821,44.75c1.317-2.271,0.988-3.811-0.196-5.839C76.068,25.973,68.61,12.977,61.119,0
		c1.667,0,3.333,0,5,0c6.295,10.702,12.591,21.404,19.417,33.006C86.073,21.163,85.079,10.565,86.119,0c1.333,0,2.667,0,4,0
		c0.033,1.665,0.095,3.329,0.095,4.994c0.004,296.671,0.004,593.342,0,890.013c0,1.664-0.062,3.329-0.095,4.993
		c-1.333,0-2.667,0-4,0c-0.002-102.512,0-205.022-0.054-307.534C86.064,591.145,86.968,589.5,85.302,588.438z M84.128,52.956
		c-23.417,40.653-46.813,81.318-70.3,121.931c-1.436,2.482-1.819,4.584-1.047,7.445C28.517,240.65,44.144,298.998,59.753,357.35
		c8.169,30.538,16.265,61.096,24.393,91.645c-0.029,0.837-0.109,1.847,0.752,2.201c1.313,0.539,1.177-0.669,1.246-1.388
		c0.079-0.825-0.01-1.664-0.01-2.497c-0.006-130.149-0.01-260.299-0.019-390.448c0-1.496,0.368-3.173-0.182-4.442
		C85.216,50.765,84.538,52.017,84.128,52.956z"/>
	<path fill-rule="evenodd" clip-rule="evenodd" fill="#194B55" d="M1200.119,726c-3.717-4.094-5.869-9.178-8.593-13.875
		c-25.129-43.346-50.135-86.764-75.219-130.136c-1.148-1.986-1.746-3.515-0.378-5.861c17.018-29.194,33.896-58.469,50.822-87.716
		c0.156-0.271,0.449-0.463,1.027-1.041c0.492,1.449,1,2.708,1.349,4.01c9.815,36.666,19.61,73.338,29.43,110.002
		c0.419,1.566,1.036,3.08,1.562,4.617C1200.119,646,1200.119,686,1200.119,726z"/>
	<path fill-rule="evenodd" clip-rule="evenodd" fill="#194B55" d="M0.119,604c4.085-11.782,6.74-23.965,10.007-35.975
		c7.119-26.166,14.045-52.387,21.06-78.582c0.157-0.583,0.438-1.134,0.988-2.531c1.779,3.022,3.182,5.369,4.549,7.736
		c15.562,26.936,31.096,53.887,46.717,80.787c1.264,2.176,1.761,3.76,0.316,6.248c-27.391,47.188-54.656,94.447-81.954,141.688
		c-0.398,0.689-0.682,1.544-1.685,1.628C0.119,684.666,0.119,644.334,0.119,604z"/>
	<path fill-rule="evenodd" clip-rule="evenodd" fill="#194B55" d="M591.119,0c-0.047,48.133-0.14,96.267-0.059,144.4
		c0.007,3.979-1.075,6.863-3.924,9.625c-8.696,8.433-17.162,17.104-26.369,26.334c-2.823-10.5-5.44-20.219-8.049-29.941
		c-13.07-48.704-26.141-97.408-39.182-146.119c-0.37-1.382-1.273-2.774-0.418-4.3C539.119,0,565.119,0,591.119,0z"/>
	<path fill-rule="evenodd" clip-rule="evenodd" fill="#194B55" d="M687.119,0c-4.674,17.862-9.273,35.743-14.039,53.581
		c-10.913,40.855-21.906,81.689-32.873,122.53c-0.253,0.943-0.564,1.871-0.836,2.764c-1.876,0.218-2.436-1.219-3.297-2.07
		c-5.688-5.621-10.881-11.848-17.084-16.817c-8.146-6.524-10.447-14.214-10.305-24.543c0.594-43.146,0.248-86.305,0.258-129.458
		c0-1.995,0.115-3.991,0.176-5.986C635.119,0,661.119,0,687.119,0z"/>
	<path fill-rule="evenodd" clip-rule="evenodd" fill="#194B55" d="M1200.119,189c-1.547-0.375-1.765-1.878-2.393-2.963
		c-27.131-46.907-54.233-93.83-81.329-140.757c-0.965-1.671-2.172-3.085-0.78-5.405c7.939-13.229,15.688-26.571,23.502-39.875
		c14,0,28,0,42,0c2.033,7.362,4.071,14.723,6.098,22.086c4.304,15.637,8.602,31.275,12.902,46.914
		C1200.119,109,1200.119,149,1200.119,189z"/>
	<path fill-rule="evenodd" clip-rule="evenodd" fill="#194B55" d="M61.119,0c7.491,12.977,14.95,25.973,22.506,38.911
		c1.185,2.028,1.513,3.567,0.196,5.839C56.521,91.856,29.327,139.026,2.099,186.174c-0.455,0.787-0.644,1.956-1.98,1.826
		c0-40.333,0-80.667,0-121c0.541-1.374,1.219-2.71,1.601-4.126C4.88,51.139,7.84,39.347,11.157,27.656
		C13.774,18.428,15.385,8.906,19.119,0C33.119,0,47.119,0,61.119,0z"/>
	<path fill-rule="evenodd" clip-rule="evenodd" fill="#194B55" d="M1200.119,422c-11.067,18.977-22.18,37.926-33.191,56.936
		c-16.691,28.814-33.307,57.676-49.995,86.492c-0.607,1.049-0.735,2.58-2.773,3.104c0-1.753,0-3.329,0-4.905
		c-0.001-29.164,0.003-58.328-0.013-87.492c-0.001-2.341,0.159-4.502,1.422-6.682c27.707-47.835,55.336-95.715,82.998-143.577
		c0.4-0.693,1.03-1.254,1.553-1.876C1200.119,356.667,1200.119,389.333,1200.119,422z"/>
	<path fill-rule="evenodd" clip-rule="evenodd" fill="#194B55" d="M85.788,568.877c-2.082-0.604-2.385-2.669-3.255-4.172
		c-26.812-46.328-53.57-92.686-80.349-139.031C1.622,424.7,1.344,423.475,0.119,423c0-32.667,0-65.333,0-98
		c0.463,0.424,1.069,0.765,1.369,1.284c28.017,48.524,56.011,97.062,84.006,145.599c-0.043,29.969-0.087,59.938-0.113,89.907
		c0,0.481,0.223,0.964,0.342,1.446c-0.003,0.514-0.007,1.027-0.011,1.542C85.194,566.154,85.292,567.52,85.788,568.877z"/>
	<path fill-rule="evenodd" clip-rule="evenodd" fill="#194B55" d="M90.119,900c0.033-1.664,0.095-3.329,0.095-4.993
		c0.004-296.671,0.004-593.342,0-890.013c0-1.665-0.062-3.329-0.095-4.994c3,0,6,0,9,0c0,300,0,600,0,900
		C96.119,900,93.119,900,90.119,900z"/>
	<path fill-rule="evenodd" clip-rule="evenodd" fill="#194B55" d="M941.119,0c0,300,0,600,0,900c-3,0-6,0-9,0
		c0.045-26.982,0.129-53.966,0.129-80.949c0.01-270.854,0.007-541.708,0.001-812.562c0-2.163-0.085-4.326-0.13-6.489
		C935.119,0,938.119,0,941.119,0z"/>
	<path fill-rule="evenodd" clip-rule="evenodd" fill="#194B55" d="M267.119,900c-2.667,0-5.333,0-8,0
		c-0.05-2.163-0.144-4.326-0.144-6.489c-0.006-295.674-0.006-591.348,0-887.021c0-2.164,0.094-4.327,0.144-6.49c2.667,0,5.333,0,8,0
		c0.021,1.666,0.059,3.331,0.059,4.996c0.002,269.185,0.004,538.369,0,807.554C267.177,841.699,267.139,870.85,267.119,900z"/>
	<path fill-rule="evenodd" clip-rule="evenodd" fill="#194B55" d="M1101.119,0c2.667,0,5.333,0,8,0
		c0.026,1.665,0.075,3.33,0.075,4.996c0.004,296.669,0.004,593.339,0,890.009c0,1.665-0.049,3.33-0.075,4.995c-2.667,0-5.333,0-8,0
		c-0.014-1.998-0.04-3.998-0.04-5.996c-0.002-150.084-0.007-300.167,0-450.25C1101.085,295.835,1101.105,147.918,1101.119,0z"/>
	<path fill-rule="evenodd" clip-rule="evenodd" fill="#194B55" d="M133.119,900c4.313-16.568,8.544-33.159,12.954-49.703
		c11.394-42.75,22.867-85.479,34.303-128.199c2.003-0.061,2.057,1.668,2.645,2.682c12.522,21.59,24.968,43.223,37.481,64.817
		c1.283,2.215,2.28,3.944,0.653,6.737c-20.106,34.5-40.05,69.096-60.035,103.666C151.785,900,142.452,900,133.119,900z"/>
	<path fill-rule="evenodd" clip-rule="evenodd" fill="#194B55" d="M1038.119,900c-3.547-8.072-8.45-15.395-12.814-23.01
		c-15.384-26.844-30.872-53.627-46.396-80.391c-1.171-2.019-1.696-3.487-0.345-5.802c13.001-22.265,25.842-44.622,38.739-66.946
		c0.401-0.695,0.913-1.326,1.879-2.713c16.104,60.086,32.021,119.474,47.937,178.861C1057.452,900,1047.786,900,1038.119,900z"/>
	<path fill-rule="evenodd" clip-rule="evenodd" fill="#194B55" d="M807.119,900c-0.788-2.079,0.365-3.898,0.864-5.766
		c15.046-56.313,30.129-112.615,45.216-168.918c0.299-1.112,0.72-2.192,1.091-3.311c1.813,0.546,2.095,2.206,2.809,3.438
		c12.355,21.322,24.6,42.709,37.066,63.965c1.738,2.965,1.783,5.045,0.043,8.033c-19.271,33.098-38.38,66.288-57.522,99.459
		c-0.578,1.002-1.047,2.064-1.566,3.1C825.786,900,816.452,900,807.119,900z"/>
	<path fill-rule="evenodd" clip-rule="evenodd" fill="#194B55" d="M365.119,900c-20.096-34.711-40.188-69.424-60.3-104.126
		c-0.775-1.337-1.427-2.489-0.486-4.11c13.508-23.277,26.969-46.583,41.055-70.942c1.892,7.044,3.502,13.026,5.106,19.012
		c14.004,52.253,28.008,104.507,41.998,156.764c0.297,1.11,0.422,2.268,0.628,3.403C383.785,900,374.452,900,365.119,900z"/>
	<path fill-rule="evenodd" clip-rule="evenodd" fill="#194B55" d="M470.119,900c2.091-11.965,5.854-23.51,8.96-35.215
		c12.371-46.625,24.878-93.213,37.341-139.813c0.257-0.961,0.589-1.901,0.878-2.827c1.684-0.109,1.819,1.334,2.342,2.236
		c12.676,21.873,25.257,43.803,38.04,65.613c1.604,2.737,1.295,4.609-0.188,7.168c-19.853,34.242-39.6,68.548-59.373,102.838
		C488.785,900,479.452,900,470.119,900z"/>
	<path fill-rule="evenodd" clip-rule="evenodd" fill="#194B55" d="M702.119,900c-12.883-22.113-25.785-44.216-38.644-66.344
		c-7.186-12.365-14.286-24.782-21.464-37.153c-1.014-1.747-1.867-3.073-0.535-5.349c13.27-22.682,26.368-45.461,39.512-68.215
		c0.236-0.41,0.438-0.84,1.207-2.328c3.335,12.459,6.328,23.617,9.309,34.777c12.873,48.203,25.744,96.407,38.615,144.611
		C720.786,900,711.453,900,702.119,900z"/>
	<path fill-rule="evenodd" clip-rule="evenodd" fill="#194B55" d="M1200.119,315c-1.575,0.634-1.874,2.257-2.592,3.5
		c-25.303,43.793-50.566,87.608-75.857,131.409c-0.55,0.953-0.796,2.201-2.406,2.723c23.95-89.296,47.851-178.405,71.967-268.319
		c3.277,5.416,6.083,10.052,8.889,14.688C1200.119,237.667,1200.119,276.333,1200.119,315z"/>
	<path fill-rule="evenodd" clip-rule="evenodd" fill="#194B55" d="M0.119,198c2.689-4.295,5.377-8.589,8.515-13.601
		c24.035,89.618,47.855,178.434,71.675,267.25c-0.281,0.12-0.561,0.239-0.841,0.358c-3.735-6.434-7.481-12.861-11.204-19.303
		C46.519,395.078,24.789,357.443,3.003,319.84c-0.789-1.361-1.058-3.219-2.884-3.84C0.119,276.667,0.119,237.333,0.119,198z"/>
	<path fill-rule="evenodd" clip-rule="evenodd" fill="#194B55" d="M1143.119,900c12.023-44.695,24.046-89.391,36.071-134.084
		c3.931-14.609,7.87-29.215,11.951-44.361c3.834,4.405,5.247,9.721,8.978,13.445c0,38.666,0,77.334,0,116
		c-2.407,4.074-4.898,8.102-7.205,12.231c-6.868,12.292-14.568,24.114-20.795,36.769C1162.452,900,1152.786,900,1143.119,900z"/>
	<path fill-rule="evenodd" clip-rule="evenodd" fill="#194B55" d="M0.119,735c2.613-4.34,5.226-8.679,8.437-14.012
		c1.168,4.3,2.098,7.684,3.007,11.074c14.657,54.684,29.314,109.366,43.948,164.055c0.337,1.259,0.411,2.587,0.608,3.883
		c-9.333,0-18.667,0-28,0c-9.333-16-18.667-32-28-48C0.119,813,0.119,774,0.119,735z"/>
	<path fill-rule="evenodd" clip-rule="evenodd" fill="#194B55" d="M976.119,900c-6.766-13.713-15.139-26.516-22.54-39.869
		c-0.967-1.746-1.743-3.679-3.035-5.148c-4.803-5.466-3.816-10.473-0.146-16.287c8.225-13.03,15.876-26.424,23.761-39.669
		c0.394,0.122,0.808,0.122,0.911,0.301c19.364,33.55,38.706,67.111,58.05,100.673C1014.119,900,995.119,900,976.119,900z"/>
	<path fill-rule="evenodd" clip-rule="evenodd" fill="#194B55" d="M167.119,900c3.792-8.885,9.22-16.867,13.986-25.21
		c13.958-24.434,28.075-48.777,42.168-73.134c0.55-0.95,0.76-2.262,2.491-2.797c5.765,9.96,11.571,19.986,17.373,30.015
		c2.918,5.044,5.689,10.181,8.806,15.099c1.469,2.316,1.335,4.02-0.017,6.325c-9.683,16.521-19.223,33.124-28.808,49.702
		C204.452,900,185.785,900,167.119,900z"/>
	<path fill-rule="evenodd" clip-rule="evenodd" fill="#194B55" d="M504.119,900c-0.508-1.121,0.284-1.873,0.768-2.712
		c18.659-32.299,37.318-64.599,55.985-96.893c0.308-0.533,0.707-1.013,1.44-2.052c6.469,11.172,12.711,21.89,18.887,32.645
		c3.059,5.328,8.326,10.723,8.332,16.092c0.006,5.361-5.265,10.756-8.305,16.088c-7.009,12.293-14.068,24.557-21.106,36.832
		C541.452,900,522.785,900,504.119,900z"/>
	<path fill-rule="evenodd" clip-rule="evenodd" fill="#194B55" d="M840.119,900c19.474-33.673,38.947-67.346,58.384-100.957
		c1.77-0.145,1.851,1.355,2.368,2.247c8.183,14.089,16.234,28.256,24.53,42.277c1.571,2.656,1.504,4.494-0.036,7.135
		c-9.535,16.362-18.854,32.851-28.246,49.298C878.119,900,859.119,900,840.119,900z"/>
	<path fill-rule="evenodd" clip-rule="evenodd" fill="#194B55" d="M303.119,900c-9.742-16.828-19.463-33.668-29.258-50.465
		c-0.927-1.59-1.229-2.805-0.22-4.533c8.96-15.354,17.825-30.76,26.669-46.066c1.212,0.139,1.511,0.938,1.915,1.635
		c18.631,32.236,37.268,64.47,55.88,96.717c0.476,0.825,0.682,1.805,1.014,2.713C340.452,900,321.785,900,303.119,900z"/>
	<path fill-rule="evenodd" clip-rule="evenodd" fill="#194B55" d="M640.119,900c-9.863-16.943-19.709-33.896-29.624-50.811
		c-0.864-1.474-0.942-2.594-0.071-4.088c8.952-15.361,17.84-30.761,26.719-46.101c1.689,0.157,1.868,1.492,2.389,2.391
		c18.567,32.104,37.107,64.223,55.638,96.349c0.405,0.702,0.638,1.504,0.95,2.26C677.453,900,658.785,900,640.119,900z"/>
	<path fill-rule="evenodd" clip-rule="evenodd" fill="#194B55" d="M436.119,0c-0.042,20.155-0.115,40.311-0.119,60.466
		c-0.014,78.462-0.142,156.926,0.206,235.387c0.035,7.728-2.573,12.78-8.321,16.997c-1.12-0.288-0.826-1.247-0.826-1.999
		c0.011-103.617,0.036-207.234,0.06-310.851C430.119,0,433.119,0,436.119,0z"/>
	<path fill-rule="evenodd" clip-rule="evenodd" fill="#194B55" d="M764.119,900c-0.058-1.828-0.165-3.656-0.166-5.485
		c-0.011-98.432,0.029-196.863-0.114-295.295c-0.01-6.472,5.582-7.896,8.119-12.335c1.444,1.762,0.872,3.128,0.873,4.354
		c0.034,101.264,0.029,202.526,0.041,303.789c0,1.658,0.161,3.315,0.247,4.973C770.119,900,767.119,900,764.119,900z"/>
	<path fill-rule="evenodd" clip-rule="evenodd" fill="#194B55" d="M773.119,0c-0.086,2.157-0.247,4.315-0.247,6.472
		c-0.007,101.108,0,202.216,0.006,303.324c0,0.825,0,1.649,0,3.828c-4.275-4.823-9.117-7.142-9.1-14.308
		c0.235-97.609,0.163-195.22,0.175-292.83c0.001-2.162,0.108-4.324,0.166-6.485C767.119,0,770.119,0,773.119,0z"/>
	<path fill-rule="evenodd" clip-rule="evenodd" fill="#194B55" d="M427.119,900c-0.02-100.442-0.039-200.885-0.058-301.328
		c0-3.777,0-7.556,0-12.313c5.271,4.754,9.157,8.331,9.134,15.816c-0.302,97.443-0.201,194.889-0.195,292.333
		c0,1.831,0.078,3.661,0.119,5.491C433.119,900,430.119,900,427.119,900z"/>
	<path fill-rule="evenodd" clip-rule="evenodd" fill="#194B55" d="M1200.119,587c-2.906-5.673-3.722-11.982-5.365-18.025
		c-7.645-28.117-15.125-56.279-22.666-84.426c-0.506-1.891-1.193-3.574,0.038-5.674c8.923-15.227,17.686-30.546,26.509-45.831
		c0.318-0.551,0.658-1.17,1.484-1.044C1200.119,483.666,1200.119,535.334,1200.119,587z"/>
	<path fill-rule="evenodd" clip-rule="evenodd" fill="#194B55" d="M0.119,432c7.546,11.324,13.062,23.923,20.908,34.967
		c6.838,9.625,7.026,18.555,3.766,29.561c-8.3,28.012-15.313,56.404-22.903,84.629c-0.358,1.329-0.101,3.07-1.771,3.844
		C0.119,534,0.119,483,0.119,432z"/>
	<path fill-rule="evenodd" clip-rule="evenodd" fill="#194B55" d="M604.119,0c0.068,15.492,0.178,30.984,0.195,46.477
		c0.034,30.994,0.027,61.988-0.008,92.982c-0.002,1.417,0.479,2.941-0.716,4.789c-2.819-4.632-5.161-2.174-8.204,1.648
		c0-3.501,0-5.726,0-7.95c0.004-44.492,0.012-88.984,0.002-133.476c0-1.49-0.176-2.98-0.271-4.47C598.119,0,601.119,0,604.119,0z"/>
	<path fill-rule="evenodd" clip-rule="evenodd" fill="#194B55" d="M597.104,755.891c2.06,3.25,4.188,3.539,6.028-0.025
		c1.623,0.719,1.195,1.858,1.195,2.764c0.013,46.296,0.002,92.592-0.017,138.889c-0.001,0.827-0.126,1.654-0.192,2.482
		c-2.666,0-5.333,0-8,0c-0.102-0.822-0.293-1.644-0.293-2.465c-0.022-45.907-0.035-91.814-0.009-137.722
		C595.818,758.435,595.259,756.727,597.104,755.891z"/>
	<path fill-rule="evenodd" clip-rule="evenodd" fill="#869487" d="M1109.119,900c0.026-1.665,0.075-3.33,0.075-4.995
		c0.004-296.67,0.004-593.34,0-890.009c0-1.666-0.049-3.331-0.075-4.996c0.333,0,0.667,0,1,0c-0.029,1.832-0.083,3.663-0.083,5.495
		c-0.004,296.337-0.004,592.673,0,889.011c0,1.831,0.054,3.662,0.083,5.494C1109.786,900,1109.452,900,1109.119,900z"/>
	<path fill-rule="evenodd" clip-rule="evenodd" fill="#869487" d="M1101.119,0c-0.014,147.918-0.033,295.835-0.04,443.753
		c-0.007,150.083-0.002,300.167,0,450.25c0,1.998,0.026,3.998,0.04,5.996c-0.333,0-0.667,0-1,0c0.038-1.998,0.109-3.995,0.109-5.993
		c0.006-296.005,0.006-592.009,0.001-888.014c0-1.998-0.072-3.995-0.11-5.993C1100.452,0,1100.786,0,1101.119,0z"/>
	<path fill-rule="evenodd" clip-rule="evenodd" fill="#869487" d="M259.119,0c-0.05,2.163-0.144,4.326-0.144,6.49
		c-0.006,295.673-0.006,591.347,0,887.021c0,2.163,0.094,4.326,0.144,6.489c-0.333,0-0.667,0-1,0
		c0.007-288.506,0.015-577.013,0.021-865.519c0-11.494-0.014-22.987-0.021-34.481C258.452,0,258.785,0,259.119,0z"/>
	<path fill-rule="evenodd" clip-rule="evenodd" fill="#869487" d="M267.119,900c0.021-29.15,0.059-58.301,0.059-87.45
		c0.004-269.185,0.002-538.369,0-807.554c0-1.666-0.039-3.331-0.059-4.996c0.333,0,0.667,0,1,0
		c-0.032,1.832-0.091,3.663-0.091,5.494c-0.004,296.337-0.004,592.674,0,889.012c0,1.831,0.06,3.662,0.091,5.494
		C267.785,900,267.452,900,267.119,900z"/>
	<path fill-rule="evenodd" clip-rule="evenodd" fill="#194B55" d="M902.119,900c8.235-14.244,16.471-28.486,25.441-44.002
		c0.572,15.691-0.456,29.866,0.559,44.002C919.452,900,910.786,900,902.119,900z"/>
	<path fill-rule="evenodd" clip-rule="evenodd" fill="#194B55" d="M566.119,900c-0.171-2.56,1.751-4.197,2.854-6.141
		c6.941-12.224,14.018-24.371,22.146-36.354c0,14.165,0,28.33,0,42.494C582.785,900,574.452,900,566.119,900z"/>
	<path fill-rule="evenodd" clip-rule="evenodd" fill="#194B55" d="M229.119,900c2.121-5.957,5.905-11.019,8.953-16.472
		c4.905-8.776,10.028-17.431,16.047-25.946c0,14.14,0,28.279,0,42.418C245.785,900,237.452,900,229.119,900z"/>
	<path fill-rule="evenodd" clip-rule="evenodd" fill="#194B55" d="M272.119,900c0-14.088,0-28.175,0-42.182
		c0.988-0.473,1.355,0.126,1.673,0.678c7.626,13.21,15.248,26.424,22.841,39.652c0.307,0.535,0.33,1.23,0.485,1.852
		C288.785,900,280.452,900,272.119,900z"/>
	<path fill-rule="evenodd" clip-rule="evenodd" fill="#194B55" d="M609.119,900c0-14.092,0-28.186,0-42.277
		c0.262-0.158,0.524-0.316,0.787-0.475c8.07,14.251,16.142,28.502,24.213,42.752C625.785,900,617.453,900,609.119,900z"/>
	<path fill-rule="evenodd" clip-rule="evenodd" fill="#194B55" d="M946.119,900c0-14.086,0-28.172,0-43.733
		c8.733,15.278,16.867,29.506,25,43.733C962.786,900,954.452,900,946.119,900z"/>
	<path fill-rule="evenodd" clip-rule="evenodd" fill="#194B55" d="M1200.119,861c0,12.166-0.069,24.334,0.064,36.499
		c0.023,2.151-0.409,2.624-2.566,2.567c-6.828-0.179-13.665-0.066-20.498-0.066c2.714-4.773,5.307-9.621,8.17-14.304
		C1190.298,877.504,1194.317,868.715,1200.119,861z"/>
	<path fill-rule="evenodd" clip-rule="evenodd" fill="#194B55" d="M22.119,900c-6.5,0-13.003-0.117-19.498,0.066
		c-2.158,0.061-2.591-0.416-2.567-2.567C0.189,885.668,0.119,873.834,0.119,862c4.713,5.189,7.394,11.652,10.832,17.617
		C14.815,886.322,19.487,892.612,22.119,900z"/>
	<path fill-rule="evenodd" clip-rule="evenodd" fill="#194B55" d="M1186.119,0c4.631,0,10.934-1.79,13.405,0.521
		c2.311,2.161,0.584,8.668,0.59,13.262c0.015,12.073,0.005,24.145,0.005,36.217c-1.323-0.565-1.19-1.914-1.471-2.958
		C1194.441,31.37,1190.286,15.683,1186.119,0z"/>
	<path fill-rule="evenodd" clip-rule="evenodd" fill="#194B55" d="M0.119,49c0-15.045,0.16-30.094-0.116-45.134
		c-0.066-3.623,0.992-4.268,4.195-3.932C7.141,0.243,10.143,0,13.119,0c-0.203,6-2.443,11.546-4.013,17.215
		C6.167,27.825,4.105,38.687,0.119,49z"/>
	<path fill-rule="evenodd" clip-rule="evenodd" fill="#194B55" d="M86.119,0c-1.04,10.565-0.045,21.163-0.583,33.006
		C78.71,21.404,72.414,10.702,66.119,0C72.785,0,79.452,0,86.119,0z"/>
	<path fill-rule="evenodd" clip-rule="evenodd" fill="#194B55" d="M459.119,0c-4.854,11.23-12.105,21.081-17.614,31.934
		c-0.462-0.105-0.924-0.21-1.386-0.316c0-10.539,0-21.079,0-31.618C446.452,0,452.785,0,459.119,0z"/>
	<path fill-rule="evenodd" clip-rule="evenodd" fill="#194B55" d="M796.119,0c-5.134,11.07-12.077,21.092-17.744,31.853
		c-0.419-0.101-0.837-0.203-1.256-0.304c0-10.516,0-21.033,0-31.549C783.452,0,789.786,0,796.119,0z"/>
	<path fill-rule="evenodd" clip-rule="evenodd" fill="#194B55" d="M1133.119,0c-5.948,10.615-11.896,21.229-17.844,31.844
		c-0.386-0.102-0.771-0.204-1.156-0.306c0-10.513,0-21.025,0-31.538C1120.452,0,1126.786,0,1133.119,0z"/>
	<path fill-rule="evenodd" clip-rule="evenodd" fill="#194B55" d="M1096.119,0c0,10.432,0,20.865,0,31.297
		c-0.343,0.18-0.686,0.36-1.027,0.541C1089.1,21.225,1083.109,10.612,1077.119,0C1083.452,0,1089.786,0,1096.119,0z"/>
	<path fill-rule="evenodd" clip-rule="evenodd" fill="#D5C8AC" d="M1186.119,0c4.167,15.683,8.322,31.37,12.529,47.042
		c0.28,1.044,0.147,2.393,1.471,2.958c0,6.333,0,12.667,0,19c-4.301-15.638-8.599-31.277-12.902-46.914
		c-2.026-7.364-4.064-14.725-6.098-22.086C1182.786,0,1184.452,0,1186.119,0z"/>
	<path fill-rule="evenodd" clip-rule="evenodd" fill="#194B55" d="M759.119,0c0,10.428,0,20.856,0,31.284
		c-0.282,0.162-0.565,0.323-0.848,0.485C752.22,21.179,746.169,10.59,740.119,0C746.452,0,752.786,0,759.119,0z"/>
	<path fill-rule="evenodd" clip-rule="evenodd" fill="#869487" d="M85.302,588.438c1.666,1.063,0.762,2.707,0.762,4.028
		C86.119,694.978,86.116,797.488,86.119,900c-0.333,0-0.667,0-1,0c0.061-1.162,0.173-2.323,0.173-3.484
		C85.301,793.822,85.301,691.13,85.302,588.438z"/>
	<path fill-rule="evenodd" clip-rule="evenodd" fill="#869487" d="M103.572,589.901c0.161,2.143,0.463,4.285,0.463,6.428
		c0.024,98.894,0.022,197.786,0.026,296.68c0,2.33,0.037,4.661,0.057,6.991c-0.333,0-0.667,0-1,0
		c0.032-23.305,0.088-46.61,0.091-69.916c0.011-77.909,0.001-155.818,0.019-233.728C103.23,594.205,103.453,592.053,103.572,589.901
		z"/>
	<path fill-rule="evenodd" clip-rule="evenodd" fill="#194B55" d="M422.119,0c0,10.445,0,20.891,0,32.661
		c-6.688-11.497-12.844-22.079-19-32.661C409.452,0,415.785,0,422.119,0z"/>
	<path fill-rule="evenodd" clip-rule="evenodd" fill="#194B55" d="M123.119,0c-6.146,10.562-12.292,21.124-19,32.65
		c0-11.649,0-22.149,0-32.65C110.452,0,116.785,0,123.119,0z"/>
	<path fill-rule="evenodd" clip-rule="evenodd" fill="#D5C8AC" d="M0.119,49c3.986-10.313,6.048-21.175,8.987-31.785
		C10.676,11.546,12.916,6,13.119,0c2,0,4,0,6,0c-3.733,8.906-5.345,18.428-7.962,27.656C7.84,39.347,4.88,51.139,1.719,62.874
		C1.338,64.29,0.659,65.626,0.119,67C0.119,61,0.119,55,0.119,49z"/>
	<path fill-rule="evenodd" clip-rule="evenodd" fill="#869487" d="M422.119,900c0.014-98.051,0.026-196.101,0.056-294.15
		c0-2.32,0.197-4.641,0.303-6.961c0.938,2.246,0.504,4.607,0.505,6.912c0.024,95.736,0.02,191.474,0.026,287.21
		c0,2.33,0.072,4.659,0.111,6.989C422.785,900,422.452,900,422.119,900z"/>
	<path fill-rule="evenodd" clip-rule="evenodd" fill="#869487" d="M442.1,600.886c-2.092,0.979-1.258,2.916-1.259,4.407
		c-0.049,97.248-0.045,194.494-0.031,291.741c0,0.989,0.202,1.978,0.31,2.966c-0.333,0-0.667,0-1,0
		c-0.028-44.957-0.07-89.912-0.081-134.869c-0.013-53.449-0.015-106.898,0.106-160.347
		C440.147,603.553,438.21,600.494,442.1,600.886z"/>
	<path fill-rule="evenodd" clip-rule="evenodd" fill="#869487" d="M926.153,287.981c1.804-0.91,1.145-2.602,1.145-3.978
		c0.023-93.839,0.015-187.679-0.001-281.519c0-0.828-0.116-1.656-0.178-2.484c0.333,0,0.667,0,1,0
		c0.013,95.591,0.027,191.182,0.009,286.773c-0.001,1.204,0.854,3.021-0.812,3.466C926.248,290.525,926.156,288.974,926.153,287.981
		z"/>
	<path fill-rule="evenodd" clip-rule="evenodd" fill="#869487" d="M946.119,0c-0.009,92.724-0.013,185.447-0.044,278.171
		c-0.001,3.314-0.268,6.628-0.41,9.943c-0.908-6.125-0.383-12.287-0.386-18.426c-0.045-88.399-0.026-176.798-0.03-265.198
		c0-1.497-0.085-2.993-0.13-4.49C945.452,0,945.786,0,946.119,0z"/>
	<path fill-rule="evenodd" clip-rule="evenodd" fill="#D5C8AC" d="M1200.119,861c-5.802,7.715-9.82,16.504-14.83,24.696
		c-2.863,4.683-5.456,9.53-8.17,14.304c-1.667,0-3.333,0-5,0c6.227-12.654,13.927-24.477,20.795-36.769
		c2.307-4.13,4.798-8.157,7.205-12.231C1200.119,854.334,1200.119,857.666,1200.119,861z"/>
	<path fill-rule="evenodd" clip-rule="evenodd" fill="#D5C8AC" d="M22.119,900c-2.631-7.388-7.303-13.678-11.168-20.383
		C7.513,873.652,4.832,867.189,0.119,862c0-3.334,0-6.666,0-10c9.333,16,18.667,32,28,48C26.119,900,24.119,900,22.119,900z"/>
	<path fill-rule="evenodd" clip-rule="evenodd" fill="#869487" d="M597.104,755.891c-1.845,0.836-1.287,2.544-1.288,3.923
		c-0.026,45.907-0.014,91.814,0.009,137.722c0,0.821,0.191,1.643,0.293,2.465c-0.333,0-0.667,0-1,0
		c-0.027-47.072-0.066-94.145-0.001-141.217C595.119,757.787,593.491,754.764,597.104,755.891z"/>
	<path fill-rule="evenodd" clip-rule="evenodd" fill="#194B55" d="M903.173,450.662c-1.473,1.12-2.789,1.903-3.839,2.952
		c-41.494,41.454-82.961,82.937-124.438,124.407c-57.033,57.025-114.094,114.023-171.044,171.131
		c-2.794,2.802-4.169,3.299-7.263,0.199c-98.639-98.848-197.381-197.591-296.183-296.273c-2.527-2.524-2.314-3.756,0.102-6.169
		c98.663-98.578,197.266-197.215,295.781-295.941c2.989-2.995,4.425-3.309,7.618-0.107
		c98.39,98.617,196.899,197.114,295.385,295.635C900.435,447.637,901.499,448.858,903.173,450.662z M598.637,508.549
		c-56.655,0-113.311-0.02-169.966,0.082c-1.969,0.003-5.665-1.61-5.689,1.615c-0.021,2.801,3.559,1.315,5.433,1.316
		c113.311,0.086,226.622,0.089,339.933,0.008c1.816-0.001,5.241,1.574,5.249-1.614c0.007-2.708-3.274-1.321-4.992-1.323
		C711.949,508.547,655.292,508.562,598.637,508.549z M598.1,390.156c56.651,0,113.303,0,169.954,0c1.167,0,2.333,0.011,3.499-0.016
		c0.984-0.023,2.159,0.063,2.228-1.326c0.083-1.671-1.184-1.727-2.404-1.723c-0.999,0.003-1.999,0.01-2.999,0.01
		c-113.304-0.001-226.606-0.003-339.909-0.005c-1.167,0-2.333,0.015-3.499-0.001c-1.049-0.014-2.097,0.041-2.199,1.394
		c-0.136,1.801,1.214,1.638,2.375,1.651c1.166,0.013,2.333,0.002,3.499,0.002C485.13,390.142,541.615,390.142,598.1,390.156z
		 M710.064,417.865c-3.514-0.058-6.973,0.33-10.385,1.19c-13.094,3.301-23.168,14.039-24.769,26.427
		c-1.711,13.239,4.335,24.859,16.687,31.327c10.472,5.484,21.52,6.109,32.32,1.475c12.003-5.151,19.813-14.051,20.274-27.755
		C744.808,432.2,729.695,417.884,710.064,417.865z M569.887,449.2c0,6.326-0.288,12.67,0.104,18.972
		c0.25,4.019-2.405,9.649,1.56,11.694c3.577,1.845,8.798,0.331,13.159-0.999c0.955-0.292,1.91-0.59,2.841-0.945
		c12.406-4.723,20.618-15.684,20.874-27.842c0.269-12.756-6.999-23.531-19.41-28.702c-4.999-2.083-10.252-2.596-15.631-2.748
		c-2.922-0.083-3.614,0.813-3.563,3.603C569.989,431.219,569.884,440.21,569.887,449.2z M491.981,467.057
		c4.692,3.568,8.381,6.361,12.057,9.173c6.262,4.789,6.258,4.794,12.268,3.243c-5.512-4.218-10.984-8.404-16.811-12.863
		c8.34-3.393,14.808-7.988,17.442-16.225c5.808-18.161-10.102-32.812-27.676-31.999c-2.181,0.101-2.307,1.28-2.305,2.926
		c0.019,18.803,0.037,37.607-0.027,56.411c-0.007,2.013,0.745,2.541,2.616,2.568c2.059,0.029,2.527-0.891,2.465-2.728
		C491.904,474.453,491.981,471.336,491.981,467.057z M633.9,438.176c-0.269-5.296-3.959-4.518-6.85-4.166
		c-4.898,0.597-6.694-0.819-6.365-6.086c0.242-3.889,1.131-5.41,5.052-4.868c1.796,0.249,3.655,0.003,5.485,0.037
		c1.493,0.027,2.027-0.671,2.004-2.125c-0.022-1.337-0.253-2.29-1.871-2.257c-4.973,0.102-10.481-1.073-14.709,0.744
		c-2.439,1.048-0.488,7.034-0.8,10.783c-0.041,0.496-0.005,0.998,0.003,1.497c0.018,1.066-0.146,2.021-1.463,2.173
		c-5.189,0.597-1.688,3.783-0.664,4.085c3.075,0.908,2.086,3.061,2.096,4.822c0.064,11.149,0.105,22.301-0.04,33.449
		c-0.038,2.888,0.503,4.285,3.794,4.03c3.805-0.295,7.65-0.093,11.478-0.055c1.36,0.013,2.171-0.303,2.184-1.913
		c0.013-1.601-0.358-2.536-2.185-2.455s-3.684-0.172-5.486,0.055c-3.592,0.451-4.977-0.636-4.785-4.558
		c0.35-7.14,0.1-14.308,0.1-21.464c0-11.394,0-11.393,11.146-11.6C632.521,438.295,633.018,438.237,633.9,438.176z M638.136,449.729
		c-0.104,1.842,0.234,4.467,0.869,7.068c3.104,12.728,17.192,23.64,30.236,23.397c1.277-0.024,2.703,0.385,2.813-1.755
		c0.101-1.949-0.623-2.652-2.533-2.705c-1.647-0.047-3.304-0.377-4.925-0.726c-15.887-3.409-25.373-18.802-20.199-33.556
		c3.992-11.385,12.974-16.795,24.59-18.204c1.812-0.22,3.259-0.227,3.091-2.689c-0.172-2.523-1.888-1.781-3.255-1.75
		C652.295,419.189,638.417,432.81,638.136,449.729z M529.382,451.6c0,7.98-0.088,15.963,0.069,23.941
		c0.034,1.731-1.55,4.614,2.361,4.737c3.947,0.124,2.533-2.749,2.542-4.519c0.089-15.795,0.175-31.592-0.033-47.384
		c-0.052-3.929,0.696-6.021,5.074-5.313c1.574,0.254,2.898,0.052,2.897-2.212c-0.001-2.391-1.549-2.151-3.018-2.157
		c-4.655-0.019-9.312-0.076-13.964,0.052c-1.548,0.043-3.958-1.087-3.996,2.105c-0.038,3.172,2.368,2.332,3.909,2.162
		c3.779-0.416,4.298,1.434,4.219,4.646C529.248,435.636,529.379,443.62,529.382,451.6z"/>
	<path fill-rule="evenodd" clip-rule="evenodd" fill="#194B55" d="M272.248,826.203c0-168.534,0-336.929,0-505.355
		c1.671-0.265,1.734,1.266,2.238,2.137c16.837,29.109,33.581,58.273,50.537,87.313c1.79,3.066,1.483,4.646-0.975,7.031
		c-10.044,9.744-19.714,19.875-29.832,29.54c-2.912,2.782-2.311,4.063,0.162,6.513c19.77,19.581,39.372,39.33,59.132,58.921
		c2.16,2.141,2.669,3.922,1.861,6.93c-27.203,101.305-54.29,202.64-81.42,303.964C273.675,824.228,273.736,825.538,272.248,826.203z
		"/>
	<path fill-rule="evenodd" clip-rule="evenodd" fill="#194B55" d="M926.197,824.888c-8.208-30.899-16.372-61.811-24.633-92.696
		c-18.975-70.946-37.969-141.889-57.087-212.796c-0.857-3.178,0.178-4.862,2.209-6.883c19.729-19.624,39.31-39.399,59.147-58.913
		c3.058-3.007,2.796-4.389-0.128-7.195c-9.977-9.576-19.49-19.635-29.49-29.185c-2.934-2.802-2.729-4.637-0.853-7.862
		c17.071-29.358,33.951-58.829,50.887-88.266c1.877,1.151,1.032,3.013,1.032,4.533c0.049,164.914,0.055,329.827,0.026,494.741
		C927.308,821.902,928.077,823.76,926.197,824.888z"/>
	<path fill-rule="evenodd" clip-rule="evenodd" fill="#194B55" d="M778.248,52.226c6.051,10.467,12.108,20.931,18.152,31.402
		c17.645,30.571,35.271,61.152,52.953,91.702c1.122,1.938,1.766,3.562,1.108,5.997c-14.662,54.342-29.2,108.718-43.771,163.084
		c-0.127,0.471-0.392,0.905-0.756,1.727c-3.01-1.659-4.894-4.4-7.19-6.615c-4.438-4.279-8.338-9.214-13.172-12.96
		c-6.987-5.415-8.538-11.995-8.506-20.571c0.314-83.824,0.183-167.65,0.178-251.476c0-0.637,0.001-1.273,0.001-1.91
		C777.579,52.479,777.913,52.353,778.248,52.226z"/>
	<path fill-rule="evenodd" clip-rule="evenodd" fill="#194B55" d="M422.479,318.076c-8.649,10.143-18.774,18.832-27.742,28.488
		c-1.794-0.471-1.491-1.881-1.763-2.893c-14.43-53.704-28.814-107.42-43.298-161.109c-0.75-2.782-0.584-4.978,0.881-7.506
		c23.215-40.038,46.328-80.135,69.55-120.168c0.458-0.789,0.26-3.298,2.579-1.973c-0.967,2.585-0.509,5.279-0.51,7.916
		c-0.029,83.759-0.023,167.519-0.005,251.278C422.172,314.098,422.372,316.087,422.479,318.076z"/>
	<path fill-rule="evenodd" clip-rule="evenodd" fill="#194B55" d="M277.727,826.605c27.392-102.232,54.784-204.463,82.176-306.694
		c0.482-0.318,0.964-0.637,1.447-0.956c2.446,2.883,4.71,5.944,7.367,8.617c16.561,16.666,33.189,33.266,49.857,49.826
		c1.814,1.801,2.703,2.991,1.096,5.769c-46.703,80.701-93.277,161.478-139.875,242.239c-0.317,0.549-0.697,1.063-1.047,1.593
		C278.406,826.867,278.066,826.736,277.727,826.605z"/>
	<path fill-rule="evenodd" clip-rule="evenodd" fill="#194B55" d="M839.789,519.372c27.657,103.22,55.084,205.58,82.592,308.238
		c-1.573-0.151-1.774-1.196-2.181-1.901c-46.427-80.451-92.814-160.925-139.327-241.326c-1.754-3.031-1.594-4.591,0.904-7.061
		C800.959,558.363,819.962,539.224,839.789,519.372z"/>
	<path fill-rule="evenodd" clip-rule="evenodd" fill="#194B55" d="M758.869,299.678c-18.595-18.607-36.48-36.517-54.39-54.402
		c-1.238-1.237-1.85-2.69-2.288-4.335c-5.232-19.62-10.471-39.239-15.793-58.835c-0.65-2.397-0.521-4.365,0.766-6.59
		c23.495-40.624,46.91-81.294,70.353-121.948c0.229-0.397,0.605-0.709,1.353-1.562C758.869,134.603,758.869,216.646,758.869,299.678
		z"/>
	<path fill-rule="evenodd" clip-rule="evenodd" fill="#194B55" d="M442.045,53.017c21.52,37.357,42.722,74.902,64.778,111.94
		c5.606,9.414,7.448,17.559,3.823,28.199c-5.195,15.249-8.615,31.105-12.69,46.729c-0.825,3.163-2.292,5.696-4.637,8.025
		c-17.136,17.024-34.159,34.162-51.217,51.263c-2.226-1.382-1.245-3.618-1.247-5.432c-0.067-78.597-0.071-157.193-0.021-235.789
		C440.835,56.3,439.902,54.222,442.045,53.017z"/>
	<path fill-rule="evenodd" clip-rule="evenodd" fill="#194B55" d="M345.599,184.833c14.467,53.925,28.707,107.296,43.23,160.59
		c1.2,4.405,0.414,6.962-2.798,9.841c-4.828,4.328-9.297,9.066-13.784,13.758c-1.72,1.799-2.574,2.477-4.172-0.306
		c-20.972-36.498-42.054-72.933-63.166-109.35c-1.021-1.762-1.274-3.044-0.164-4.955c13.204-22.73,26.297-45.524,39.438-68.292
		C344.399,185.748,344.845,185.507,345.599,184.833z"/>
	<path fill-rule="evenodd" clip-rule="evenodd" fill="#194B55" d="M854.69,184.562c7.91,13.66,15.482,26.717,23.035,39.785
		c5.577,9.648,11.056,19.354,16.745,28.937c1.414,2.382,1.676,4.11,0.161,6.711c-20.754,35.65-41.408,71.359-61.912,107.153
		c-2.063,3.601-3.19,3.532-5.82,0.679c-4.734-5.137-9.797-9.977-14.809-14.851c-1.562-1.519-2.271-2.9-1.643-5.224
		c14.526-53.799,28.972-107.621,43.438-161.437C853.971,186.002,854.157,185.715,854.69,184.562z"/>
	<path fill-rule="evenodd" clip-rule="evenodd" fill="#194B55" d="M330.433,410.785c-6.807-11.773-13.379-23.137-19.948-34.503
		c-11.995-20.757-23.943-41.541-36.038-62.24c-1.515-2.593-1.616-4.503-0.048-7.16c8.792-14.903,17.369-29.934,26.358-45.507
		c2.257,3.831,4.282,7.211,6.253,10.623c19.069,33.013,38.074,66.064,57.285,98.994c1.802,3.089,1.492,4.625-0.973,7.024
		C352.351,388.688,341.613,399.601,330.433,410.785z"/>
	<path fill-rule="evenodd" clip-rule="evenodd" fill="#194B55" d="M899.044,261.282c9.346,16.228,18.252,31.771,27.275,47.246
		c0.942,1.615,0.601,2.67-0.202,4.058c-18.325,31.684-36.636,63.377-54.883,95.107c-1.19,2.07-1.84,2.637-3.804,0.639
		c-10.505-10.688-21.116-21.271-31.79-31.792c-1.634-1.611-1.657-2.764-0.551-4.672C856.286,335.313,877.412,298.72,899.044,261.282
		z"/>
	<path fill-rule="evenodd" clip-rule="evenodd" fill="#194B55" d="M583.438,825.688c-37.015-64.113-74.029-128.227-111.078-192.4
		c2.109-0.908,2.934,0.979,3.986,2.027c25.583,25.525,51.124,51.092,76.701,76.623c1.34,1.338,2.287,2.785,2.776,4.618
		c9.474,35.538,18.971,71.069,28.457,106.604c0.128,0.479,0.171,0.983,0.253,1.475C584.167,824.984,583.802,825.336,583.438,825.688
		z"/>
	<path fill-rule="evenodd" clip-rule="evenodd" fill="#194B55" d="M725.981,635.576c-25.854,44.865-51.706,89.732-77.562,134.598
		c-10.725,18.609-21.454,37.217-32.193,55.818c-0.467,0.811-1.053,1.552-2.142,2.098c3.73-13.943,7.459-27.887,11.192-41.829
		c5.988-22.359,11.967-44.722,17.988-67.072c0.597-2.212,1.092-4.405,2.907-6.208c26.249-26.061,52.429-52.19,78.625-78.305
		C725.192,634.977,725.586,635.275,725.981,635.576z"/>
	<path fill-rule="evenodd" clip-rule="evenodd" fill="#194B55" d="M562.981,721.818c8.782,8.822,17.552,17.655,26.358,26.453
		c1.129,1.127,1.671,2.313,1.668,3.951c-0.042,24.6-0.029,49.199-0.978,74.021c-9.299-34.644-18.597-69.287-27.896-103.932
		C562.417,722.148,562.699,721.982,562.981,721.818z"/>
	<path fill-rule="evenodd" clip-rule="evenodd" fill="#194B55" d="M608.935,826.1c0-14.805,0-29.608,0-44.412
		c0-9.327-0.012-18.654,0.011-27.981c0.003-1.46-0.376-3.019,0.862-4.254c8.928-8.906,17.849-17.819,27.642-26.29
		c-9.183,34.273-18.365,68.547-27.548,102.82C609.58,826.021,609.257,826.061,608.935,826.1z"/>
	<path fill-rule="evenodd" clip-rule="evenodd" fill="#194B55" d="M503.205,237.807c4.921-18.389,9.498-35.493,14.356-53.647
		c4.847,8.333,9.197,15.903,13.662,23.405c0.83,1.395,0.216,2.083-0.652,2.947C521.764,219.28,512.971,228.061,503.205,237.807z"/>
	<path fill-rule="evenodd" clip-rule="evenodd" fill="#194B55" d="M682.252,184.066c4.83,18.04,9.325,34.828,13.82,51.616
		c-0.333,0.28-0.667,0.56-1.001,0.839c-5.677-5.894-11.353-11.789-17.03-17.681c-3.224-3.345-8.547-6.386-9.081-10.114
		c-0.522-3.653,3.795-8.023,6.049-12.044C677.189,192.792,679.447,188.945,682.252,184.066z"/>
	<path fill-rule="evenodd" clip-rule="evenodd" fill="#869487" d="M926.197,824.888c1.88-1.128,1.111-2.985,1.111-4.521
		c0.028-164.914,0.022-329.827-0.026-494.741c0-1.52,0.845-3.382-1.032-4.533c0.521-0.813,1.32-1.385,1.692-0.134
		c0.365,1.231,0.185,2.635,0.185,3.963c0.005,164.511,0.003,329.021,0.006,493.532c0,2.331,0.089,4.662,0.043,6.992
		c-0.013,0.672,0.288,1.951-1.077,1.574C926.219,826.776,926.186,825.74,926.197,824.888z"/>
	<path fill-rule="evenodd" clip-rule="evenodd" fill="#869487" d="M422.479,318.076c-0.107-1.989-0.307-3.978-0.308-5.966
		c-0.018-83.759-0.024-167.519,0.005-251.278c0.001-2.637-0.457-5.331,0.51-7.916c0.102,3.154,0.292,6.309,0.293,9.463
		c0.018,83.096,0.021,166.193-0.001,249.289C422.979,313.805,423.404,316,422.479,318.076z"/>
	<path fill-rule="evenodd" clip-rule="evenodd" fill="#869487" d="M442.045,53.017c-2.144,1.205-1.21,3.283-1.211,4.935
		c-0.051,78.596-0.046,157.192,0.021,235.789c0.001,1.814-0.979,4.05,1.247,5.432c-0.627,0.788-1.511,1.098-1.823-0.009
		c-0.35-1.244-0.226-2.634-0.227-3.961c-0.01-79.532-0.013-159.064-0.007-238.596c0-1.325-0.183-2.767,0.271-3.942
		C440.742,51.557,441.588,52.189,442.045,53.017z"/>
	<path fill-rule="evenodd" clip-rule="evenodd" fill="#869487" d="M422.465,597.084c-0.396-2.4-0.545-4.799,0.115-7.183
		C423.16,592.306,423.378,594.704,422.465,597.084z"/>
	<path fill-rule="evenodd" clip-rule="evenodd" fill="#194B55" d="M584.532,824.634c0.472,0.96,1.303,1.886,0.278,2.985
		c-0.458-0.645-0.915-1.289-1.372-1.932C583.802,825.336,584.167,824.984,584.532,824.634z"/>
	<path fill-rule="evenodd" clip-rule="evenodd" fill="#194B55" d="M724.797,634.676c0.52-0.725,1.158-1.985,2.007-1.314
		c0.905,0.715-0.438,1.48-0.823,2.215C725.586,635.275,725.192,634.977,724.797,634.676z"/>
	<path fill-rule="evenodd" clip-rule="evenodd" fill="#194B55" d="M945.616,320.881c2.24-0.432,2.159,1.701,2.773,2.763
		c29.776,51.43,59.453,102.917,89.291,154.312c1.616,2.782,0.992,5.004,0.312,7.546c-28.742,107.26-57.484,214.519-86.227,321.778
		c-1.465,5.468-2.905,10.942-4.432,16.393c-0.263,0.939,0.188,2.581-1.731,2.383c0.854-2.77,0.457-5.621,0.458-8.431
		c0.03-160.085,0.034-320.171,0.023-480.256c0-4.489-0.194-8.977-0.298-13.465c-0.014-0.594-0.028-1.188-0.042-1.783
		C945.701,321.707,945.659,321.294,945.616,320.881z"/>
	<path fill-rule="evenodd" clip-rule="evenodd" fill="#194B55" d="M1095.949,51.157c0,133.987,0,266.527,0,399.111
		c-1.465-0.439-1.373-1.778-1.65-2.811c-23.535-87.809-47.021-175.63-70.658-263.411c-1.085-4.032-0.639-7.075,1.444-10.655
		c23.022-39.568,45.869-79.239,68.768-118.879C1094.263,53.799,1094.723,53.114,1095.949,51.157z"/>
	<path fill-rule="evenodd" clip-rule="evenodd" fill="#194B55" d="M951.04,827.682c30.381-113.386,60.762-226.771,91.404-341.135
		c4.831,8.318,9.17,15.759,13.482,23.215c12.584,21.752,25.101,43.545,37.806,65.227c1.658,2.83,1.576,4.797-0.059,7.623
		c-46.929,81.1-93.749,162.262-140.599,243.408c-0.396,0.685-0.958,1.272-1.443,1.906
		C951.434,827.844,951.237,827.763,951.04,827.682z"/>
	<path fill-rule="evenodd" clip-rule="evenodd" fill="#194B55" d="M974.502,261.293c13.468,23.329,26.526,45.949,39.587,68.569
		c26.549,45.984,53.08,91.979,79.691,137.928c1.647,2.845,2.394,5.645,2.384,8.935c-0.091,30.482-0.054,60.965-0.054,91.494
		c-1.982,0.182-1.998-1.571-2.565-2.551c-48.405-83.72-96.759-167.469-145.195-251.17c-1.66-2.868-1.928-4.991-0.129-8.009
		C956.988,291.779,965.467,276.898,974.502,261.293z"/>
	<path fill-rule="evenodd" clip-rule="evenodd" fill="#194B55" d="M1019.111,184.078c23.97,89.533,47.628,177.9,71.327,266.42
		c-2.087,0.104-2.169-1.33-2.667-2.192c-36.161-62.55-72.278-125.126-108.485-187.65c-1.57-2.711-1.904-4.639-0.177-7.577
		C992.347,230.562,1005.343,207.9,1019.111,184.078z"/>
	<path fill-rule="evenodd" clip-rule="evenodd" fill="#869487" d="M945.786,323.902c0.104,4.488,0.298,8.977,0.298,13.465
		c0.011,160.085,0.007,320.171-0.023,480.256c-0.001,2.81,0.396,5.661-0.458,8.431c-0.113-7.146-0.322-14.291-0.324-21.437
		c-0.026-157.268-0.034-314.536-0.007-471.803C945.271,329.848,944.743,326.82,945.786,323.902z"/>
	<path fill-rule="evenodd" clip-rule="evenodd" fill="#869487" d="M945.616,320.881c0.043,0.413,0.085,0.826,0.128,1.239
		c-0.122-0.277-0.277-0.546-0.348-0.835C945.369,321.174,945.537,321.017,945.616,320.881z"/>
	<path fill-rule="evenodd" clip-rule="evenodd" fill="#194B55" d="M253.905,319.698c0,169.498,0,337.879,0,506.339
		c-1.576-0.479-1.383-1.995-1.68-3.102c-30.146-112.427-60.253-224.863-90.434-337.281c-0.818-3.045-0.978-5.535,0.722-8.465
		c29.837-51.409,59.557-102.887,89.309-154.346C252.281,322.05,252.833,321.311,253.905,319.698z"/>
	<path fill-rule="evenodd" clip-rule="evenodd" fill="#194B55" d="M103.495,52.946c2.692-1.459,2.302,1.431,2.812,2.308
		c16.647,28.641,33.176,57.35,49.723,86.05c6.403,11.105,12.738,22.25,19.257,33.288c1.538,2.604,1.997,4.86,1.174,7.921
		c-23.631,87.948-47.134,175.929-70.753,263.88c-0.335,1.247,0.501,3.69-2.234,3.641c1.054-2.741,0.555-5.604,0.556-8.402
		c0.033-127.59,0.032-255.18,0.019-382.77C104.047,56.881,104.358,54.853,103.495,52.946z"/>
	<path fill-rule="evenodd" clip-rule="evenodd" fill="#194B55" d="M157.495,486.93c30.522,113.918,60.783,226.861,91.134,340.142
		c-2.13-0.552-2.338-2.018-2.953-3.081c-46.625-80.705-93.219-161.427-139.875-242.113c-1.187-2.053-1.618-3.527-0.285-5.815
		c16.841-28.905,33.551-57.888,50.304-86.845C156.127,488.686,156.545,488.218,157.495,486.93z"/>
	<path fill-rule="evenodd" clip-rule="evenodd" fill="#194B55" d="M103.879,471.938c24.091-41.816,48.178-83.634,72.274-125.447
		c15.457-26.821,30.924-53.635,46.4-80.444c0.812-1.406,1.746-2.741,2.903-4.547c9.211,15.978,18.105,31.534,27.164,46.995
		c1.533,2.616-0.256,4.09-1.248,5.813c-25.919,44.994-51.885,89.961-77.842,134.934c-22.378,38.772-44.742,77.552-67.204,116.275
		c-0.559,0.962-0.156,3.632-2.79,2.547c0.164-0.806,0.471-1.61,0.471-2.416C103.982,534.411,103.929,503.175,103.879,471.938z"/>
	<path fill-rule="evenodd" clip-rule="evenodd" fill="#194B55" d="M108.607,453.382c24.209-90.394,48.001-179.232,71.794-268.074
		c1.938,0.167,2.042,1.789,2.648,2.835c12.597,21.74,25.122,43.522,37.749,65.245c1.271,2.186,1.75,3.805,0.308,6.295
		c-36.936,63.791-73.762,127.645-110.618,191.48C110.25,451.578,109.867,451.908,108.607,453.382z"/>
	<path fill-rule="evenodd" clip-rule="evenodd" fill="#869487" d="M103.495,52.946c0.863,1.907,0.553,3.935,0.553,5.915
		c0.013,127.59,0.014,255.18-0.019,382.77c-0.001,2.799,0.498,5.661-0.556,8.402c-0.085-1.489-0.244-2.978-0.244-4.466
		c-0.013-129.218-0.015-258.436-0.004-387.654C103.226,56.257,103.401,54.602,103.495,52.946z"/>
	<path fill-rule="evenodd" clip-rule="evenodd" fill="#869487" d="M103.879,471.938c0.05,31.236,0.103,62.473,0.128,93.709
		c0,0.806-0.307,1.61-0.471,2.416c-0.107-7.474-0.294-14.947-0.307-22.421c-0.041-22.618-0.027-45.236,0.01-67.854
		C103.242,475.834,102.752,473.785,103.879,471.938z"/>
	<path fill-rule="evenodd" clip-rule="evenodd" fill="#869487" d="M104.595,451.727c-0.239,0.169-0.482,0.34-0.724,0.512
		c-0.112-0.376-0.258-0.748-0.297-1.132c-0.006-0.058,0.49-0.166,0.753-0.251C104.414,451.141,104.502,451.425,104.595,451.727z"/>
	<path fill-rule="evenodd" clip-rule="evenodd" fill="#194B55" d="M1114.185,450.43c0-132.83,0-265.294,0-397.802
		c2.017-0.27,2.03,1.533,2.589,2.499c23.102,39.917,46.127,79.879,69.263,119.776c1.448,2.497,1.797,4.636,1.045,7.437
		c-23.756,88.449-47.43,176.921-71.134,265.384C1115.707,448.623,1115.73,449.733,1114.185,450.43z"/>
	<path fill-rule="evenodd" clip-rule="evenodd" fill="#194B55" d="M84.146,448.995c-8.128-30.549-16.224-61.106-24.393-91.645
		c-15.61-58.352-31.236-116.7-46.973-175.018c-0.772-2.861-0.388-4.963,1.047-7.445c23.487-40.613,46.883-81.278,70.3-121.931
		c2.1,1.248,1.13,3.306,1.131,4.959c0.061,128.867,0.066,257.733,0.038,386.601C85.297,446.043,86.086,447.91,84.146,448.995z"/>
	<path fill-rule="evenodd" clip-rule="evenodd" fill="#869487" d="M84.146,448.995c1.94-1.084,1.15-2.952,1.151-4.479
		c0.028-128.867,0.022-257.734-0.038-386.601c-0.001-1.654,0.969-3.712-1.131-4.959c0.41-0.939,1.088-2.191,1.806-0.537
		c0.55,1.269,0.182,2.947,0.182,4.442c0.008,130.149,0.012,260.299,0.019,390.448c0,0.833,0.089,1.672,0.01,2.497
		c-0.069,0.719,0.067,1.927-1.246,1.388C84.038,450.842,84.118,449.832,84.146,448.995z"/>
	<path fill-rule="evenodd" clip-rule="evenodd" fill="#869487" d="M85.722,563.236c-0.119-0.482-0.342-0.965-0.342-1.446
		c0.026-29.97,0.07-59.938,0.113-89.907c0.208,1.117,0.597,2.234,0.598,3.354c0.031,28.352,0.024,56.703,0.001,85.056
		C86.091,561.273,85.851,562.254,85.722,563.236z"/>
	<path fill-rule="evenodd" clip-rule="evenodd" fill="#869487" d="M85.788,568.877c-0.496-1.357-0.594-2.723-0.077-4.099
		C86.121,566.137,86.473,567.497,85.788,568.877z"/>
	<path fill-rule="evenodd" clip-rule="evenodd" fill="#D5C8AC" d="M598.637,508.555c56.655,0.007,113.312-0.008,169.967,0.078
		c1.718,0.002,4.999-1.385,4.992,1.323c-0.008,3.188-3.433,1.613-5.249,1.614c-113.311,0.081-226.622,0.078-339.933-0.008
		c-1.874-0.001-5.454,1.484-5.433-1.316c0.024-3.226,3.72-1.612,5.689-1.615C485.326,508.529,541.982,508.549,598.637,508.555z"/>
	<path fill-rule="evenodd" clip-rule="evenodd" fill="#D5C8AC" d="M598.1,390.149c-56.485-0.007-112.97-0.007-169.455-0.007
		c-1.167,0-2.333,0.01-3.499-0.002c-1.161-0.013-2.512,0.15-2.375-1.651c0.102-1.353,1.149-1.408,2.199-1.394
		c1.166,0.016,2.333,0.001,3.499,0.001c113.303,0.002,226.605,0.004,339.909,0.005c1,0,2-0.007,2.999-0.01
		c1.221-0.004,2.487,0.051,2.404,1.723c-0.068,1.389-1.243,1.303-2.228,1.326c-1.166,0.026-2.332,0.016-3.499,0.016
		C711.403,390.156,654.751,390.156,598.1,390.149z"/>
	<path fill-rule="evenodd" clip-rule="evenodd" fill="#D5C8AC" d="M710.063,417.862c19.632,0.021,34.745,14.337,34.129,32.666
		c-0.461,13.704-8.271,22.604-20.274,27.755c-10.801,4.635-21.849,4.01-32.32-1.475c-12.352-6.468-18.397-18.088-16.687-31.327
		c1.601-12.389,11.675-23.126,24.769-26.427C703.091,418.194,706.55,417.807,710.063,417.862z M739.214,449.668
		c-0.016-8.741-3.557-15.736-10.488-21.021c-11.648-8.881-29.188-8.524-39.738,0.784c-8.93,7.877-11.877,19.381-7.639,29.811
		c4.354,10.714,16.365,17.958,28.93,17.448C726.749,476.021,739.266,464.329,739.214,449.668z"/>
	<path fill-rule="evenodd" clip-rule="evenodd" fill="#D5C8AC" d="M569.886,449.2c-0.001-8.99,0.104-17.981-0.064-26.968
		c-0.052-2.789,0.64-3.686,3.563-3.603c5.379,0.152,10.633,0.666,15.631,2.748c12.411,5.171,19.678,15.946,19.41,28.702
		c-0.256,12.158-8.468,23.119-20.874,27.842c-0.932,0.355-1.887,0.653-2.841,0.945c-4.36,1.33-9.582,2.844-13.159,0.999
		c-3.965-2.045-1.31-7.676-1.56-11.694C569.599,461.87,569.887,455.526,569.886,449.2z M574.931,449.09
		c0,7.651,0.04,15.303-0.024,22.954c-0.019,2.254,0.067,3.656,3.154,3.466c13.778-0.848,25.257-12.523,25.3-26.054
		c0.042-13.475-11.355-25.457-24.995-26.441c-2.528-0.183-3.557,0.358-3.5,3.123C575.026,433.785,574.921,441.438,574.931,449.09z"
		/>
	<path fill-rule="evenodd" clip-rule="evenodd" fill="#D5C8AC" d="M491.981,467.057c0,4.279-0.077,7.396,0.029,10.507
		c0.062,1.837-0.407,2.757-2.465,2.728c-1.871-0.027-2.623-0.556-2.616-2.568c0.064-18.804,0.046-37.607,0.027-56.411
		c-0.001-1.646,0.124-2.825,2.305-2.926c17.574-0.813,33.484,13.838,27.676,31.999c-2.634,8.236-9.102,12.832-17.442,16.225
		c5.827,4.459,11.299,8.646,16.811,12.863c-6.01,1.551-6.006,1.546-12.268-3.243C500.362,473.418,496.673,470.625,491.981,467.057z
		 M491.977,442.709c0,5.825,0.089,11.652-0.042,17.473c-0.056,2.491,0.742,3.098,3.192,2.714c10.11-1.583,18.008-10.12,17.97-19.658
		c-0.04-9.885-8.011-18.53-18.237-20c-2.262-0.326-2.95,0.265-2.91,2.497C492.053,431.392,491.984,437.051,491.977,442.709z"/>
	<path fill-rule="evenodd" clip-rule="evenodd" fill="#D5C8AC" d="M477.266,452.641c0,8,0,15.998,0,23.998
		c0,1.809,0.409,3.686-2.574,3.641c-3.059-0.046-2.437-2.077-2.44-3.79c-0.024-11.331-0.315-22.676,0.128-33.99
		c0.212-5.411-2.968-4.308-5.982-4.402c-3.059-0.095-5.745-0.646-5.565,4.306c0.41,11.318,0.163,22.66,0.106,33.992
		c-0.008,1.592,0.943,3.783-2.244,3.907c-3.338,0.131-2.749-2.023-2.75-3.951c-0.006-11.332,0.009-22.663-0.011-33.996
		c-0.003-1.875,0.629-3.917-2.303-4.7c-0.733-0.196-4.22-3.285,0.767-4.021c3.013-0.445,1.423-3.322,1.59-5.01
		c0.726-7.352,3.467-10.506,9.869-10.751c7.106-0.271,11.098,3.143,11.306,10.274c0.238,8.159,0.055,16.329,0.055,24.494
		C477.233,452.641,477.25,452.641,477.266,452.641z M466.312,433.733c3.137-0.021,6.468,1.066,6.027-4.08
		c-0.329-3.837-0.734-7.147-5.421-7.408c-3.894-0.216-5.607,2.516-6.043,7.443C460.413,434.905,463.847,433.629,466.312,433.733z"/>
	<path fill-rule="evenodd" clip-rule="evenodd" fill="#D5C8AC" d="M633.9,438.176c-0.882,0.062-1.379,0.119-1.877,0.128
		c-11.146,0.207-11.146,0.206-11.146,11.6c0,7.156,0.25,14.324-0.1,21.464c-0.191,3.922,1.193,5.009,4.785,4.558
		c1.803-0.227,3.66,0.026,5.486-0.055s2.197,0.854,2.185,2.455c-0.013,1.61-0.823,1.926-2.184,1.913
		c-3.827-0.038-7.673-0.24-11.478,0.055c-3.291,0.255-3.832-1.143-3.794-4.03c0.146-11.147,0.104-22.3,0.04-33.449
		c-0.01-1.761,0.979-3.914-2.096-4.822c-1.023-0.302-4.525-3.488,0.664-4.085c1.316-0.151,1.48-1.106,1.463-2.173
		c-0.008-0.499-0.044-1.001-0.003-1.497c0.312-3.749-1.64-9.735,0.8-10.783c4.228-1.817,9.736-0.642,14.709-0.744
		c1.618-0.033,1.849,0.919,1.871,2.257c0.023,1.455-0.511,2.153-2.004,2.125c-1.83-0.034-3.689,0.211-5.485-0.037
		c-3.921-0.542-4.81,0.979-5.052,4.868c-0.329,5.268,1.467,6.684,6.365,6.086C629.941,433.658,633.631,432.88,633.9,438.176z"/>
	<path fill-rule="evenodd" clip-rule="evenodd" fill="#D5C8AC" d="M638.136,449.729c0.281-16.919,14.159-30.539,30.688-30.918
		c1.367-0.031,3.083-0.773,3.255,1.75c0.168,2.462-1.279,2.469-3.091,2.689c-11.616,1.408-20.598,6.819-24.59,18.204
		c-5.174,14.754,4.313,30.146,20.199,33.556c1.621,0.349,3.277,0.679,4.925,0.726c1.91,0.053,2.634,0.756,2.533,2.705
		c-0.11,2.14-1.536,1.73-2.813,1.755c-13.044,0.242-27.133-10.67-30.236-23.397C638.371,454.195,638.033,451.57,638.136,449.729z"/>
	<path fill-rule="evenodd" clip-rule="evenodd" fill="#D5C8AC" d="M529.381,451.6c-0.001-7.98-0.133-15.964,0.063-23.94
		c0.079-3.213-0.44-5.063-4.219-4.646c-1.541,0.169-3.947,1.01-3.909-2.162c0.039-3.193,2.448-2.063,3.996-2.105
		c4.652-0.128,9.309-0.071,13.964-0.052c1.469,0.006,3.017-0.234,3.018,2.157c0.001,2.264-1.324,2.466-2.897,2.212
		c-4.377-0.708-5.126,1.384-5.074,5.313c0.208,15.792,0.122,31.589,0.033,47.384c-0.01,1.77,1.404,4.643-2.542,4.519
		c-3.911-0.123-2.327-3.006-2.361-4.737C529.294,467.563,529.382,459.58,529.381,451.6z"/>
	<path fill-rule="evenodd" clip-rule="evenodd" fill="#194B55" d="M739.214,449.668c0.052,14.661-12.466,26.353-28.936,27.021
		c-12.564,0.51-24.576-6.734-28.93-17.448c-4.238-10.429-1.291-21.933,7.639-29.811c10.55-9.308,28.09-9.665,39.738-0.784
		C735.658,433.932,739.199,440.927,739.214,449.668z"/>
	<path fill-rule="evenodd" clip-rule="evenodd" fill="#194B55" d="M574.926,449.09c-0.005-7.651,0.1-15.305-0.06-22.953
		c-0.058-2.765,0.971-3.306,3.5-3.123c13.64,0.985,25.037,12.966,24.995,26.441c-0.043,13.531-11.522,25.207-25.3,26.054
		c-3.087,0.19-3.173-1.212-3.154-3.466C574.971,464.393,574.931,456.741,574.926,449.09z"/>
	<path fill-rule="evenodd" clip-rule="evenodd" fill="#194B55" d="M491.98,442.709c0.003-5.658,0.072-11.318-0.03-16.974
		c-0.041-2.232,0.647-2.822,2.91-2.497c10.227,1.47,18.198,10.115,18.237,20c0.038,9.538-7.86,18.075-17.97,19.658
		c-2.451,0.384-3.249-0.223-3.192-2.714C492.066,454.361,491.977,448.534,491.98,442.709z"/>
	<path fill-rule="evenodd" clip-rule="evenodd" fill="#194B55" d="M571.694,332.896c-0.074,5.234-4.475,9.423-9.706,9.238
		c-5.021-0.178-9.009-4.392-8.954-9.461c0.056-5.241,4.492-9.502,9.666-9.285C567.675,323.596,571.765,327.919,571.694,332.896z"/>
	<path fill-rule="evenodd" clip-rule="evenodd" fill="#194B55" d="M647.462,327.208c-0.229-1.986-0.068-3.583,2.729-3.399
		c2.647,0.174,4.74,0.908,4.645,3.945c-0.09,2.845-2.252,3.194-4.605,3.402C646.865,331.454,647.447,329.217,647.462,327.208z"/>
</g>
</svg>