<?xml version="1.0" encoding="utf-8"?>
<!-- Generator: Adobe Illustrator 16.0.3, SVG Export Plug-In . SVG Version: 6.00 Build 0)  -->
<!DOCTYPE svg PUBLIC "-//W3C//DTD SVG 1.1//EN" "http://www.w3.org/Graphics/SVG/1.1/DTD/svg11.dtd">
<svg version="1.1" id="Layer_1" xmlns="http://www.w3.org/2000/svg" xmlns:xlink="http://www.w3.org/1999/xlink" x="0px" y="0px"
	 width="292.519px" height="217.1px" viewBox="0 0 292.519 217.1" enable-background="new 0 0 292.519 217.1" xml:space="preserve">
<path fill-rule="evenodd" clip-rule="evenodd" fill="#1A4B55" d="M0,0c97.745,0,195.434,0,292.519,0
	c-48.763,48.751-97.687,97.663-146.362,146.327C97.949,98.064,49.135,49.192,0,0z M148.628,63.646
	c7.239,7.324,14.085,14.25,19.723,19.952c23.447-23.364,47.221-47.051,70.606-70.354c-11.832,0-24.63-0.044-37.427,0.067
	c-1.323,0.011-2.984,0.601-3.904,1.511C181.087,31.196,164.637,47.66,148.628,63.646z M52.833,13.246
	c24.019,24.011,47.768,47.753,70.922,70.899c6.578-6.443,13.541-13.263,20.742-20.315C128.149,47.502,111.67,31.021,95.131,14.6
	c-0.737-0.732-2.02-1.29-3.052-1.297C78.963,13.216,65.846,13.246,52.833,13.246z M121.223,88.255
	c-1.529-1.192-2.957-2.084-4.119-3.242C95.065,63.059,72.784,41.338,51.229,18.918c-5.768-5.998-11.612-6.027-17.952-5.458
	c26.994,27.041,54.052,54.143,81.285,81.423C116.333,93.12,118.438,91.026,121.223,88.255z M259.746,13.657
	c-7.741-1.768-13.697,0.385-19.598,6.51c-21.269,22.078-43.199,43.517-64.869,65.208c-1.028,1.029-1.953,2.161-3.034,3.366
	c2.34,2.267,4.451,4.312,6.349,6.15C205.678,67.78,232.714,40.717,259.746,13.657z M115.229,13.426
	c10.617,10.745,21.165,21.418,30.599,30.964c10.425-10.256,21.08-20.74,31.474-30.964C156.924,13.426,135.906,13.426,115.229,13.426
	z M127.48,88.479c6.322,6.373,12.722,12.823,18.517,18.665c6.332-6.22,12.788-12.561,18.59-18.26
	c-6.13-6.117-12.524-12.499-18.762-18.722C139.896,76.082,133.552,82.417,127.48,88.479z M145.905,127.228
	c9.771-9.637,19.561-19.292,29.325-28.924c-1.871-2.046-3.859-4.22-6.19-6.769c-7.605,7.887-14.866,15.417-22.657,23.496
	c-7.861-8.072-15.133-15.537-22.052-22.641c-2.578,2.277-4.868,4.3-6.83,6.034C127.263,108.323,136.821,118.017,145.905,127.228z"/>
<path fill-rule="evenodd" clip-rule="evenodd" fill="#1A4B55" d="M271.248,50.924c-41.837,41.841-83.693,83.701-125.17,125.181
	c-41.376-41.35-83.171-83.119-125.195-125.116c7.231-0.488,13.538-1.134,19.773,5.243c33.417,34.179,67.414,67.789,101.194,101.613
	c1.406,1.408,2.647,2.982,4.535,5.125c10.589-10.756,20.678-21.113,30.886-31.352c24.813-24.888,49.951-49.458,74.337-74.755
	C257.794,50.447,264.103,50.131,271.248,50.924z"/>
<path fill-rule="evenodd" clip-rule="evenodd" fill="#1A4B55" d="M145.829,217.1c-15.805-15.833-32.01-32.068-47.986-48.075
	c4.042-3.98,8.484-8.355,13.261-13.061c10.862,11.104,22.348,22.844,33.797,34.549c12.18-12.332,23.718-24.017,35.28-35.726
	c5.139,5.307,9.57,9.884,13.766,14.216C178.023,184.918,161.81,201.126,145.829,217.1z"/>
</svg>
