<?xml version="1.0" encoding="utf-8"?>
<!-- Generator: Adobe Illustrator 16.0.3, SVG Export Plug-In . SVG Version: 6.00 Build 0)  -->
<!DOCTYPE svg PUBLIC "-//W3C//DTD SVG 1.1//EN" "http://www.w3.org/Graphics/SVG/1.1/DTD/svg11.dtd">
<svg version="1.1" id="Layer_1" xmlns="http://www.w3.org/2000/svg" xmlns:xlink="http://www.w3.org/1999/xlink" x="0px" y="0px"
	 width="292.519px" height="217.1px" viewBox="0 0 292.519 217.1" enable-background="new 0 0 292.519 217.1" xml:space="preserve">
<path fill-rule="evenodd" clip-rule="evenodd" fill="#1A4B55" d="M181.695,219.077c-6.584,0.361-13.063,1.032-19.54,1.008
	c-15.396-0.058-30.788-0.517-46.184-0.634c-3.186-0.024-4.818-0.99-5.011-4.279c-0.1-1.71-0.632-3.396-0.955-5.02
	c-0.26-0.184-0.456-0.436-0.605-0.411c-4.693,0.777-5.937-1.969-7.156-5.923c-13.395-43.439-26.998-86.816-40.54-130.209
	c-0.222-0.713-0.396-1.44-0.74-2.708c6.678,0,13.107,0,20.231,0c-1.432-7.226-2.741-13.835-4.119-20.791
	c6.629-1.323,13.289-2.666,19.956-3.978c4.673-0.92,9.382-1.68,14.013-2.777c1.209-0.286,2.412-1.384,3.231-2.416
	c10.186-12.821,20.299-25.7,30.438-38.559c0.661-0.838,1.37-1.638,2.15-2.568c10.733,13.648,21.263,27.146,31.971,40.502
	c1.213,1.514,3.302,2.797,5.198,3.211c9.838,2.149,19.746,3.972,29.624,5.937c0.929,0.184,1.819,0.561,2.851,0.887
	c-1.363,6.697-2.693,13.234-4.133,20.308c6.628,0,12.87,0,19.575,0c-1.876,6.133-3.548,11.707-5.285,17.261
	c-12.304,39.353-24.636,78.694-36.898,118.06c-0.739,2.372-1.415,4.212-4.503,3.698c-0.557-0.093-1.724,1.089-1.953,1.875
	C182.619,213.917,182.248,216.378,181.695,219.077z M80.161,51.988c0.124,1.207,0.136,1.965,0.286,2.696
	c7.34,35.632,14.686,71.265,22.047,106.893c3.637,17.602,7.285,35.2,11.014,52.781c0.194,0.917,1.125,2.294,1.836,2.376
	c2.539,0.289,5.131,0.113,7.473,0.113c2.912-4.488,1.741-9.28,1.363-13.973c-1.151-14.271-2.41-28.533-3.582-42.805
	c-1.225-14.922-2.382-29.849-3.596-44.771c-1.187-14.596-2.406-29.188-3.615-43.782c-0.697-8.412-1.402-16.822-2.137-25.639
	C100.772,47.937,90.608,49.935,80.161,51.988z M182.547,45.918c-0.228,1.25-0.45,2.077-0.521,2.918
	c-0.899,10.808-1.793,21.617-2.659,32.428c-1.584,19.79-3.104,39.584-4.734,59.37c-1.852,22.485-3.853,44.959-5.628,67.451
	c-0.235,2.982,0.483,6.039,0.767,9.14c3.834-0.208,6.834-0.369,9.919-0.535c11.333-54.915,22.618-109.605,33.977-164.647
	C203.187,49.98,192.943,47.964,182.547,45.918z M146.558,3.562c-0.386,0.77-0.522,1.208-0.788,1.545
	c-9.918,12.607-19.878,25.184-29.72,37.85c-0.733,0.944-1.019,2.58-0.861,3.809c0.594,4.612,1.454,9.191,2.223,13.78
	c1.151,6.868,2.31,13.735,3.582,21.291c8.88-11.408,17.3-22.224,25.806-33.15c8.576,11.023,16.933,21.764,25.589,32.889
	c0.317-1.068,0.55-1.631,0.648-2.216c1.852-10.992,3.717-21.982,5.48-32.988c0.153-0.953-0.064-2.258-0.635-2.989
	C167.685,30.316,157.403,17.315,146.558,3.562z M146.772,106.421c-5.503,7.07-10.5,13.76-15.826,20.178
	c-1.757,2.117-1.946,3.983-1.512,6.496c2.805,16.217,5.463,32.46,8.181,48.693c0.9,5.38,1.835,10.754,2.639,15.458
	c4.648,0,8.721,0,13.123,0c0.408-2.419,0.9-5.284,1.377-8.15c3.196-19.223,6.396-38.444,9.559-57.673
	c0.147-0.892,0.308-2.118-0.153-2.719C158.509,121.326,152.745,114.036,146.772,106.421z M146.786,54.537
	c-8.186,10.54-16.105,20.714-23.977,30.926c-0.482,0.626-0.909,1.601-0.8,2.328c0.808,5.381,1.758,10.74,2.776,16.771
	c7.57-9.704,14.675-18.812,22.01-28.215c7.352,9.417,14.476,18.542,22.048,28.241c1.021-6.167,1.962-11.492,2.722-16.842
	c0.114-0.805-0.442-1.868-0.99-2.579C162.76,75.042,154.892,64.956,146.786,54.537z M165.468,124.386
	c1.151-7.977,5.035-15.375-2.524-21.542c-0.982-0.801-1.619-2.025-2.419-3.051c-4.51-5.778-9.02-11.556-13.757-17.627
	c-6.967,8.996-13.664,17.629-20.327,26.289c-0.363,0.472-0.695,1.198-0.616,1.744c0.657,4.517,1.415,9.019,2.262,14.265
	c6.563-8.354,12.566-15.993,18.718-23.822C153.009,108.536,158.998,116.156,165.468,124.386z M165.664,217.71
	c0.275-5.11-3.553-8.309-8.512-7.966c-4.478,0.31-7.896,4.175-6.945,8.772c1.843-3.022,3.07-6.693,7.351-6.88
	C161.863,211.449,163.719,214.553,165.664,217.71z M143.537,218.097c-0.64-5.898-4.102-8.78-9.181-8.35
	c-4.113,0.349-7.095,3.469-6.76,8.15c1.918-3.258,3.781-6.357,8.089-6.297C140.152,211.665,140.864,216.009,143.537,218.097z
	 M153.635,206.894c0.251-0.012,0.503-0.024,0.754-0.036c0-0.782,0.291-1.735-0.05-2.32c-1.61-2.777-4.024-4.486-7.334-4.523
	c-3.42-0.038-6.013,1.54-7.661,4.51c-0.334,0.602-0.14,1.497-0.189,2.259c0.585-0.41,1.346-0.699,1.729-1.25
	c2.733-3.936,7.391-4.763,10.51-1.703C152.286,204.703,152.896,205.864,153.635,206.894z M142.257,208.761
	c2.154-1.409,3.441-2.912,4.709-2.896c1.299,0.016,2.579,1.518,3.867,2.368c0.141-1.338-0.22-2.79-1.147-3.503
	c-2.124-1.633-4.52-1.479-6.342,0.538C142.631,206.056,142.625,207.483,142.257,208.761z M139.73,217.969
	c0.093-2.661-1.344-4.354-3.942-4.657c-2.519-0.291-4.328,1.18-4.989,4.288c1.6-0.945,3.081-2.52,4.493-2.461
	C136.735,215.199,138.111,216.861,139.73,217.969z M153.591,218.401c2.707-5.286,5.831-3.617,9.138-0.728
	c-0.922-3.066-2.567-4.727-5.405-4.301C154.955,213.731,153.297,215.092,153.591,218.401z"/>
</svg>
