<?xml version="1.0" encoding="utf-8"?>
<!-- Generator: Adobe Illustrator 16.0.3, SVG Export Plug-In . SVG Version: 6.00 Build 0)  -->
<!DOCTYPE svg PUBLIC "-//W3C//DTD SVG 1.1//EN" "http://www.w3.org/Graphics/SVG/1.1/DTD/svg11.dtd">
<svg version="1.1" id="Layer_1" xmlns="http://www.w3.org/2000/svg" xmlns:xlink="http://www.w3.org/1999/xlink" x="0px" y="0px"
	 width="292.519px" height="217.1px" viewBox="0 0 292.519 217.1" enable-background="new 0 0 292.519 217.1" xml:space="preserve">
<path fill-rule="evenodd" clip-rule="evenodd" fill="#1A4B55" d="M173.641,216.977c-0.383,0.02-1.209,0.107-2.034,0.107
	c-16.705,0.009-33.411-0.023-50.117,0.047c-1.852,0.008-2.841-0.365-3.393-2.319c-3.025-10.71-9.157-19.988-14.111-29.793
	c-13.165-26.049-26.611-51.957-39.943-77.921c-0.418-0.815-0.806-1.646-1.403-2.866c6.901,0,13.436,0,20.325,0
	c-7.465-23.473-14.807-46.56-22.264-70.004c1.277,0,2.272,0,3.267,0c15.102,0,30.203-0.04,45.304,0.043
	c2.325,0.012,4.006-0.568,5.698-2.292c9.851-10.034,19.844-19.927,29.792-29.865c0.527-0.527,1.092-1.016,2.253-2.092
	c0.69,0.993,1.217,2.041,2.001,2.831c9.848,9.907,19.699,19.812,29.664,29.6c0.994,0.978,2.737,1.675,4.137,1.685
	c16.42,0.116,32.841,0.074,49.764,0.074c-7.533,23.358-14.984,46.465-22.554,69.937c7.023,0,13.66,0,20.708,0
	c-2.525,4.872-4.841,9.363-7.177,13.844c-15.496,29.727-31.033,59.432-46.44,89.205C175.594,210.144,174.853,213.5,173.641,216.977z
	 M122.235,214.91c0.21-0.171,0.42-0.341,0.631-0.511c0-59.135,0-118.268,0-177.39c-3.201,0-6.175,0-9.399,0c0,1.007,0,1.836,0,2.665
	c0,49.75,0,99.5,0.007,149.25c0,0.844-0.082,1.745,0.167,2.525c2.32,7.26,4.683,14.51,7.109,21.734
	C120.975,213.85,121.728,214.339,122.235,214.91z M169.997,36.811c0,59.507,0,118.649,0,177.79c0.272,0.146,0.543,0.292,0.814,0.438
	c0.516-0.74,1.242-1.411,1.515-2.23c2.14-6.424,4.235-12.863,6.238-19.33c0.521-1.681,0.949-3.475,0.951-5.217
	c0.051-49.455,0.041-98.909,0.041-148.366c0-0.994,0-1.991,0-3.084C176.133,36.811,173.158,36.811,169.997,36.811z M125.441,214.506
	c14.155,0,28.043,0,42.095,0c0-7.38,0-14.586,0-21.979c-14.088,0-28.048,0-42.095,0
	C125.441,199.915,125.441,207.063,125.441,214.506z M74.902,70.442c6.407,20.145,12.756,40.106,19.105,60.066
	c0.142-0.034,0.284-0.07,0.425-0.104c0-19.962,0-39.922,0-59.961C87.875,70.442,81.572,70.442,74.902,70.442z M198.566,70.52
	c0,19.936,0,39.708,0,59.479c0.132,0.023,0.265,0.046,0.395,0.069c6.391-19.795,12.778-39.588,19.222-59.549
	C211.429,70.52,205.06,70.52,198.566,70.52z M198.545,50.342c8.399,0,16.485,0.035,24.568-0.062
	c0.682-0.008,1.739-0.755,1.968-1.394c1.393-3.864,2.595-7.799,3.927-11.909c-10.289,0-20.304,0-30.463,0
	C198.545,41.41,198.545,45.694,198.545,50.342z M94.522,36.975c-10.096,0-20.032,0-30.26,0c1.313,4.129,2.483,8.084,3.889,11.952
	c0.24,0.661,1.479,1.323,2.279,1.353c3.86,0.14,7.728,0.063,11.593,0.063c4.118,0,8.234,0,12.5,0
	C94.522,45.699,94.522,41.419,94.522,36.975z M94.474,67.938c0-5.229,0-10.07,0-14.945c-8.438,0-16.661,0-25.138,0
	c1.516,4.732,2.899,9.214,4.433,13.644c0.197,0.571,1.163,1.237,1.781,1.246C81.767,67.974,87.986,67.938,94.474,67.938z
	 M198.639,52.914c0,5.182,0,10.024,0,15.021c6.444,0,12.658,0.036,18.871-0.054c0.628-0.009,1.612-0.639,1.81-1.2
	c1.579-4.493,3.011-9.038,4.554-13.768C215.284,52.914,207.03,52.914,198.639,52.914z M125.588,159.897c0,10.079,0,19.902,0,29.741
	c3.304,0,6.379,0,9.631,0c0-9.969,0-19.793,0-29.741C131.945,159.897,128.865,159.897,125.588,159.897z M158.363,159.898
	c0,10.064,0,19.903,0,29.649c3.205,0,6.167,0,9.129,0c0-10.001,0-19.771,0-29.649C164.388,159.898,161.485,159.898,158.363,159.898z
	 M125.364,67.998c0.46-0.043,0.706,0.01,0.802-0.087c6.016-5.986,12.024-11.981,18.012-17.995c0.377-0.379,0.836-0.912,0.847-1.383
	c0.073-3.323,0.039-6.649,0.039-10.701c-6.748,6.756-12.935,12.938-19.088,19.152c-0.348,0.353-0.577,0.981-0.585,1.485
	C125.338,61.636,125.364,64.803,125.364,67.998z M147.997,37.821c0,3.383,0.101,5.998-0.035,8.601
	c-0.095,1.832,0.458,3.148,1.792,4.445c5.274,5.131,10.429,10.387,15.638,15.584c0.61,0.607,1.286,1.148,2.303,2.049
	c0-3.612,0.059-6.622-0.04-9.626c-0.025-0.761-0.35-1.7-0.87-2.227C160.76,50.536,154.672,44.489,147.997,37.821z M110.882,118.427
	c0-5.475,0-10.597,0-15.731c-4.655,0-9.105,0-13.583,0c0,5.361,0,10.483,0,15.731C101.888,118.427,106.28,118.427,110.882,118.427z
	 M148.711,82.024c-0.237,0.087-0.477,0.174-0.714,0.261c0,2.508-0.21,5.04,0.077,7.515c0.176,1.521,0.743,3.3,1.761,4.368
	c5.192,5.448,10.585,10.706,15.921,16.018c0.471,0.468,1.043,0.834,1.945,1.546c0-3.523,0.056-6.52-0.041-9.51
	c-0.022-0.661-0.433-1.446-0.91-1.935C160.764,94.173,154.731,88.104,148.711,82.024z M195.623,102.684c-4.742,0-9.114,0-13.457,0
	c0,5.375,0,10.515,0,15.688c4.566,0,8.947,0,13.457,0C195.623,113.062,195.623,107.928,195.623,102.684z M97.202,136.056
	c-0.58,5.892,2.295,10.727,3.74,15.88c0.105,0.378,0.821,0.816,1.263,0.828c2.878,0.074,5.759,0.038,8.694,0.038
	c0-5.813,0-11.213,0-16.746C106.333,136.056,101.945,136.056,97.202,136.056z M125.364,111.97
	c6.662-6.651,12.728-12.695,18.765-18.77c0.431-0.434,0.896-1.079,0.913-1.638c0.089-3.063,0.042-6.13,0.042-9.4
	c-0.583,0.221-0.882,0.246-1.044,0.406c-5.946,5.909-11.887,11.823-17.796,17.769c-0.423,0.425-0.824,1.098-0.839,1.667
	C125.321,105.076,125.364,108.15,125.364,111.97z M155.296,171.671c0-4.133,0-7.928,0-11.658c-5.925,0-11.606,0-17.222,0
	c0,4.029,0,7.828,0,11.658C143.923,171.671,149.537,171.671,155.296,171.671z M97.263,84.936c4.604,0,9.054,0,13.628,0
	c0-4.864,0-9.588,0-14.36c-4.653,0-9.099,0-13.628,0C97.263,75.453,97.263,80.107,97.263,84.936z M182.159,136.002
	c0,5.723,0,11.135,0,16.82c2.637,0,5.09,0.172,7.495-0.088c0.911-0.099,2.155-1.019,2.49-1.864c1.273-3.229,2.363-6.548,3.268-9.9
	c0.416-1.544,0.246-3.248,0.35-4.968C190.989,136.002,186.676,136.002,182.159,136.002z M125.362,89.279
	c6.675-6.665,12.799-12.761,18.885-18.893c0.42-0.423,0.783-1.113,0.799-1.691c0.083-2.769,0.037-5.541,0.037-8.371
	c-0.527,0.093-0.762,0.061-0.864,0.163c-6.001,5.969-12.005,11.938-17.961,17.955c-0.473,0.477-0.833,1.285-0.856,1.954
	C125.306,83.095,125.362,85.8,125.362,89.279z M145.081,16.386c-0.695,0.425-1.034,0.552-1.269,0.786
	c-5.81,5.784-11.62,11.57-17.392,17.394c-0.489,0.494-0.981,1.243-1.007,1.893c-0.111,2.783-0.047,5.573-0.047,8.591
	c0.559-0.265,0.839-0.321,1.008-0.489c5.935-5.926,11.867-11.855,17.77-17.813c0.427-0.432,0.877-1.076,0.896-1.635
	C145.131,22.332,145.081,19.546,145.081,16.386z M195.507,85.011c0-5.035,0-9.755,0-14.438c-4.636,0-8.995,0-13.295,0
	c0,4.954,0,9.686,0,14.438C186.744,85.011,191.047,85.011,195.507,85.011z M125.458,152.814c2.663,0,5.095-0.093,7.517,0.029
	c1.8,0.09,2.548-0.455,2.477-2.371c-0.127-3.388-0.015-6.783-0.048-10.176c-0.006-0.636-0.004-1.479-0.378-1.871
	c-2.991-3.147-6.07-6.209-9.567-9.746C125.458,137.097,125.458,144.701,125.458,152.814z M97.274,50.143c4.762,0,9.146,0,13.589,0
	c0-4.477,0-8.747,0-12.994c-4.674,0-9.128,0-13.589,0C97.274,41.596,97.274,45.794,97.274,50.143z M166.943,88.946
	c0.938-5.453,1.67-10.429-3.505-13.908c-1.993-1.34-3.511-3.391-5.241-5.119c-3.227-3.224-6.451-6.451-10.204-10.203
	c0,2.679,0.163,4.633-0.039,6.548c-0.264,2.488,0.702,4.207,2.462,5.882c4.225,4.022,8.296,8.206,12.401,12.354
	C164.237,85.938,165.571,87.462,166.943,88.946z M147.997,15.955c0,2.647,0.152,4.512-0.037,6.341
	c-0.266,2.55,0.562,4.386,2.463,6.16c4.269,3.979,8.319,8.195,12.424,12.351c1.417,1.435,2.729,2.977,4.089,4.468
	c0.253-0.154,0.507-0.309,0.759-0.463c0-2.692,0.06-5.387-0.04-8.076c-0.025-0.671-0.404-1.479-0.883-1.963
	C160.75,28.679,154.68,22.635,147.997,15.955z M167.688,129.505c-0.289-0.178-0.578-0.357-0.867-0.536
	c-2.638,2.788-5.287,5.564-7.899,8.378c-0.356,0.386-0.735,0.947-0.741,1.433c-0.057,4.575-0.035,9.153-0.035,14.037
	c2.825,0,5.35,0.104,7.853-0.076c0.598-0.044,1.608-1.032,1.617-1.599C167.728,143.931,167.688,136.719,167.688,129.505z
	 M195.646,37.111c-4.729,0-9.099,0-13.448,0c0,4.479,0,8.75,0,13.021c4.59,0,8.96,0,13.448,0
	C195.646,45.708,195.646,41.5,195.646,37.111z M145.092,105.471c-0.242-0.14-0.484-0.28-0.726-0.42
	c-5.319,5.409-10.629,10.829-15.96,16.226c-3.768,3.816-3.782,3.807,0.237,7.363c0.11,0.098,0.338,0.063,0.698,0.123
	c4.899-4.915,9.892-9.884,14.815-14.922c0.521-0.532,0.849-1.451,0.895-2.214C145.172,109.582,145.092,107.524,145.092,105.471z
	 M148.545,105.205c-0.265,0.111-0.529,0.222-0.795,0.333c0.269,2.657-0.438,6.134,0.982,7.821
	c4.64,5.513,10.053,10.375,15.852,16.169c0.886-1.251,1.786-2.254,2.348-3.419c0.322-0.668,0.459-1.954,0.063-2.359
	C160.903,117.508,154.713,111.368,148.545,105.205z M146.188,150.443c-2.907-3.157-5.418-5.887-8.168-8.875
	c0,3.883,0,7.388,0,11.058c5.86,0,11.551,0,17.241,0c0-3.854,0-7.51,0-11.875C152.139,144.085,149.505,146.898,146.188,150.443z
	 M181.874,159.863c0,7.379,0,14.534,0,21.689c0.145,0.02,0.289,0.039,0.433,0.059c2.318-7.184,4.636-14.368,7.016-21.748
	C186.702,159.863,184.453,159.863,181.874,159.863z M110.52,182.406c0.146-0.025,0.291-0.05,0.437-0.076c0-7.459,0-14.92,0-22.441
	c-2.542,0-4.871,0-7.572,0C105.804,167.525,108.162,174.966,110.52,182.406z"/>
</svg>
