<?xml version="1.0" encoding="utf-8"?>
<!-- Generator: Adobe Illustrator 16.0.3, SVG Export Plug-In . SVG Version: 6.00 Build 0)  -->
<!DOCTYPE svg PUBLIC "-//W3C//DTD SVG 1.1//EN" "http://www.w3.org/Graphics/SVG/1.1/DTD/svg11.dtd">
<svg version="1.1" id="Layer_1" xmlns="http://www.w3.org/2000/svg" xmlns:xlink="http://www.w3.org/1999/xlink" x="0px" y="0px"
	 width="292.519px" height="217.1px" viewBox="0 0 292.519 217.1" enable-background="new 0 0 292.519 217.1" xml:space="preserve">
<path fill-rule="evenodd" clip-rule="evenodd" fill="#1A4B55" d="M63.772,75.815c7.654,0,14.86,0,22.53,0
	c-2.299-7.338-4.511-14.4-6.811-21.739c4.479,0,8.7,0,13.281,0c-0.715-3.099-1.363-5.914-2.083-9.035c7.269,0,14.363,0,21.837,0
	c-1.974-15.116-3.904-29.907-5.861-44.891c26.941,0,53.576,0,80.487,0c-1.911,14.937-3.805,29.738-5.741,44.875
	c7.352,0,14.445,0,21.819,0c-0.707,3.12-1.335,5.887-2.028,8.946c4.448,0,8.67,0,13.275,0c-2.307,7.351-4.506,14.361-6.806,21.69
	c7.523,0,14.774,0,22.471,0c-0.416,1.093-0.644,1.831-0.969,2.523c-8.674,18.386-17.33,36.782-26.083,55.127
	c-0.868,1.82-0.543,2.847,0.774,4.244c12.136,12.868,19.205,28.145,21.28,45.699c0.366,3.095,0.326,6.238,0.488,9.687
	c-6.752,0-13.209,0.1-19.66-0.057c-2.159-0.054-3.286,0.651-4.324,2.528c-3.757,6.793-7.666,13.504-11.672,20.152
	c-0.524,0.87-1.941,1.704-2.948,1.708c-26.867,0.092-53.735,0.052-80.604,0.12c-1.808,0.004-2.619-0.777-3.41-2.167
	c-3.841-6.751-7.808-13.431-11.591-20.213c-0.898-1.606-1.9-2.146-3.709-2.113c-6.291,0.115-12.585,0.045-19.495,0.045
	c0.306-4.222,0.336-8.352,0.946-12.394c2.524-16.77,9.586-31.366,21.507-43.501c1.213-1.235,0.879-2.102,0.28-3.367
	c-8.661-18.286-17.28-36.593-25.903-54.897C64.663,77.966,64.331,77.12,63.772,75.815z M183.977,11.196c-24.737,0-49.222,0-74.012,0
	c2.765,21.189,5.5,42.144,8.248,63.207c19.243,0,38.279,0,57.513,0C178.47,53.379,181.197,32.487,183.977,11.196z M114.009,56.456
	c-10.475,0-20.802,0-31.454,0c7.32,23.076,14.584,45.978,21.79,68.692c5.179-2.41,9.935-4.877,14.895-6.826
	c2.349-0.922,2.719-2.01,2.401-4.272c-1.533-10.892-2.896-21.808-4.33-32.714C116.225,73.089,115.123,64.845,114.009,56.456z
	 M179.914,56.376c-2.661,20.396-5.288,40.52-7.886,60.437c5.933,2.843,11.65,5.581,17.55,8.407
	c7.249-22.87,14.505-45.765,21.82-68.844C200.715,56.376,190.458,56.376,179.914,56.376z M117.796,190.608
	c-8.389-17.776-16.581-35.134-24.909-52.78c-14.264,15.053-21.791,32.311-22.27,52.78
	C86.425,190.608,101.779,190.608,117.796,190.608z M201.024,137.839c-8.385,17.785-16.578,35.164-24.86,52.732
	c15.972,0,31.4,0,47.182,0C222.791,170.104,215.328,152.82,201.024,137.839z M123.728,116.594
	c15.552-4.525,30.928-4.509,46.482-0.015c0.955-7.321,1.854-14.219,2.759-21.141c-17.496,0-34.63,0-51.993,0
	C121.901,102.554,122.791,109.397,123.728,116.594z M162.428,190.331c5.861,1.202,6.202,1.009,7.809-4.255
	c0.082-0.265,0.216-0.513,0.299-0.776c5.819-18.38,11.648-36.756,17.406-55.155c0.271-0.863,0.24-2.546-0.229-2.805
	c-5.104-2.831-10.324-5.454-15.969-8.367C168.559,143.372,165.492,166.86,162.428,190.331z M105.092,127.542
	c6.63,20.89,13.073,41.211,19.57,61.517c0.206,0.642,0.933,1.498,1.502,1.57c1.678,0.209,3.398,0.074,5.391,0.074
	c-3.134-23.992-6.203-47.481-9.36-71.651C116.1,122.077,110.607,124.804,105.092,127.542z M119.241,81.626
	c0.139,1.196,0.408,2.192,0.339,3.167c-0.207,2.927,1.081,3.661,3.927,3.636c15.733-0.141,31.468-0.064,47.202-0.073
	c1.062-0.001,2.124-0.097,3.213-0.149c0.284-2.398,0.526-4.447,0.779-6.58C155.983,81.626,137.707,81.626,119.241,81.626z"/>
</svg>
