<?xml version="1.0" encoding="utf-8"?>
<!-- Generator: Adobe Illustrator 16.0.3, SVG Export Plug-In . SVG Version: 6.00 Build 0)  -->
<!DOCTYPE svg PUBLIC "-//W3C//DTD SVG 1.1//EN" "http://www.w3.org/Graphics/SVG/1.1/DTD/svg11.dtd">
<svg version="1.1" id="Layer_1" xmlns="http://www.w3.org/2000/svg" xmlns:xlink="http://www.w3.org/1999/xlink" x="0px" y="0px"
	 width="292.519px" height="217.1px" viewBox="0 0 292.519 217.1" enable-background="new 0 0 292.519 217.1" xml:space="preserve">
<g>
	<path fill-rule="evenodd" clip-rule="evenodd" fill="#1A4B55" d="M148.258,0.373c36.063,36.056,72.145,72.13,108.148,108.127
		c-36.102,36.1-72.205,72.202-108.233,108.229c-35.965-35.966-72.075-72.078-108.134-108.139
		C76.024,72.605,112.126,36.503,148.258,0.373z M147.932,190.898c0.061-0.005,0.121-0.011,0.182-0.017
		c0.037-0.331,0.063-0.664,0.113-0.993c1.003-6.358,1.977-12.722,3.021-19.072c1.129-6.861,2.24-13.729,3.515-20.563
		c1.809-9.703,3.737-19.385,5.655-29.067c1.737-8.772,3.599-17.521,5.271-26.306c1.338-7.017,2.51-14.065,3.689-21.111
		c0.933-5.574,1.706-11.175,2.66-16.745c0.938-5.475,2.025-10.924,3.006-16.391c0.07-0.393-0.064-0.975-0.33-1.25
		c-2.449-2.542-4.939-5.043-7.434-7.54c-5.213-5.218-10.435-10.428-15.656-15.639c-1.137-1.134-2.286-2.256-3.545-3.497
		c-0.727,0.786-1.332,1.484-1.982,2.139c-3.768,3.791-7.542,7.576-11.323,11.355c-4.522,4.519-9.058,9.026-13.569,13.557
		c-0.181,0.181-0.285,0.564-0.241,0.823c0.467,2.786,0.991,5.562,1.462,8.347c1.403,8.294,2.762,16.596,4.19,24.885
		c1.444,8.38,2.849,16.769,4.458,25.117c2.054,10.657,4.381,21.262,6.432,31.919c2.208,11.468,4.297,22.961,6.315,34.465
		c1.32,7.528,2.418,15.096,3.62,22.645C147.598,188.939,147.768,189.917,147.932,190.898z M210.732,75.99
		c-0.027,0.052-0.096,0.154-0.141,0.266c-2.518,6.171-5.006,12.354-7.557,18.511c-2.502,6.039-5.043,12.061-7.613,18.07
		c-2.857,6.683-5.781,13.337-8.65,20.015c-3.107,7.229-6.291,14.426-9.246,21.716c-3.754,9.263-7.32,18.602-10.953,27.913
		c-0.628,1.61-1.186,3.248-1.658,4.548c26.059-26.054,52.309-52.297,78.414-78.398C232.516,97.802,221.627,86.9,210.732,75.99z
		 M52.54,108.663c26.183,26.18,52.41,52.403,78.61,78.601c-0.018-0.062-0.048-0.205-0.097-0.342
		c-0.804-2.24-1.553-4.502-2.426-6.714c-3.889-9.855-7.76-19.719-11.747-29.534c-2.471-6.086-5.122-12.1-7.718-18.134
		c-4.418-10.265-8.899-20.503-13.271-30.787c-2.905-6.833-5.671-13.726-8.493-20.594c-0.722-1.756-1.421-3.522-2.107-5.225
		C74.371,86.846,63.464,97.745,52.54,108.663z M183.152,47.723c-0.125,0.081-0.25,0.162-0.375,0.243
		c-0.102,0.56-0.205,1.121-0.309,1.681c-0.924,5.024-1.914,10.038-2.754,15.075c-0.918,5.511-1.635,11.055-2.555,16.566
		c-1.006,6.041-2.053,12.078-3.242,18.085c-2.375,12.011-4.882,23.997-7.291,36c-1.104,5.506-2.148,11.025-3.143,16.552
		c-1.028,5.717-1.963,11.45-2.939,17.176c-0.372,2.183-0.748,4.365-1.122,6.548c0.192-0.058,0.263-0.153,0.306-0.26
		c1.457-3.683,2.92-7.364,4.367-11.051c1.234-3.148,2.378-6.335,3.688-9.452c4.33-10.298,8.697-20.58,13.086-30.853
		c3.217-7.529,6.566-15.001,9.717-22.558c4.395-10.543,8.652-21.144,12.992-31.71c0.287-0.701,0.176-1.13-0.355-1.658
		c-5.684-5.649-11.352-11.316-17-17C185.148,50.029,184.174,48.854,183.152,47.723z M113.217,47.82
		c-0.266,0.218-0.395,0.307-0.504,0.416c-6.727,6.723-13.456,13.442-20.158,20.189c-0.211,0.212-0.296,0.766-0.18,1.056
		c3.566,8.897,7.095,17.81,10.777,26.658c3.488,8.383,7.145,16.695,10.724,25.04c3.627,8.457,7.314,16.89,10.854,25.383
		c3.37,8.084,6.59,16.23,9.862,24.354c0.62,1.539,1.176,3.104,1.761,4.658c0.153-0.238,0.159-0.428,0.128-0.61
		c-1.123-6.502-2.201-13.011-3.387-19.501c-1.681-9.198-3.386-18.393-5.183-27.568c-1.902-9.71-3.979-19.386-5.875-29.097
		c-1.264-6.477-2.389-12.981-3.489-19.487c-0.656-3.881-1.083-7.8-1.722-11.684c-0.769-4.664-1.648-9.309-2.492-13.959
		C113.987,51.768,113.61,49.875,113.217,47.82z"/>
</g>
</svg>
