<?xml version="1.0" encoding="utf-8"?>
<!-- Generator: Adobe Illustrator 16.0.3, SVG Export Plug-In . SVG Version: 6.00 Build 0)  -->
<!DOCTYPE svg PUBLIC "-//W3C//DTD SVG 1.1//EN" "http://www.w3.org/Graphics/SVG/1.1/DTD/svg11.dtd">
<svg version="1.1" id="Layer_1" xmlns="http://www.w3.org/2000/svg" xmlns:xlink="http://www.w3.org/1999/xlink" x="0px" y="0px"
	 width="1200.119px" height="272.151px" viewBox="0 312.85 1200.119 272.151" enable-background="new 0 312.85 1200.119 272.151"
	 xml:space="preserve">
<g>
	<path fill="#D5C8AC" d="M398.119,0c1.667,0,3.333,0,5,0c6.156,10.582,12.312,21.165,19,32.661c0-11.771,0-22.216,0-32.661
		c1.667,0,3.333,0,5,0c-0.024,103.617-0.049,207.234-0.061,310.851c0,0.752-0.294,1.711,0.826,1.999
		c5.748-4.217,8.355-9.269,8.321-16.997c-0.348-78.461-0.22-156.925-0.206-235.387c0.004-20.155,0.077-40.311,0.119-60.466
		c1.333,0,2.667,0,4,0c0,10.539,0,21.079,0,31.618c0.462,0.105,0.924,0.21,1.386,0.316C447.013,21.081,454.265,11.23,459.119,0
		c2,0,4,0,6,0c-7.393,12.825-14.688,25.708-22.255,38.429c-1.591,2.673-1.498,4.498,0.025,7.128
		c24.939,43.027,49.759,86.125,74.616,129.199c5.879,10.188,11.803,20.351,18.121,31.24c6.356-6.542,12.113-12.776,18.239-18.622
		c2.553-2.436,2.8-4.602,1.933-7.811c-12.321-45.611-24.454-91.274-36.785-136.883C515.16,28.425,511.927,13.991,507.119,0
		c2,0,4,0,6,0c-0.855,1.526,0.048,2.917,0.418,4.3c13.041,48.711,26.112,97.415,39.182,146.119
		c2.609,9.722,5.227,19.441,8.049,29.941c9.207-9.23,17.674-17.901,26.369-26.334c2.85-2.763,3.932-5.646,3.925-9.625
		c-0.082-48.133,0.011-96.267,0.059-144.4c1.333,0,2.667,0,4,0c0.094,1.49,0.271,2.98,0.271,4.47
		c0.011,44.492,0.003,88.984-0.002,133.477c0,2.224,0,4.448,0,7.95c3.043-3.822,5.385-6.28,8.204-1.648
		c1.194-1.848,0.714-3.372,0.716-4.789c0.035-30.994,0.043-61.988,0.009-92.982c-0.019-15.492-0.127-30.984-0.195-46.477
		c1.666,0,3.334,0,5,0c-0.061,1.995-0.176,3.991-0.176,5.986c-0.011,43.154,0.336,86.313-0.258,129.458
		c-0.144,10.329,2.157,18.019,10.305,24.543c6.203,4.969,11.396,11.196,17.084,16.816c0.86,0.852,1.421,2.288,3.297,2.07
		c0.271-0.893,0.583-1.821,0.836-2.764c10.967-40.841,21.96-81.674,32.873-122.53c4.766-17.837,9.365-35.719,14.039-53.581
		c1.666,0,3.334,0,5,0c-0.881,3.377-1.742,6.759-2.646,10.13c-15.123,56.414-30.26,112.824-45.334,169.251
		c-0.437,1.636-1.979,3.455-0.314,5.154c6.785,6.93,13.641,13.791,20.562,20.769c0.658-0.933,0.871-1.188,1.035-1.475
		c30.632-53.014,61.244-106.039,91.942-159.013c1.271-2.196,1.146-3.703-0.079-5.823C749.806,26.048,742.49,13.008,735.119,0
		c1.667,0,3.333,0,5,0c6.051,10.59,12.102,21.179,18.152,31.769c0.281-0.162,0.564-0.323,0.848-0.485c0-10.428,0-20.856,0-31.284
		c1.667,0,3.333,0,5,0c-0.059,2.162-0.165,4.324-0.166,6.485c-0.012,97.61,0.061,195.221-0.175,292.83
		c-0.019,7.166,4.823,9.485,9.1,14.308c0-2.179,0-3.003,0-3.828c-0.006-101.108-0.013-202.216-0.006-303.324
		c0-2.157,0.161-4.314,0.247-6.472c1.333,0,2.667,0,4,0c0,10.516,0,21.033,0,31.549c0.419,0.101,0.837,0.203,1.256,0.304
		c5.667-10.76,12.61-20.782,17.744-31.852c2,0,4,0,6,0c-7.613,13.097-15.165,26.23-22.899,39.255
		c-1.347,2.268-0.886,3.833,0.288,5.865c46.396,80.294,92.742,160.617,139.124,240.919c0.645,1.114,0.892,2.747,2.722,3.088
		c0.32-2.124-0.469-3.807-0.933-5.543c-19.846-74.146-39.665-148.3-59.555-222.435C855.389,40.738,849.707,20.382,844.119,0
		c1.667,0,3.333,0,5,0c17.642,65.752,35.307,131.499,52.916,197.26c8.094,30.226,16.082,60.479,24.118,90.721
		c0.003,0.993,0.095,2.544,1.163,2.258c1.666-0.446,0.811-2.262,0.812-3.466c0.019-95.591,0.004-191.182-0.009-286.773
		c1.333,0,2.667,0,4,0c0.045,2.163,0.13,4.326,0.13,6.489c0.006,270.854,0.009,541.708-0.001,812.562
		c0,26.983-0.084,53.967-0.129,80.949c-1.333,0-2.667,0-4,0c-1.016-14.136,0.014-28.311-0.559-44.002
		c-8.972,15.516-17.207,29.758-25.441,44.002c-1.667,0-3.333,0-5,0c9.392-16.447,18.711-32.936,28.246-49.298
		c1.54-2.642,1.606-4.479,0.036-7.135c-8.296-14.021-16.349-28.188-24.53-42.277c-0.518-0.892-0.6-2.392-2.368-2.247
		c-19.437,33.611-38.91,67.284-58.384,100.957c-1.667,0-3.333,0-5,0c0.52-1.035,0.988-2.098,1.566-3.1
		c19.143-33.172,38.252-66.361,57.521-99.459c1.74-2.988,1.695-5.068-0.043-8.033c-12.467-21.256-24.711-42.644-37.066-63.965
		c-0.714-1.231-0.994-2.893-2.809-3.438c-0.371,1.118-0.792,2.198-1.091,3.312c-15.087,56.303-30.17,112.604-45.216,168.918
		c-0.5,1.866-1.652,3.687-0.864,5.766c-2,0-4,0-6,0c1.293-1.06,1.228-2.699,1.601-4.088c15.892-59.188,31.699-118.396,47.676-177.56
		c0.771-2.857-0.094-4.73-1.354-6.913c-23.322-40.369-46.619-80.754-69.924-121.134c-0.472-0.815-0.761-1.873-1.841-1.766
		c0,2.536,0,5.014,0,7.492c-0.008,99.492-0.014,198.981-0.025,298.475c0,1.83-0.086,3.661-0.132,5.492c-1.333,0-2.667,0-4,0
		c-0.086-1.657-0.247-3.314-0.247-4.973c-0.012-101.264-0.007-202.525-0.041-303.789c-0.001-1.227,0.57-2.593-0.873-4.354
		c-2.537,4.439-8.129,5.863-8.119,12.335c0.145,98.433,0.104,196.863,0.114,295.295c0.001,1.829,0.107,3.657,0.166,5.485
		c-1.667,0-3.333,0-5,0c0.034-0.998,0.1-1.997,0.1-2.995c0.003-97.481,0.003-194.963-0.024-292.444c0-1.08,0.459-2.278-0.77-3.717
		c-5.992,6.463-13.466,11.504-17.921,19.119c-17.819,30.467-35.308,61.127-53,91.668c-1.435,2.478-1.798,4.65-1.021,7.48
		c5.377,19.587,10.543,39.231,15.813,58.85c10.929,40.684,21.88,81.359,32.822,122.039c-1.667,0-3.333,0-5,0
		c-12.871-48.204-25.742-96.408-38.615-144.611c-2.979-11.16-5.974-22.317-9.31-34.776c-0.77,1.487-0.971,1.918-1.206,2.327
		c-13.145,22.755-26.242,45.533-39.513,68.216c-1.332,2.274-0.479,3.602,0.535,5.349c7.178,12.371,14.278,24.788,21.464,37.153
		c12.858,22.128,25.761,44.229,38.645,66.344c-2,0-4,0-6,0c-0.313-0.756-0.545-1.558-0.95-2.26
		c-18.53-32.126-37.07-64.245-55.639-96.35c-0.521-0.897-0.698-2.232-2.389-2.391c-8.879,15.34-17.767,30.739-26.719,46.101
		c-0.871,1.494-0.793,2.614,0.071,4.088c9.915,16.914,19.761,33.867,29.624,50.812c-2,0-4,0-6,0
		c-8.071-14.25-16.144-28.501-24.213-42.752c-0.264,0.158-0.525,0.315-0.787,0.475c0,14.092,0,28.187,0,42.277c-1.666,0-3.334,0-5,0
		c0.065-0.828,0.19-1.655,0.191-2.482c0.02-46.297,0.029-92.593,0.018-138.889c0-0.905,0.428-2.045-1.195-2.764
		c-1.84,3.563-3.968,3.274-6.028,0.024c-3.613-1.127-1.984,1.896-1.986,2.894c-0.065,47.071-0.026,94.145,0.001,141.217
		c-1.333,0-2.667,0-4,0c0-14.164,0-28.329,0-42.494c-8.128,11.982-15.206,24.13-22.146,36.354c-1.103,1.942-3.023,3.58-2.854,6.141
		c-2,0-4,0-6,0c7.039-12.275,14.098-24.539,21.105-36.832c3.04-5.332,8.312-10.727,8.306-16.088
		c-0.006-5.369-5.273-10.764-8.332-16.092c-6.177-10.755-12.418-21.474-18.888-32.646c-0.732,1.039-1.132,1.52-1.439,2.052
		c-18.667,32.295-37.326,64.595-55.985,96.894c-0.483,0.839-1.276,1.591-0.768,2.712c-2,0-4,0-6,0
		c19.772-34.29,39.52-68.596,59.373-102.838c1.482-2.56,1.791-4.432,0.188-7.168c-12.782-21.812-25.364-43.74-38.04-65.613
		c-0.521-0.902-0.658-2.346-2.342-2.236c-0.289,0.927-0.621,1.866-0.878,2.827c-12.463,46.602-24.971,93.188-37.341,139.813
		c-3.106,11.705-6.869,23.25-8.96,35.215c-1.667,0-3.333,0-5,0c0.25-1.297,0.419-2.616,0.759-3.89
		c15.788-59.026,31.564-118.057,47.469-177.051c0.771-2.858,0.424-4.965-1.019-7.446C495.68,682.973,479,654.348,462.662,625.53
		c-4.094-7.223-9.055-13.508-15.107-19.043c-1.93-1.766-4.113-3.27-5.456-5.603c-3.89-0.392-1.952,2.667-1.956,3.898
		c-0.121,53.448-0.118,106.896-0.105,160.347c0.011,44.957,0.053,89.912,0.081,134.869c-1.333,0-2.667,0-4,0
		c-0.042-1.83-0.119-3.66-0.119-5.491c-0.006-97.443-0.106-194.89,0.195-292.333c0.022-7.484-3.864-11.063-9.134-15.815
		c0,4.757,0,8.535,0,12.313c0.02,100.443,0.038,200.886,0.058,301.328c-1.333,0-2.667,0-4,0c-0.039-2.33-0.111-4.659-0.111-6.989
		c-0.006-95.735-0.001-191.474-0.025-287.21c0-2.305,0.433-4.666-0.505-6.912c-0.005-0.602-0.009-1.203-0.013-1.805
		c0.913-2.38,0.694-4.778,0.115-7.183c-2.37-1.618-2.129,1.171-2.508,1.822c-23.225,39.98-46.313,80.039-69.509,120.035
		c-1.468,2.53-1.627,4.7-0.877,7.487c16.205,60.235,32.309,120.497,48.432,180.753c-1.667,0-3.333,0-5,0
		c-0.206-1.136-0.331-2.293-0.628-3.403c-13.99-52.257-27.994-104.511-41.998-156.764c-1.604-5.985-3.214-11.968-5.106-19.012
		c-14.085,24.358-27.546,47.665-41.055,70.941c-0.941,1.621-0.289,2.773,0.486,4.11c20.112,34.702,40.206,69.415,60.3,104.126
		c-2,0-4,0-6,0c-0.332-0.908-0.539-1.888-1.015-2.713c-18.611-32.247-37.248-64.48-55.879-96.717
		c-0.404-0.697-0.702-1.496-1.915-1.636c-8.844,15.308-17.709,30.714-26.669,46.066c-1.009,1.729-0.707,2.943,0.22,4.533
		c9.795,16.797,19.516,33.637,29.258,50.465c-2,0-4,0-6,0c-0.155-0.621-0.179-1.316-0.485-1.853
		c-7.593-13.229-15.215-26.441-22.841-39.651c-0.318-0.552-0.685-1.15-1.673-0.678c0,14.007,0,28.094,0,42.182c-1.333,0-2.667,0-4,0
		c-0.032-1.832-0.091-3.663-0.091-5.494c-0.004-296.338-0.004-592.674,0-889.012c0-1.831,0.06-3.663,0.091-5.494
		c1.333,0,2.667,0,4,0c0,96.383,0,192.766,0,289.148c1.222-0.845,1.628-1.873,1.912-2.934
		c22.526-84.13,45.072-168.255,67.522-252.405c2.996-11.23,6.599-22.315,8.566-33.809c1.667,0,3.333,0,5,0
		c-0.183,0.975-0.298,1.967-0.555,2.922c-25.219,94.224-50.446,188.445-75.681,282.665c-0.515,1.924-1.102,3.829-2.003,6.946
		c1.298-1.388,1.718-1.699,1.958-2.113c47.146-81.742,94.26-163.5,141.482-245.198c1.491-2.58,1.232-4.322-0.142-6.687
		C412.744,25.737,405.457,12.854,398.119,0z M724.797,634.676c-26.195,26.114-52.376,52.244-78.625,78.306
		c-1.814,1.803-2.311,3.995-2.907,6.208c-6.021,22.351-12,44.713-17.987,67.071c-3.733,13.942-7.462,27.887-11.192,41.829
		c1.089-0.546,1.675-1.287,2.142-2.098c10.739-18.603,21.47-37.209,32.193-55.818c25.855-44.865,51.708-89.731,77.563-134.598
		c0.385-0.734,1.729-1.5,0.822-2.215C725.956,632.69,725.317,633.951,724.797,634.676z M583.438,825.688
		c0.457,0.644,0.915,1.287,1.372,1.933c1.025-1.101,0.194-2.025-0.277-2.985c-0.082-0.491-0.125-0.995-0.253-1.475
		c-9.485-35.534-18.982-71.065-28.457-106.604c-0.489-1.833-1.437-3.279-2.776-4.617c-25.577-25.531-51.119-51.099-76.701-76.623
		c-1.052-1.05-1.876-2.937-3.985-2.027C509.408,697.461,546.423,761.574,583.438,825.688z M442.045,53.017
		c-0.457-0.828-1.303-1.46-1.729-0.352c-0.454,1.175-0.271,2.617-0.271,3.942c-0.006,79.532-0.003,159.064,0.007,238.596
		c0,1.327-0.124,2.717,0.228,3.961c0.312,1.107,1.195,0.796,1.822,0.01c17.06-17.102,34.082-34.239,51.219-51.264
		c2.345-2.33,3.812-4.862,4.637-8.025c4.075-15.624,7.496-31.479,12.69-46.729c3.625-10.64,1.782-18.785-3.823-28.199
		C484.768,127.919,463.565,90.374,442.045,53.017z M422.688,52.915c-2.32-1.325-2.122,1.184-2.58,1.973
		c-23.223,40.033-46.335,80.13-69.551,120.168c-1.465,2.528-1.632,4.724-0.881,7.506c14.484,53.689,28.868,107.405,43.298,161.109
		c0.272,1.012-0.03,2.421,1.764,2.893c8.968-9.657,19.092-18.345,27.741-28.488c0.926-2.075,0.5-4.271,0.5-6.408
		c0.021-83.096,0.02-166.193,0.002-249.289C422.979,59.224,422.789,56.069,422.688,52.915z M926.197,824.888
		c-0.012,0.854,0.021,1.89,0.9,2.132c1.365,0.378,1.064-0.901,1.077-1.573c0.046-2.33-0.043-4.661-0.043-6.992
		c-0.003-164.511-0.001-329.021-0.006-493.532c0-1.328,0.181-2.731-0.185-3.963c-0.372-1.251-1.172-0.679-1.692,0.133
		c-16.937,29.438-33.815,58.908-50.887,88.268c-1.876,3.226-2.081,5.06,0.853,7.861c10,9.551,19.514,19.609,29.49,29.186
		c2.924,2.806,3.186,4.188,0.128,7.194c-19.838,19.515-39.418,39.289-59.147,58.913c-2.03,2.021-3.065,3.705-2.209,6.884
		c19.118,70.906,38.112,141.85,57.088,212.796C909.825,763.077,917.989,793.988,926.197,824.888z M903.173,450.662
		c-1.675-1.804-2.737-3.025-3.88-4.167c-98.485-98.521-196.995-197.018-295.385-295.635c-3.193-3.201-4.629-2.888-7.618,0.107
		c-98.515,98.726-197.118,197.364-295.781,295.941c-2.416,2.414-2.629,3.645-0.102,6.169
		C399.209,551.76,497.951,650.503,596.59,749.35c3.093,3.101,4.469,2.604,7.263-0.198c56.95-57.107,114.012-114.105,171.044-171.132
		c41.478-41.471,82.943-82.952,124.438-124.406C900.384,452.565,901.701,451.782,903.173,450.662z M272.248,826.203
		c1.488-0.665,1.427-1.977,1.703-3.007c27.13-101.324,54.217-202.659,81.42-303.964c0.808-3.009,0.298-4.789-1.861-6.931
		c-19.76-19.591-39.361-39.34-59.132-58.921c-2.473-2.449-3.074-3.73-0.162-6.513c10.118-9.665,19.788-19.796,29.832-29.54
		c2.458-2.385,2.765-3.965,0.976-7.031c-16.956-29.04-33.699-58.204-50.538-87.313c-0.504-0.871-0.567-2.402-2.238-2.137
		C272.248,489.274,272.248,657.669,272.248,826.203z M778.248,52.226c-0.335,0.127-0.669,0.254-1.003,0.381
		c0,0.637-0.001,1.273-0.001,1.91c0.005,83.826,0.137,167.651-0.178,251.476c-0.032,8.576,1.519,15.156,8.506,20.571
		c4.834,3.746,8.733,8.681,13.172,12.96c2.297,2.215,4.181,4.956,7.189,6.615c0.364-0.821,0.629-1.255,0.756-1.727
		c14.571-54.367,29.109-108.742,43.771-163.084c0.657-2.435,0.014-4.06-1.107-5.997c-17.683-30.55-35.31-61.131-52.953-91.702
		C790.355,73.156,784.298,62.692,778.248,52.226z M277.727,826.605c0.34,0.131,0.68,0.262,1.02,0.394
		c0.35-0.53,0.73-1.044,1.047-1.593c46.599-80.763,93.172-161.538,139.875-242.239c1.607-2.777,0.718-3.968-1.096-5.769
		c-16.667-16.562-33.296-33.16-49.857-49.826c-2.656-2.673-4.921-5.734-7.367-8.617c-0.481,0.318-0.964,0.638-1.446,0.956
		C332.511,622.143,305.119,724.373,277.727,826.605z M839.789,519.372c-19.826,19.852-38.829,38.991-58.012,57.95
		c-2.498,2.47-2.658,4.028-0.904,7.061c46.513,80.401,92.9,160.875,139.327,241.326c0.405,0.705,0.606,1.75,2.181,1.901
		C894.873,724.952,867.446,622.592,839.789,519.372z M758.869,299.678c0-83.033,0-165.075,0-247.671
		c-0.747,0.853-1.123,1.165-1.354,1.562c-23.441,40.654-46.856,81.324-70.353,121.948c-1.286,2.225-1.416,4.193-0.767,6.59
		c5.322,19.596,10.562,39.215,15.793,58.835c0.438,1.645,1.051,3.098,2.289,4.335C722.388,263.161,740.273,281.071,758.869,299.678z
		 M345.599,184.833c-0.754,0.675-1.199,0.915-1.415,1.288c-13.141,22.767-26.233,45.562-39.438,68.292
		c-1.11,1.911-0.857,3.193,0.164,4.955c21.111,36.417,42.193,72.852,63.166,109.35c1.599,2.782,2.452,2.104,4.172,0.306
		c4.487-4.692,8.956-9.431,13.784-13.758c3.212-2.879,3.998-5.437,2.798-9.841C374.306,292.129,360.066,238.757,345.599,184.833z
		 M854.689,184.562c-0.532,1.153-0.719,1.44-0.804,1.753c-14.467,53.815-28.912,107.637-43.438,161.437
		c-0.628,2.324,0.081,3.706,1.643,5.224c5.013,4.875,10.074,9.714,14.81,14.851c2.63,2.853,3.758,2.922,5.819-0.679
		c20.505-35.794,41.158-71.503,61.912-107.153c1.515-2.601,1.253-4.329-0.161-6.711c-5.688-9.582-11.168-19.288-16.744-28.937
		C870.172,211.279,862.6,198.222,854.689,184.562z M330.433,410.785c11.181-11.184,21.917-22.096,32.89-32.769
		c2.465-2.398,2.774-3.935,0.973-7.024c-19.211-32.93-38.215-65.981-57.285-98.994c-1.971-3.412-3.996-6.792-6.253-10.623
		c-8.989,15.574-17.565,30.604-26.358,45.507c-1.567,2.657-1.466,4.567,0.048,7.16c12.095,20.699,24.043,41.483,36.038,62.24
		C317.054,387.648,323.626,399.012,330.433,410.785z M899.044,261.282c-21.633,37.438-42.759,74.032-63.954,110.585
		c-1.105,1.908-1.083,3.062,0.551,4.672c10.675,10.52,21.285,21.104,31.79,31.792c1.964,1.998,2.613,1.431,3.805-0.639
		c18.247-31.729,36.558-63.423,54.883-95.107c0.803-1.388,1.145-2.443,0.202-4.058C917.296,293.053,908.39,277.51,899.044,261.282z
		 M562.981,721.818c-0.283,0.164-0.565,0.33-0.849,0.494c9.299,34.645,18.598,69.287,27.896,103.932
		c0.948-24.822,0.937-49.422,0.978-74.021c0.003-1.638-0.539-2.823-1.668-3.95C580.533,739.474,571.763,730.641,562.981,721.818z
		 M608.935,826.1c0.322-0.039,0.646-0.078,0.968-0.116c9.183-34.273,18.364-68.548,27.548-102.82
		c-9.793,8.471-18.714,17.384-27.643,26.29c-1.237,1.234-0.858,2.794-0.861,4.254c-0.022,9.327-0.012,18.654-0.012,27.98
		C608.935,796.491,608.935,811.295,608.935,826.1z M503.205,237.807c9.767-9.746,18.56-18.526,27.366-27.295
		c0.869-0.865,1.481-1.552,0.651-2.947c-4.464-7.502-8.813-15.072-13.662-23.405C512.703,202.313,508.125,219.417,503.205,237.807z
		 M682.252,184.066c-2.806,4.879-5.063,8.726-7.243,12.616c-2.254,4.021-6.571,8.391-6.049,12.044
		c0.534,3.728,5.857,6.77,9.081,10.114c5.678,5.892,11.354,11.787,17.03,17.681c0.334-0.28,0.668-0.56,1.001-0.839
		C691.578,218.894,687.083,202.105,682.252,184.066z"/>
	<path fill="#D5C8AC" d="M976.119,900c-1.667,0-3.333,0-5,0c-8.133-14.229-16.268-28.455-25-43.733c0,15.563,0,29.647,0,43.733
		c-1.667,0-3.333,0-5,0c0-300,0-600,0-900c1.333,0,2.667,0,4,0c0.045,1.497,0.13,2.993,0.13,4.49
		c0.004,88.399-0.015,176.799,0.03,265.198c0.003,6.14-0.522,12.302,0.386,18.426c0.093,0.138,0.167,0.296,0.285,0.408
		c0.101,0.096,0.313,0.229,0.37,0.19c1.537-1.048,1.313-2.846,1.711-4.329c12.04-44.815,24.043-89.641,36.031-134.471
		C997.424,99.944,1010.768,49.971,1024.119,0c1.667,0,3.333,0,5,0c-0.575,1.913-1.201,3.812-1.718,5.74
		c-22.229,82.97-44.446,165.942-66.663,248.915c-3.217,12.01-6.422,24.022-9.94,37.188c1.244-1.348,1.747-1.728,2.037-2.229
		c22.631-39.197,45.235-78.41,67.864-117.609c24.298-42.092,48.624-84.167,72.906-126.268c1.01-1.75,2.643-3.251,1.089-5.833
		c-7.966-13.236-15.736-26.59-23.575-39.903c2,0,4,0,6,0c5.99,10.612,11.98,21.225,17.973,31.837c0.342-0.18,0.686-0.36,1.027-0.541
		c0-10.432,0-20.865,0-31.297c1.333,0,2.667,0,4,0c0.038,1.998,0.109,3.995,0.109,5.993c0.006,296.005,0.006,592.009,0,888.014
		c0,1.998-0.071,3.995-0.109,5.993c-1.333,0-2.667,0-4,0c0-103.588,0-207.176,0-311.84c-1.196,1.428-1.577,1.768-1.82,2.188
		c-23.455,40.649-46.865,81.324-70.426,121.912c-1.459,2.513-1.229,4.592-0.574,7.021c10.663,39.701,21.277,79.419,31.977,119.11
		c5.54,20.557,11.226,41.073,16.845,61.608c-1.667,0-3.333,0-5,0c-15.916-59.388-31.833-118.775-47.938-178.861
		c-0.966,1.388-1.478,2.019-1.879,2.713c-12.896,22.324-25.737,44.683-38.739,66.946c-1.352,2.314-0.825,3.783,0.346,5.802
		c15.522,26.765,31.012,53.547,46.396,80.392c4.364,7.614,9.269,14.938,12.814,23.01c-1.667,0-3.333,0-5,0
		c-19.345-33.563-38.687-67.123-58.05-100.673c-0.104-0.18-0.519-0.18-0.911-0.301c-7.886,13.244-15.536,26.639-23.761,39.669
		c-3.671,5.813-4.656,10.82,0.146,16.286c1.292,1.471,2.067,3.402,3.035,5.148C960.98,873.484,969.354,886.287,976.119,900z
		 M945.786,323.902c-1.043,2.918-0.515,5.945-0.515,8.913c-0.027,157.267-0.021,314.536,0.007,471.803
		c0.002,7.146,0.211,14.291,0.323,21.437c1.92,0.198,1.47-1.442,1.731-2.383c1.526-5.45,2.967-10.925,4.432-16.393
		c28.742-107.26,57.484-214.52,86.228-321.778c0.681-2.542,1.305-4.764-0.313-7.546c-29.838-51.395-59.515-102.882-89.291-154.312
		c-0.613-1.062-0.533-3.194-2.772-2.763c-0.079,0.136-0.247,0.293-0.22,0.403c0.069,0.29,0.226,0.559,0.348,0.835
		C945.757,322.714,945.771,323.308,945.786,323.902z M1095.949,51.157c-1.227,1.957-1.687,2.642-2.098,3.354
		c-22.897,39.64-45.744,79.312-68.768,118.879c-2.083,3.58-2.529,6.624-1.444,10.655c23.639,87.781,47.123,175.603,70.658,263.411
		c0.277,1.033,0.187,2.372,1.65,2.811C1095.949,317.684,1095.949,185.145,1095.949,51.157z M951.04,827.682
		c0.197,0.081,0.396,0.162,0.592,0.244c0.485-0.634,1.048-1.222,1.443-1.906c46.85-81.146,93.67-162.309,140.599-243.407
		c1.635-2.826,1.717-4.793,0.059-7.623c-12.704-21.683-25.222-43.476-37.806-65.228c-4.313-7.456-8.651-14.896-13.481-23.215
		C1011.801,600.91,981.42,714.296,951.04,827.682z M974.502,261.293c-9.035,15.605-17.515,30.486-26.281,45.196
		c-1.799,3.018-1.531,5.141,0.129,8.009c48.438,83.701,96.79,167.45,145.195,251.17c0.567,0.979,0.583,2.732,2.565,2.551
		c0-30.528-0.037-61.012,0.054-91.494c0.01-3.289-0.736-6.09-2.384-8.935c-26.611-45.949-53.144-91.943-79.691-137.928
		C1001.029,307.242,987.97,284.622,974.502,261.293z M1019.111,184.078c-13.769,23.823-26.765,46.484-40.002,69.001
		c-1.729,2.938-1.395,4.865,0.177,7.577c36.207,62.522,72.324,125.1,108.485,187.649c0.498,0.862,0.579,2.296,2.666,2.192
		C1066.739,361.978,1043.081,273.611,1019.111,184.078z"/>
	<path fill="#D5C8AC" d="M103.119,900c-1.333,0-2.667,0-4,0c0-300,0-600,0-900c1.667,0,3.333,0,5,0c0,10.501,0,21.001,0,32.65
		c6.708-11.526,12.854-22.088,19-32.65c1.667,0,3.333,0,5,0c-7.282,12.702-14.495,25.444-21.901,38.073
		c-1.569,2.676-1.902,4.59-0.184,7.559c47.197,81.543,94.253,163.167,141.321,244.785c0.295,0.512,0.432,1.115,0.642,1.675
		c0.317-3.168-0.345-5.54-0.983-7.918c-19.494-72.679-39.007-145.352-58.463-218.041C182.656,44.111,176.925,22.045,171.119,0
		c1.667,0,3.333,0,5,0c-0.524,1.547,0.192,2.939,0.573,4.362c25.217,94.193,50.44,188.384,75.689,282.569
		c0.232,0.867,0.184,2.069,1.738,2.324c0-96.452,0-192.854,0-289.255c1.333,0,2.667,0,4,0c0.007,11.494,0.021,22.987,0.021,34.481
		c-0.006,288.506-0.014,577.013-0.021,865.519c-1.333,0-2.667,0-4,0c0-14.139,0-28.278,0-42.418
		c-6.019,8.516-11.142,17.17-16.047,25.946c-3.048,5.453-6.832,10.515-8.953,16.472c-2,0-4,0-6,0
		c9.585-16.578,19.125-33.182,28.808-49.702c1.353-2.306,1.485-4.009,0.017-6.325c-3.117-4.918-5.888-10.055-8.806-15.099
		c-5.802-10.028-11.608-20.055-17.373-30.015c-1.731,0.534-1.941,1.847-2.491,2.797c-14.093,24.355-28.209,48.699-42.168,73.134
		c-4.766,8.343-10.194,16.325-13.986,25.21c-2,0-4,0-6,0c19.985-34.57,39.929-69.166,60.035-103.666
		c1.627-2.793,0.63-4.522-0.653-6.737c-12.513-21.595-24.958-43.228-37.481-64.816c-0.588-1.015-0.642-2.742-2.645-2.683
		c-11.436,42.721-22.909,85.449-34.303,128.199c-4.409,16.544-8.641,33.135-12.954,49.703c-1.667,0-3.333,0-5,0
		c0.128-0.65,0.219-1.313,0.391-1.951c15.957-59.631,31.899-119.266,47.948-178.871c0.756-2.809,0.541-4.973-0.937-7.479
		c-7.261-12.328-14.326-24.771-21.475-37.166c-15.959-27.666-31.917-55.335-47.955-82.957c-0.432-0.743-0.229-3.38-2.519-1.673
		c-0.12,2.15-0.342,4.304-0.343,6.454c-0.018,77.909-0.008,155.818-0.019,233.729C103.207,853.39,103.15,876.695,103.119,900z
		 M103.879,471.938c-1.126,1.848-0.637,3.896-0.64,5.852c-0.037,22.617-0.05,45.235-0.01,67.854
		c0.013,7.475,0.2,14.947,0.307,22.422c2.634,1.085,2.231-1.586,2.79-2.548c22.462-38.723,44.826-77.503,67.204-116.274
		c25.957-44.973,51.923-89.94,77.842-134.934c0.992-1.722,2.781-3.196,1.248-5.813c-9.058-15.461-17.953-31.017-27.164-46.995
		c-1.158,1.806-2.092,3.141-2.903,4.547c-15.476,26.81-30.944,53.624-46.4,80.444C152.057,388.304,127.97,430.123,103.879,471.938z
		 M103.473,450.033c2.735,0.05,1.899-2.395,2.234-3.642c23.619-87.951,47.123-175.932,70.753-263.88
		c0.822-3.061,0.363-5.317-1.174-7.921c-6.519-11.037-12.854-22.182-19.257-33.288c-16.546-28.7-33.076-57.409-49.723-86.05
		c-0.51-0.877-0.12-3.768-2.812-2.308c-0.094,1.656-0.269,3.311-0.269,4.967c-0.011,129.218-0.009,258.436,0.004,387.654
		C103.229,447.056,103.388,448.544,103.473,450.033z M253.905,319.698c-1.072,1.612-1.624,2.352-2.083,3.146
		c-29.752,51.459-59.472,102.938-89.309,154.347c-1.7,2.93-1.54,5.42-0.722,8.465c30.181,112.418,60.287,224.854,90.434,337.28
		c0.297,1.106,0.104,2.623,1.68,3.103C253.905,657.577,253.905,489.196,253.905,319.698z M157.495,486.93
		c-0.95,1.288-1.368,1.756-1.675,2.287c-16.752,28.957-33.462,57.939-50.304,86.846c-1.333,2.287-0.902,3.763,0.285,5.814
		c46.656,80.688,93.25,161.408,139.875,242.113c0.614,1.063,0.822,2.528,2.953,3.081
		C218.278,713.791,188.017,600.848,157.495,486.93z M108.607,453.382c1.259-1.474,1.643-1.804,1.882-2.218
		c36.855-63.836,73.682-127.69,110.618-191.48c1.442-2.49,0.962-4.109-0.308-6.295c-12.627-21.723-25.152-43.505-37.749-65.245
		c-0.606-1.046-0.71-2.668-2.648-2.835C156.608,274.149,132.816,362.988,108.607,453.382z M104.595,451.727
		c-0.093-0.302-0.181-0.586-0.268-0.871c-0.264,0.086-0.759,0.193-0.753,0.252c0.039,0.384,0.186,0.756,0.297,1.132
		C104.113,452.066,104.355,451.896,104.595,451.727z"/>
	<path fill="#194B55" d="M777.119,900c0.046-1.831,0.132-3.662,0.132-5.492c0.013-99.492,0.019-198.981,0.025-298.475
		c0-2.479,0-4.956,0-7.492c1.08-0.107,1.368,0.949,1.841,1.766c23.305,40.38,46.602,80.765,69.924,121.133
		c1.261,2.184,2.125,4.057,1.354,6.914c-15.976,59.163-31.783,118.371-47.675,177.56c-0.372,1.389-0.308,3.028-1.601,4.088
		C793.119,900,785.119,900,777.119,900z"/>
	<path fill="#194B55" d="M1138.119,900c-8,0-16,0-24,0c0-103.573,0-207.146,0-311.881c1.272,1.504,1.658,1.841,1.9,2.26
		c23.455,40.646,46.864,81.321,70.437,121.902c1.481,2.551,1.154,4.615,0.506,7.031c-11.647,43.397-23.253,86.809-34.939,130.196
		C1147.48,866.365,1142.758,883.172,1138.119,900z"/>
	<path fill="#194B55" d="M1072.119,900c-5.619-20.535-11.305-41.053-16.845-61.608c-10.698-39.691-21.313-79.408-31.977-119.11
		c-0.653-2.43-0.885-4.508,0.574-7.021c23.561-40.588,46.971-81.263,70.426-121.912c0.243-0.42,0.624-0.76,1.82-2.188
		c0,104.664,0,208.252,0,311.84C1088.119,900,1080.119,900,1072.119,900z"/>
	<path fill="#194B55" d="M398.119,900c-16.123-60.256-32.228-120.518-48.432-180.753c-0.75-2.787-0.591-4.957,0.877-7.487
		c23.195-39.996,46.284-80.055,69.509-120.035c0.379-0.651,0.138-3.44,2.508-1.822c-0.66,2.384-0.51,4.781-0.115,7.183
		c0.004,0.602,0.008,1.203,0.013,1.805c-0.105,2.32-0.303,4.642-0.304,6.961c-0.028,98.051-0.042,196.101-0.056,294.15
		C414.119,900,406.119,900,398.119,900z"/>
	<path fill="#194B55" d="M103.572,589.901c2.29-1.707,2.087,0.93,2.519,1.673c16.037,27.622,31.995,55.291,47.955,82.957
		c7.149,12.395,14.214,24.838,21.475,37.166c1.478,2.508,1.692,4.672,0.937,7.479c-16.049,59.605-31.991,119.24-47.948,178.871
		c-0.171,0.639-0.262,1.301-0.391,1.951c-8,0-16,0-24,0c-0.02-2.33-0.057-4.661-0.057-6.991
		c-0.004-98.894-0.002-197.786-0.026-296.68C104.035,594.188,103.733,592.044,103.572,589.901z"/>
	<path fill="#194B55" d="M85.119,900c-8,0-16,0-24,0c-0.189-0.975-0.319-1.965-0.575-2.921
		C44.878,838.6,29.25,780.111,13.432,721.674c-1.217-4.497-0.923-7.996,1.483-12.085c13.917-23.646,27.496-47.494,41.252-71.235
		c9.659-16.67,19.419-33.279,29.135-49.916c-0.001,102.692-0.001,205.386-0.01,308.078C85.292,897.677,85.179,898.838,85.119,900z"
		/>
	<path fill="#194B55" d="M735.119,900c-10.942-40.68-21.895-81.355-32.822-122.039c-5.271-19.617-10.437-39.263-15.814-58.85
		c-0.775-2.83-0.411-5.004,1.021-7.48c17.692-30.541,35.181-61.201,53-91.668c4.455-7.615,11.929-12.656,17.921-19.119
		c1.229,1.438,0.77,2.638,0.771,3.717c0.026,97.481,0.026,194.964,0.023,292.444c0,0.998-0.064,1.997-0.1,2.995
		C751.119,900,743.119,900,735.119,900z"/>
	<path fill="#194B55" d="M442.1,600.886c1.343,2.333,3.525,3.837,5.456,5.603c6.053,5.535,11.014,11.82,15.107,19.043
		c16.338,28.816,33.018,57.441,49.666,86.083c1.442,2.481,1.79,4.588,1.019,7.446c-15.904,58.994-31.682,118.023-47.469,177.051
		c-0.34,1.272-0.51,2.593-0.759,3.89c-8,0-16,0-24,0c-0.107-0.988-0.311-1.977-0.311-2.966
		c-0.014-97.247-0.018-194.493,0.031-291.741C440.841,603.802,440.008,601.865,442.1,600.886z"/>
	<path fill="#194B55" d="M171.119,0c5.806,22.045,11.538,44.111,17.432,66.132c19.456,72.689,38.969,145.362,58.463,218.041
		c0.638,2.378,1.301,4.75,0.983,7.918c-0.21-0.56-0.347-1.163-0.642-1.675C200.287,208.8,153.231,127.175,106.034,45.632
		c-1.719-2.969-1.385-4.883,0.184-7.559C113.624,25.444,120.837,12.702,128.119,0C142.452,0,156.785,0,171.119,0z"/>
	<path fill="#194B55" d="M1071.119,0c7.839,13.313,15.609,26.667,23.575,39.903c1.554,2.582-0.079,4.083-1.089,5.833
		c-24.282,42.101-48.608,84.176-72.906,126.268c-22.629,39.199-45.233,78.412-67.864,117.609c-0.29,0.503-0.793,0.883-2.037,2.229
		c3.519-13.166,6.726-25.179,9.94-37.188c22.217-82.972,44.436-165.945,66.663-248.915c0.517-1.928,1.143-3.828,1.718-5.74
		C1043.119,0,1057.119,0,1071.119,0z"/>
	<path fill="#194B55" d="M398.119,0c7.338,12.854,14.625,25.737,22.061,38.535c1.374,2.365,1.633,4.107,0.142,6.687
		c-47.223,81.697-94.338,163.456-141.482,245.198c-0.239,0.415-0.66,0.725-1.958,2.113c0.901-3.117,1.488-5.021,2.003-6.946
		c25.234-94.22,50.462-188.441,75.681-282.665c0.256-0.955,0.373-1.947,0.555-2.922C369.452,0,383.785,0,398.119,0z"/>
	<path fill="#194B55" d="M844.119,0c5.588,20.382,11.271,40.738,16.747,61.149c19.89,74.135,39.709,148.288,59.555,222.435
		c0.464,1.736,1.253,3.419,0.933,5.543c-1.83-0.341-2.077-1.974-2.722-3.088C872.25,205.737,825.902,125.415,779.507,45.12
		c-1.174-2.032-1.635-3.597-0.288-5.865c7.735-13.025,15.286-26.158,22.9-39.255C816.119,0,830.119,0,844.119,0z"/>
	<path fill="#194B55" d="M254.119,0c0,96.401,0,192.803,0,289.255c-1.555-0.255-1.506-1.457-1.738-2.324
		c-25.249-94.185-50.472-188.376-75.689-282.569c-0.381-1.423-1.097-2.815-0.573-4.362C202.119,0,228.119,0,254.119,0z"/>
	<path fill="#194B55" d="M350.119,0c-1.968,11.494-5.57,22.579-8.566,33.809c-22.451,84.15-44.997,168.275-67.521,252.405
		c-0.284,1.061-0.689,2.089-1.912,2.934c0-96.382,0-192.765,0-289.148C298.119,0,324.119,0,350.119,0z"/>
	<path fill="#194B55" d="M1024.119,0c-13.352,49.971-26.694,99.944-40.057,149.913c-11.988,44.83-23.991,89.655-36.031,134.471
		c-0.398,1.482-0.174,3.28-1.711,4.329c-0.058,0.039-0.271-0.095-0.37-0.19c-0.118-0.112-0.192-0.27-0.285-0.408
		c0.144-3.314,0.409-6.628,0.41-9.943c0.03-92.725,0.035-185.448,0.044-278.172C972.119,0,998.119,0,1024.119,0z"/>
	<path fill="#194B55" d="M926.153,287.981c-8.036-30.241-16.024-60.495-24.118-90.721C884.425,131.499,866.76,65.752,849.119,0
		c26,0,52,0,78,0c0.062,0.828,0.178,1.656,0.178,2.484c0.016,93.839,0.024,187.679,0.001,281.519
		C927.297,285.379,927.957,287.071,926.153,287.981z"/>
	<path fill="#194B55" d="M507.119,0c4.808,13.991,8.041,28.425,11.896,42.681c12.332,45.609,24.464,91.271,36.785,136.883
		c0.867,3.208,0.62,5.375-1.933,7.811c-6.126,5.846-11.883,12.081-18.239,18.622c-6.318-10.89-12.242-21.052-18.121-31.24
		c-24.857-43.075-49.676-86.172-74.616-129.199c-1.523-2.63-1.616-4.455-0.025-7.128c7.565-12.722,14.861-25.604,22.254-38.43
		C479.119,0,493.119,0,507.119,0z"/>
	<path fill="#194B55" d="M735.119,0c7.371,13.008,14.688,26.048,22.166,38.994c1.225,2.12,1.352,3.627,0.079,5.823
		c-30.698,52.974-61.312,105.999-91.942,159.013c-0.164,0.285-0.377,0.542-1.035,1.475c-6.921-6.979-13.775-13.839-20.562-20.769
		c-1.663-1.699-0.121-3.519,0.314-5.154c15.074-56.427,30.212-112.837,45.333-169.251c0.903-3.371,1.766-6.753,2.646-10.13
		C706.453,0,720.786,0,735.119,0z"/>
	<path fill="#D5C8AC" d="M1138.119,900c4.64-16.828,9.362-33.635,13.902-50.49c11.688-43.389,23.291-86.799,34.939-130.197
		c0.648-2.416,0.976-4.479-0.506-7.03c-23.571-40.581-46.98-81.256-70.438-121.902c-0.241-0.419-0.627-0.756-1.899-2.26
		c0,104.733,0,208.308,0,311.881c-1.333,0-2.667,0-4,0c-0.029-1.832-0.083-3.663-0.083-5.494
		c-0.004-296.338-0.004-592.674,0-889.011c0-1.832,0.054-3.663,0.083-5.495c1.333,0,2.667,0,4,0c0,10.513,0,21.025,0,31.538
		c0.386,0.102,0.771,0.204,1.155,0.306c5.947-10.615,11.896-21.229,17.845-31.844c2,0,4,0,6,0
		c-7.813,13.304-15.563,26.646-23.502,39.875c-1.393,2.32-0.186,3.734,0.78,5.405c27.096,46.927,54.197,93.851,81.328,140.757
		c0.629,1.084,0.847,2.587,2.394,2.963c0,3.333,0,6.667,0,10c-2.807-4.636-5.611-9.271-8.89-14.688
		c-24.115,89.915-48.017,179.023-71.967,268.319c1.61-0.521,1.856-1.771,2.406-2.723c25.291-43.8,50.555-87.616,75.857-131.409
		c0.718-1.243,1.017-2.866,2.592-3.5c0,3,0,6,0,9c-0.522,0.623-1.152,1.184-1.553,1.876
		c-27.662,47.861-55.291,95.742-82.998,143.577c-1.264,2.18-1.424,4.341-1.423,6.682c0.017,29.164,0.013,58.328,0.014,87.492
		c0,1.576,0,3.152,0,4.905c2.038-0.524,2.166-2.057,2.772-3.104c16.688-28.815,33.304-57.678,49.995-86.492
		c11.012-19.01,22.124-37.959,33.191-56.936c0,3.333,0,6.667,0,10c-0.826-0.125-1.166,0.493-1.484,1.044
		c-8.823,15.284-17.586,30.604-26.509,45.831c-1.231,2.1-0.544,3.783-0.038,5.674c7.541,28.146,15.021,56.31,22.666,84.426
		c1.644,6.043,2.459,12.354,5.365,18.025c0,6.334,0,12.666,0,19c-0.525-1.537-1.144-3.051-1.563-4.617
		c-9.819-36.664-19.614-73.336-29.43-110.002c-0.35-1.302-0.856-2.561-1.35-4.01c-0.577,0.578-0.87,0.77-1.026,1.041
		c-16.926,29.247-33.806,58.521-50.822,87.716c-1.368,2.347-0.771,3.875,0.378,5.861c25.084,43.372,50.09,86.79,75.219,130.136
		c2.725,4.697,4.876,9.781,8.594,13.875c0,3,0,6,0,9c-3.73-3.725-5.145-9.04-8.979-13.445c-4.081,15.146-8.021,29.752-11.951,44.361
		c-12.024,44.693-24.048,89.389-36.071,134.084C1141.452,900,1139.786,900,1138.119,900z M1114.186,450.43
		c1.545-0.695,1.521-1.807,1.763-2.706c23.704-88.463,47.378-176.935,71.134-265.384c0.752-2.801,0.403-4.94-1.045-7.437
		c-23.136-39.897-46.161-79.859-69.264-119.776c-0.559-0.965-0.571-2.768-2.589-2.499
		C1114.186,185.135,1114.186,317.6,1114.186,450.43z"/>
	<path fill="#D5C8AC" d="M85.302,588.438c-9.715,16.637-19.476,33.246-29.135,49.916c-13.757,23.741-27.335,47.589-41.252,71.235
		c-2.406,4.089-2.7,7.588-1.483,12.085C29.25,780.111,44.878,838.6,60.543,897.079c0.256,0.956,0.386,1.946,0.575,2.921
		c-1.667,0-3.333,0-5,0c-0.197-1.296-0.271-2.624-0.608-3.883c-14.634-54.688-29.292-109.371-43.948-164.055
		c-0.909-3.392-1.839-6.774-3.007-11.074C5.344,726.321,2.731,730.66,0.119,735c0-3.334,0-6.666,0-10
		c1.003-0.084,1.286-0.938,1.685-1.628c27.298-47.241,54.563-94.501,81.954-141.688c1.444-2.487,0.947-4.071-0.316-6.248
		c-15.622-26.899-31.156-53.852-46.717-80.786c-1.368-2.367-2.771-4.714-4.549-7.736c-0.55,1.397-0.832,1.948-0.988,2.531
		c-7.015,26.194-13.941,52.416-21.06,78.582C6.858,580.035,4.204,592.218,0.119,604c0-6.334,0-12.666,0-19
		c1.67-0.773,1.413-2.515,1.771-3.844c7.59-28.226,14.603-56.617,22.903-84.629c3.261-11.006,3.072-19.937-3.766-29.562
		C13.181,455.923,7.665,443.324,0.119,432c0-3,0-6,0-9c1.225,0.475,1.503,1.7,2.066,2.674
		c26.779,46.346,53.537,92.703,80.349,139.031c0.87,1.503,1.173,3.568,3.255,4.172c0.685-1.38,0.333-2.74-0.077-4.099
		c0.003-0.516,0.007-1.028,0.011-1.542c0.129-0.982,0.37-1.963,0.371-2.944c0.023-28.353,0.03-56.704-0.001-85.056
		c-0.001-1.119-0.39-2.236-0.598-3.354C57.5,423.344,29.506,374.807,1.489,326.283c-0.299-0.519-0.906-0.86-1.369-1.284c0-3,0-6,0-9
		c1.826,0.621,2.096,2.479,2.884,3.84c21.786,37.603,43.516,75.238,65.261,112.865c3.723,6.442,7.469,12.87,11.204,19.303
		c0.28-0.119,0.561-0.237,0.841-0.357c-23.82-88.816-47.64-177.633-71.675-267.25C5.497,189.411,2.809,193.705,0.12,198
		c0-3.333,0-6.667,0-10c1.336,0.13,1.525-1.039,1.98-1.826C29.327,139.026,56.521,91.856,83.821,44.75
		c1.317-2.271,0.988-3.811-0.196-5.839C76.068,25.973,68.61,12.977,61.119,0c1.667,0,3.333,0,5,0
		c6.295,10.702,12.591,21.404,19.417,33.006C86.073,21.163,85.079,10.565,86.119,0c1.333,0,2.667,0,4,0
		c0.033,1.665,0.095,3.329,0.095,4.994c0.004,296.671,0.004,593.342,0,890.013c0,1.664-0.062,3.329-0.095,4.993
		c-1.333,0-2.667,0-4,0c-0.002-102.512,0-205.021-0.054-307.534C86.064,591.145,86.968,589.5,85.302,588.438z M84.128,52.956
		c-23.417,40.653-46.813,81.318-70.3,121.931c-1.436,2.482-1.819,4.584-1.047,7.445C28.517,240.65,44.144,298.998,59.753,357.35
		c8.169,30.538,16.265,61.096,24.393,91.645c-0.029,0.837-0.109,1.847,0.752,2.201c1.313,0.539,1.177-0.669,1.246-1.389
		c0.079-0.825-0.01-1.663-0.01-2.497c-0.006-130.148-0.01-260.299-0.019-390.447c0-1.496,0.368-3.173-0.182-4.442
		C85.216,50.765,84.538,52.017,84.128,52.956z"/>
	<path fill="#194B55" d="M1200.119,726c-3.717-4.094-5.869-9.178-8.593-13.875c-25.13-43.346-50.136-86.764-75.22-130.136
		c-1.147-1.986-1.746-3.516-0.378-5.861c17.019-29.194,33.896-58.469,50.822-87.716c0.156-0.271,0.449-0.463,1.027-1.041
		c0.491,1.449,1,2.708,1.349,4.01c9.814,36.666,19.61,73.338,29.43,110.002c0.419,1.566,1.036,3.08,1.563,4.617
		C1200.119,646,1200.119,686,1200.119,726z"/>
	<path fill="#194B55" d="M0.119,604c4.085-11.782,6.74-23.965,10.007-35.975c7.119-26.166,14.045-52.388,21.06-78.582
		c0.157-0.583,0.438-1.135,0.988-2.531c1.779,3.021,3.182,5.369,4.549,7.736c15.562,26.936,31.096,53.887,46.717,80.786
		c1.264,2.177,1.761,3.761,0.316,6.248C56.365,628.871,29.1,676.13,1.802,723.371c-0.398,0.688-0.682,1.544-1.685,1.628
		C0.119,684.666,0.119,644.334,0.119,604z"/>
	<path fill="#194B55" d="M591.119,0c-0.047,48.133-0.141,96.267-0.06,144.4c0.008,3.979-1.074,6.863-3.924,9.625
		c-8.695,8.433-17.162,17.104-26.369,26.334c-2.822-10.5-5.439-20.219-8.049-29.941c-13.069-48.704-26.141-97.408-39.182-146.119
		c-0.37-1.382-1.273-2.774-0.418-4.3C539.119,0,565.119,0,591.119,0z"/>
	<path fill="#194B55" d="M687.119,0c-4.674,17.862-9.273,35.743-14.039,53.581c-10.913,40.855-21.906,81.689-32.873,122.53
		c-0.253,0.943-0.564,1.871-0.836,2.764c-1.876,0.218-2.436-1.219-3.297-2.07c-5.688-5.621-10.881-11.848-17.084-16.816
		c-8.146-6.524-10.447-14.214-10.305-24.543c0.594-43.146,0.247-86.305,0.258-129.458c0-1.995,0.114-3.991,0.176-5.986
		C635.119,0,661.119,0,687.119,0z"/>
	<path fill="#194B55" d="M1200.119,189c-1.547-0.375-1.766-1.878-2.393-2.963c-27.132-46.907-54.233-93.83-81.329-140.757
		c-0.966-1.671-2.173-3.085-0.78-5.405c7.938-13.229,15.688-26.571,23.502-39.875c14,0,28,0,42,0
		c2.033,7.362,4.071,14.723,6.098,22.086c4.305,15.637,8.603,31.275,12.902,46.914C1200.119,109,1200.119,149,1200.119,189z"/>
	<path fill="#194B55" d="M61.119,0c7.491,12.977,14.95,25.973,22.506,38.911c1.185,2.028,1.513,3.567,0.196,5.839
		c-27.3,47.106-54.494,94.276-81.722,141.424c-0.455,0.787-0.644,1.956-1.98,1.826c0-40.333,0-80.667,0-121
		c0.541-1.374,1.219-2.71,1.601-4.126c3.16-11.735,6.12-23.527,9.437-35.218C13.774,18.428,15.385,8.906,19.119,0
		C33.119,0,47.119,0,61.119,0z"/>
	<path fill="#194B55" d="M1200.119,422c-11.067,18.977-22.18,37.926-33.191,56.936c-16.69,28.814-33.307,57.677-49.995,86.492
		c-0.606,1.049-0.734,2.58-2.772,3.104c0-1.753,0-3.329,0-4.905c-0.001-29.164,0.003-58.328-0.013-87.492
		c-0.001-2.341,0.159-4.502,1.422-6.682c27.707-47.835,55.336-95.715,82.998-143.577c0.399-0.693,1.03-1.254,1.553-1.876
		C1200.119,356.667,1200.119,389.333,1200.119,422z"/>
	<path fill="#194B55" d="M85.788,568.877c-2.082-0.604-2.385-2.669-3.255-4.172c-26.812-46.328-53.57-92.686-80.349-139.031
		c-0.562-0.974-0.84-2.199-2.065-2.674c0-32.667,0-65.333,0-98c0.463,0.424,1.069,0.765,1.369,1.284
		c28.017,48.524,56.011,97.062,84.006,145.599c-0.043,29.969-0.087,59.938-0.113,89.907c0,0.481,0.223,0.964,0.342,1.446
		c-0.003,0.514-0.007,1.026-0.011,1.542C85.194,566.154,85.292,567.52,85.788,568.877z"/>
	<path fill="#194B55" d="M90.119,900c0.033-1.664,0.095-3.329,0.095-4.993c0.004-296.671,0.004-593.342,0-890.013
		c0-1.665-0.062-3.329-0.095-4.994c3,0,6,0,9,0c0,300,0,600,0,900C96.119,900,93.119,900,90.119,900z"/>
	<path fill="#194B55" d="M941.119,0c0,300,0,600,0,900c-3,0-6,0-9,0c0.045-26.982,0.129-53.966,0.129-80.949
		c0.01-270.854,0.007-541.708,0.001-812.562c0-2.163-0.085-4.326-0.13-6.489C935.119,0,938.119,0,941.119,0z"/>
	<path fill="#194B55" d="M267.119,900c-2.667,0-5.333,0-8,0c-0.05-2.163-0.144-4.326-0.144-6.489
		c-0.006-295.674-0.006-591.348,0-887.021c0-2.164,0.094-4.327,0.144-6.49c2.667,0,5.333,0,8,0c0.021,1.666,0.059,3.331,0.059,4.996
		c0.002,269.185,0.004,538.369,0,807.554C267.177,841.699,267.139,870.85,267.119,900z"/>
	<path fill="#194B55" d="M1101.119,0c2.667,0,5.333,0,8,0c0.025,1.665,0.075,3.33,0.075,4.996
		c0.004,296.669,0.004,593.339,0,890.009c0,1.665-0.05,3.33-0.075,4.995c-2.667,0-5.333,0-8,0c-0.014-1.998-0.04-3.998-0.04-5.996
		c-0.002-150.084-0.007-300.167,0-450.25C1101.085,295.835,1101.105,147.918,1101.119,0z"/>
	<path fill="#194B55" d="M133.119,900c4.313-16.568,8.544-33.159,12.954-49.703c11.394-42.75,22.867-85.479,34.303-128.199
		c2.003-0.061,2.057,1.668,2.645,2.683c12.522,21.59,24.968,43.223,37.481,64.816c1.283,2.216,2.28,3.944,0.653,6.737
		c-20.106,34.5-40.05,69.096-60.035,103.666C151.785,900,142.452,900,133.119,900z"/>
	<path fill="#194B55" d="M1038.119,900c-3.547-8.072-8.45-15.395-12.814-23.01c-15.384-26.844-30.871-53.627-46.396-80.392
		c-1.171-2.019-1.696-3.486-0.345-5.802c13.001-22.265,25.842-44.622,38.738-66.946c0.401-0.694,0.913-1.325,1.879-2.713
		c16.104,60.086,32.021,119.475,47.938,178.861C1057.452,900,1047.786,900,1038.119,900z"/>
	<path fill="#194B55" d="M807.119,900c-0.788-2.079,0.365-3.898,0.864-5.766c15.046-56.313,30.129-112.615,45.216-168.918
		c0.299-1.112,0.72-2.192,1.091-3.312c1.813,0.546,2.095,2.206,2.81,3.438c12.354,21.321,24.6,42.709,37.065,63.965
		c1.738,2.965,1.783,5.045,0.043,8.033c-19.271,33.098-38.38,66.288-57.522,99.459c-0.577,1.002-1.047,2.063-1.565,3.1
		C825.786,900,816.452,900,807.119,900z"/>
	<path fill="#194B55" d="M365.119,900c-20.096-34.711-40.188-69.424-60.3-104.126c-0.775-1.337-1.427-2.489-0.486-4.11
		c13.508-23.276,26.969-46.583,41.055-70.941c1.893,7.044,3.502,13.025,5.106,19.012c14.004,52.253,28.008,104.507,41.998,156.764
		c0.297,1.11,0.422,2.269,0.628,3.403C383.785,900,374.452,900,365.119,900z"/>
	<path fill="#194B55" d="M470.119,900c2.091-11.965,5.854-23.51,8.96-35.215c12.371-46.625,24.878-93.213,37.341-139.813
		c0.257-0.961,0.589-1.9,0.878-2.827c1.685-0.108,1.819,1.334,2.342,2.236c12.677,21.873,25.257,43.803,38.04,65.613
		c1.604,2.736,1.295,4.608-0.188,7.168C537.639,831.404,517.892,865.71,498.119,900C488.785,900,479.452,900,470.119,900z"/>
	<path fill="#194B55" d="M702.119,900c-12.883-22.113-25.785-44.216-38.645-66.344c-7.186-12.365-14.285-24.782-21.464-37.153
		c-1.014-1.747-1.866-3.073-0.534-5.349c13.27-22.683,26.367-45.461,39.512-68.215c0.236-0.41,0.438-0.841,1.207-2.328
		c3.335,12.459,6.328,23.616,9.309,34.776c12.873,48.203,25.744,96.407,38.615,144.611C720.786,900,711.453,900,702.119,900z"/>
	<path fill="#194B55" d="M1200.119,315c-1.575,0.634-1.874,2.257-2.592,3.5c-25.304,43.793-50.566,87.608-75.857,131.409
		c-0.55,0.953-0.796,2.201-2.406,2.723c23.95-89.296,47.852-178.405,71.967-268.319c3.277,5.416,6.084,10.052,8.89,14.688
		C1200.119,237.667,1200.119,276.333,1200.119,315z"/>
	<path fill="#194B55" d="M0.119,198c2.689-4.295,5.377-8.589,8.515-13.601c24.035,89.618,47.855,178.434,71.675,267.25
		c-0.281,0.121-0.561,0.239-0.841,0.358c-3.735-6.434-7.481-12.86-11.204-19.303C46.519,395.078,24.789,357.443,3.003,319.84
		c-0.789-1.361-1.058-3.219-2.884-3.84C0.119,276.667,0.119,237.333,0.119,198z"/>
	<path fill="#194B55" d="M1143.119,900c12.022-44.695,24.046-89.391,36.071-134.084c3.931-14.609,7.87-29.215,11.95-44.361
		c3.834,4.405,5.247,9.722,8.979,13.445c0,38.666,0,77.334,0,116c-2.407,4.074-4.898,8.102-7.205,12.231
		c-6.868,12.292-14.568,24.113-20.795,36.769C1162.452,900,1152.786,900,1143.119,900z"/>
	<path fill="#194B55" d="M0.119,735c2.613-4.34,5.226-8.679,8.437-14.012c1.168,4.3,2.098,7.684,3.007,11.073
		c14.657,54.685,29.314,109.366,43.948,164.056c0.337,1.259,0.411,2.587,0.608,3.883c-9.333,0-18.667,0-28,0
		c-9.333-16-18.667-32-28-48C0.119,813,0.119,774,0.119,735z"/>
	<path fill="#194B55" d="M976.119,900c-6.766-13.713-15.139-26.516-22.54-39.869c-0.967-1.746-1.743-3.679-3.035-5.147
		c-4.803-5.467-3.815-10.474-0.146-16.287c8.225-13.03,15.876-26.425,23.761-39.669c0.394,0.122,0.808,0.122,0.911,0.301
		c19.363,33.55,38.706,67.111,58.05,100.673C1014.119,900,995.119,900,976.119,900z"/>
	<path fill="#194B55" d="M167.119,900c3.792-8.885,9.22-16.867,13.986-25.21c13.958-24.435,28.075-48.777,42.168-73.134
		c0.55-0.95,0.76-2.263,2.491-2.797c5.765,9.96,11.571,19.985,17.373,30.015c2.918,5.044,5.689,10.181,8.806,15.099
		c1.469,2.316,1.335,4.021-0.017,6.325c-9.683,16.521-19.223,33.124-28.808,49.702C204.452,900,185.785,900,167.119,900z"/>
	<path fill="#194B55" d="M504.119,900c-0.508-1.121,0.284-1.873,0.768-2.712c18.659-32.299,37.318-64.599,55.985-96.894
		c0.308-0.532,0.707-1.013,1.44-2.052c6.469,11.172,12.711,21.891,18.887,32.646c3.059,5.328,8.326,10.723,8.332,16.092
		c0.006,5.361-5.266,10.756-8.306,16.088c-7.009,12.293-14.067,24.557-21.105,36.832C541.452,900,522.785,900,504.119,900z"/>
	<path fill="#194B55" d="M840.119,900c19.474-33.673,38.947-67.346,58.384-100.957c1.771-0.145,1.851,1.355,2.368,2.247
		c8.183,14.089,16.234,28.256,24.53,42.277c1.57,2.655,1.504,4.493-0.036,7.135c-9.535,16.362-18.854,32.851-28.246,49.298
		C878.119,900,859.119,900,840.119,900z"/>
	<path fill="#194B55" d="M303.119,900c-9.742-16.828-19.463-33.668-29.258-50.465c-0.927-1.59-1.229-2.805-0.22-4.533
		c8.96-15.354,17.825-30.76,26.669-46.066c1.212,0.14,1.511,0.938,1.915,1.636c18.631,32.235,37.268,64.47,55.88,96.717
		c0.476,0.825,0.682,1.805,1.014,2.713C340.452,900,321.785,900,303.119,900z"/>
	<path fill="#194B55" d="M640.119,900c-9.863-16.943-19.709-33.896-29.624-50.811c-0.864-1.475-0.942-2.595-0.071-4.089
		c8.952-15.36,17.84-30.761,26.719-46.101c1.689,0.157,1.868,1.492,2.39,2.391c18.566,32.104,37.106,64.224,55.638,96.35
		c0.405,0.702,0.638,1.504,0.95,2.26C677.453,900,658.785,900,640.119,900z"/>
	<path fill="#194B55" d="M436.119,0c-0.042,20.155-0.115,40.311-0.119,60.466c-0.014,78.462-0.142,156.926,0.206,235.387
		c0.035,7.728-2.573,12.78-8.321,16.997c-1.12-0.288-0.826-1.247-0.826-1.999C427.07,207.234,427.095,103.617,427.119,0
		C430.119,0,433.119,0,436.119,0z"/>
	<path fill="#194B55" d="M764.119,900c-0.059-1.828-0.165-3.656-0.166-5.485c-0.011-98.432,0.029-196.862-0.114-295.295
		c-0.01-6.472,5.582-7.896,8.119-12.335c1.444,1.762,0.872,3.128,0.873,4.354c0.034,101.264,0.029,202.525,0.041,303.789
		c0,1.657,0.161,3.314,0.247,4.973C770.119,900,767.119,900,764.119,900z"/>
	<path fill="#194B55" d="M773.119,0c-0.086,2.157-0.247,4.315-0.247,6.472c-0.007,101.108,0,202.216,0.006,303.324
		c0,0.825,0,1.649,0,3.828c-4.274-4.823-9.117-7.142-9.1-14.308c0.234-97.609,0.163-195.22,0.175-292.83
		c0.001-2.162,0.107-4.324,0.166-6.485C767.119,0,770.119,0,773.119,0z"/>
	<path fill="#194B55" d="M427.119,900c-0.021-100.442-0.039-200.885-0.059-301.328c0-3.777,0-7.556,0-12.313
		c5.271,4.754,9.157,8.331,9.135,15.815c-0.303,97.443-0.201,194.89-0.195,292.333c0,1.831,0.078,3.661,0.119,5.491
		C433.119,900,430.119,900,427.119,900z"/>
	<path fill="#194B55" d="M1200.119,587c-2.906-5.673-3.723-11.982-5.365-18.025c-7.645-28.116-15.125-56.278-22.666-84.426
		c-0.506-1.891-1.193-3.574,0.038-5.674c8.923-15.227,17.687-30.546,26.509-45.831c0.318-0.551,0.658-1.17,1.484-1.044
		C1200.119,483.666,1200.119,535.334,1200.119,587z"/>
	<path fill="#194B55" d="M0.119,432c7.546,11.324,13.062,23.923,20.908,34.967c6.838,9.625,7.026,18.555,3.766,29.562
		c-8.3,28.012-15.313,56.403-22.903,84.629c-0.358,1.329-0.101,3.069-1.771,3.844C0.119,534,0.119,483,0.119,432z"/>
	<path fill="#194B55" d="M604.119,0c0.068,15.492,0.178,30.984,0.195,46.477c0.033,30.994,0.026,61.988-0.009,92.982
		c-0.002,1.417,0.479,2.941-0.716,4.789c-2.818-4.632-5.161-2.174-8.204,1.648c0-3.501,0-5.726,0-7.95
		c0.004-44.492,0.013-88.984,0.002-133.477c0-1.49-0.176-2.979-0.271-4.47C598.119,0,601.119,0,604.119,0z"/>
	<path fill="#194B55" d="M597.104,755.891c2.061,3.25,4.188,3.539,6.028-0.024c1.623,0.719,1.195,1.857,1.195,2.764
		c0.013,46.296,0.002,92.592-0.018,138.889c-0.001,0.827-0.126,1.654-0.191,2.482c-2.666,0-5.333,0-8,0
		c-0.103-0.822-0.293-1.644-0.293-2.465c-0.022-45.907-0.035-91.814-0.009-137.723C595.818,758.435,595.259,756.727,597.104,755.891
		z"/>
	<path fill="#869487" d="M1109.119,900c0.025-1.665,0.075-3.33,0.075-4.995c0.004-296.67,0.004-593.34,0-890.009
		c0-1.666-0.05-3.331-0.075-4.996c0.333,0,0.667,0,1,0c-0.029,1.832-0.083,3.663-0.083,5.495
		c-0.004,296.337-0.004,592.673,0,889.011c0,1.831,0.054,3.662,0.083,5.494C1109.786,900,1109.452,900,1109.119,900z"/>
	<path fill="#869487" d="M1101.119,0c-0.014,147.918-0.033,295.835-0.04,443.753c-0.007,150.083-0.002,300.167,0,450.25
		c0,1.998,0.026,3.998,0.04,5.996c-0.333,0-0.667,0-1,0c0.038-1.998,0.109-3.995,0.109-5.993c0.006-296.005,0.006-592.009,0-888.014
		c0-1.998-0.071-3.995-0.109-5.993C1100.452,0,1100.786,0,1101.119,0z"/>
	<path fill="#869487" d="M259.119,0c-0.05,2.163-0.144,4.326-0.144,6.49c-0.006,295.673-0.006,591.347,0,887.021
		c0,2.163,0.094,4.326,0.144,6.489c-0.333,0-0.667,0-1,0c0.007-288.506,0.015-577.013,0.021-865.519
		c0-11.494-0.014-22.987-0.021-34.481C258.452,0,258.785,0,259.119,0z"/>
	<path fill="#869487" d="M267.119,900c0.021-29.15,0.059-58.301,0.059-87.45c0.004-269.185,0.002-538.369,0-807.554
		c0-1.666-0.039-3.331-0.059-4.996c0.333,0,0.667,0,1,0c-0.032,1.832-0.091,3.663-0.091,5.494
		c-0.004,296.337-0.004,592.674,0,889.012c0,1.831,0.06,3.662,0.091,5.494C267.785,900,267.452,900,267.119,900z"/>
	<path fill="#194B55" d="M902.119,900c8.234-14.244,16.471-28.486,25.441-44.002c0.571,15.691-0.457,29.866,0.559,44.002
		C919.452,900,910.786,900,902.119,900z"/>
	<path fill="#194B55" d="M566.119,900c-0.171-2.56,1.751-4.197,2.854-6.141c6.941-12.225,14.019-24.371,22.146-36.354
		c0,14.165,0,28.33,0,42.494C582.785,900,574.452,900,566.119,900z"/>
	<path fill="#194B55" d="M229.119,900c2.121-5.957,5.905-11.019,8.953-16.472c4.905-8.776,10.028-17.432,16.047-25.946
		c0,14.14,0,28.279,0,42.418C245.785,900,237.452,900,229.119,900z"/>
	<path fill="#194B55" d="M272.119,900c0-14.088,0-28.175,0-42.182c0.988-0.474,1.355,0.126,1.673,0.678
		c7.626,13.21,15.248,26.424,22.841,39.652c0.307,0.534,0.33,1.229,0.485,1.852C288.785,900,280.452,900,272.119,900z"/>
	<path fill="#194B55" d="M609.119,900c0-14.092,0-28.186,0-42.277c0.262-0.157,0.523-0.315,0.787-0.475
		c8.07,14.251,16.142,28.502,24.213,42.752C625.785,900,617.453,900,609.119,900z"/>
	<path fill="#194B55" d="M946.119,900c0-14.086,0-28.172,0-43.733c8.732,15.278,16.867,29.507,25,43.733
		C962.786,900,954.452,900,946.119,900z"/>
	<path fill="#194B55" d="M1200.119,861c0,12.166-0.069,24.334,0.063,36.499c0.023,2.151-0.409,2.624-2.565,2.567
		c-6.828-0.18-13.665-0.066-20.498-0.066c2.714-4.773,5.307-9.621,8.17-14.304C1190.298,877.504,1194.317,868.715,1200.119,861z"/>
	<path fill="#194B55" d="M22.119,900c-6.5,0-13.003-0.117-19.498,0.066c-2.158,0.061-2.591-0.416-2.567-2.567
		C0.189,885.668,0.119,873.834,0.119,862c4.713,5.189,7.394,11.652,10.832,17.617C14.815,886.322,19.487,892.612,22.119,900z"/>
	<path fill="#194B55" d="M1186.119,0c4.631,0,10.934-1.79,13.405,0.521c2.311,2.161,0.584,8.668,0.59,13.262
		c0.015,12.073,0.005,24.145,0.005,36.217c-1.323-0.565-1.19-1.914-1.471-2.958C1194.441,31.37,1190.286,15.683,1186.119,0z"/>
	<path fill="#194B55" d="M0.119,49c0-15.045,0.16-30.094-0.116-45.134c-0.066-3.623,0.992-4.268,4.195-3.932
		C7.141,0.243,10.143,0,13.119,0c-0.203,6-2.443,11.546-4.013,17.215C6.167,27.825,4.105,38.687,0.119,49z"/>
	<path fill="#194B55" d="M86.119,0c-1.04,10.565-0.045,21.163-0.583,33.006C78.71,21.404,72.414,10.702,66.119,0
		C72.785,0,79.452,0,86.119,0z"/>
	<path fill="#194B55" d="M459.119,0c-4.854,11.23-12.105,21.081-17.614,31.934c-0.462-0.105-0.924-0.21-1.386-0.316
		c0-10.539,0-21.079,0-31.618C446.452,0,452.785,0,459.119,0z"/>
	<path fill="#194B55" d="M796.119,0c-5.134,11.07-12.077,21.092-17.744,31.853c-0.419-0.101-0.837-0.203-1.256-0.304
		c0-10.516,0-21.033,0-31.549C783.452,0,789.786,0,796.119,0z"/>
	<path fill="#194B55" d="M1133.119,0c-5.948,10.615-11.896,21.229-17.844,31.844c-0.387-0.102-0.771-0.204-1.156-0.306
		c0-10.513,0-21.025,0-31.538C1120.452,0,1126.786,0,1133.119,0z"/>
	<path fill="#194B55" d="M1096.119,0c0,10.432,0,20.865,0,31.297c-0.343,0.18-0.687,0.36-1.027,0.541
		C1089.1,21.225,1083.109,10.612,1077.119,0C1083.452,0,1089.786,0,1096.119,0z"/>
	<path fill="#D5C8AC" d="M1186.119,0c4.167,15.683,8.322,31.37,12.529,47.042c0.279,1.044,0.146,2.393,1.471,2.958
		c0,6.333,0,12.667,0,19c-4.301-15.638-8.6-31.277-12.902-46.914c-2.025-7.364-4.063-14.725-6.098-22.086
		C1182.786,0,1184.452,0,1186.119,0z"/>
	<path fill="#194B55" d="M759.119,0c0,10.428,0,20.856,0,31.284c-0.282,0.162-0.565,0.323-0.848,0.485
		C752.22,21.179,746.169,10.59,740.119,0C746.452,0,752.786,0,759.119,0z"/>
	<path fill="#869487" d="M85.302,588.438c1.666,1.063,0.762,2.707,0.762,4.028C86.119,694.979,86.116,797.488,86.119,900
		c-0.333,0-0.667,0-1,0c0.061-1.162,0.173-2.323,0.173-3.484C85.301,793.822,85.301,691.13,85.302,588.438z"/>
	<path fill="#869487" d="M103.572,589.901c0.161,2.143,0.463,4.284,0.463,6.428c0.024,98.894,0.022,197.786,0.026,296.68
		c0,2.33,0.037,4.661,0.057,6.991c-0.333,0-0.667,0-1,0c0.032-23.305,0.088-46.61,0.091-69.916
		c0.011-77.909,0.001-155.818,0.019-233.729C103.23,594.205,103.453,592.053,103.572,589.901z"/>
	<path fill="#194B55" d="M422.119,0c0,10.445,0,20.891,0,32.661c-6.688-11.497-12.844-22.079-19-32.661
		C409.452,0,415.785,0,422.119,0z"/>
	<path fill="#194B55" d="M123.119,0c-6.146,10.562-12.292,21.124-19,32.65c0-11.649,0-22.149,0-32.65C110.452,0,116.785,0,123.119,0
		z"/>
	<path fill="#D5C8AC" d="M0.119,49c3.986-10.313,6.048-21.175,8.987-31.785C10.676,11.546,12.916,6,13.119,0c2,0,4,0,6,0
		c-3.733,8.906-5.345,18.428-7.962,27.656C7.84,39.347,4.88,51.139,1.719,62.874c-0.381,1.416-1.06,2.752-1.6,4.126
		C0.119,61,0.119,55,0.119,49z"/>
	<path fill="#869487" d="M422.119,900c0.014-98.051,0.025-196.101,0.056-294.15c0-2.319,0.197-4.641,0.304-6.961
		c0.938,2.246,0.504,4.607,0.505,6.912c0.023,95.736,0.02,191.475,0.025,287.21c0,2.33,0.072,4.659,0.111,6.989
		C422.785,900,422.452,900,422.119,900z"/>
	<path fill="#869487" d="M442.1,600.886c-2.092,0.979-1.258,2.916-1.259,4.407c-0.049,97.248-0.045,194.494-0.031,291.741
		c0,0.989,0.202,1.978,0.311,2.966c-0.333,0-0.667,0-1,0c-0.028-44.957-0.07-89.912-0.081-134.869
		c-0.013-53.449-0.015-106.898,0.105-160.347C440.146,603.553,438.21,600.494,442.1,600.886z"/>
	<path fill="#869487" d="M926.153,287.981c1.804-0.91,1.145-2.602,1.145-3.978c0.023-93.839,0.015-187.679-0.001-281.519
		c0-0.828-0.116-1.656-0.178-2.484c0.333,0,0.667,0,1,0c0.013,95.591,0.027,191.182,0.009,286.773
		c-0.001,1.204,0.854,3.021-0.812,3.466C926.248,290.525,926.156,288.974,926.153,287.981z"/>
	<path fill="#869487" d="M946.119,0c-0.009,92.724-0.014,185.447-0.044,278.171c-0.001,3.314-0.269,6.628-0.41,9.943
		c-0.908-6.125-0.383-12.287-0.386-18.426c-0.045-88.399-0.026-176.798-0.03-265.198c0-1.497-0.085-2.993-0.13-4.49
		C945.452,0,945.786,0,946.119,0z"/>
	<path fill="#D5C8AC" d="M1200.119,861c-5.802,7.715-9.82,16.504-14.83,24.696c-2.863,4.683-5.456,9.529-8.17,14.304
		c-1.667,0-3.333,0-5,0c6.227-12.654,13.927-24.477,20.795-36.769c2.307-4.131,4.798-8.157,7.205-12.231
		C1200.119,854.334,1200.119,857.666,1200.119,861z"/>
	<path fill="#D5C8AC" d="M22.119,900c-2.631-7.388-7.303-13.678-11.168-20.383C7.513,873.652,4.832,867.189,0.119,862
		c0-3.334,0-6.666,0-10c9.333,16,18.667,32,28,48C26.119,900,24.119,900,22.119,900z"/>
	<path fill="#869487" d="M597.104,755.891c-1.845,0.836-1.286,2.544-1.287,3.924c-0.026,45.906-0.015,91.813,0.009,137.722
		c0,0.821,0.19,1.643,0.293,2.465c-0.333,0-0.667,0-1,0c-0.027-47.072-0.066-94.146-0.001-141.217
		C595.119,757.787,593.491,754.764,597.104,755.891z"/>
	<path fill="#194B55" d="M903.173,450.662c-1.473,1.12-2.789,1.903-3.839,2.952c-41.494,41.454-82.961,82.937-124.438,124.407
		c-57.033,57.024-114.095,114.022-171.045,171.131c-2.794,2.802-4.169,3.299-7.263,0.198
		C497.95,650.503,399.208,551.76,300.406,453.078c-2.527-2.524-2.314-3.756,0.102-6.169
		c98.663-98.578,197.267-197.215,295.781-295.941c2.989-2.995,4.425-3.309,7.618-0.107
		c98.39,98.617,196.898,197.114,295.385,295.635C900.436,447.637,901.499,448.858,903.173,450.662z M598.637,508.549
		c-56.654,0-113.311-0.02-169.966,0.082c-1.969,0.003-5.665-1.609-5.688,1.615c-0.021,2.801,3.559,1.314,5.433,1.316
		c113.311,0.086,226.622,0.089,339.933,0.008c1.816-0.001,5.241,1.573,5.249-1.614c0.007-2.708-3.273-1.321-4.991-1.323
		C711.949,508.547,655.292,508.563,598.637,508.549z M598.1,390.156c56.651,0,113.304,0,169.954,0c1.167,0,2.333,0.011,3.499-0.016
		c0.984-0.023,2.159,0.063,2.229-1.326c0.083-1.671-1.185-1.727-2.404-1.723c-0.999,0.003-1.999,0.01-2.999,0.01
		c-113.304-0.001-226.606-0.003-339.909-0.005c-1.167,0-2.333,0.015-3.499-0.001c-1.049-0.014-2.097,0.041-2.198,1.395
		c-0.137,1.801,1.214,1.638,2.375,1.651c1.166,0.013,2.332,0.002,3.498,0.002C485.13,390.142,541.615,390.142,598.1,390.156z
		 M710.064,417.865c-3.515-0.059-6.974,0.33-10.386,1.189c-13.094,3.301-23.168,14.039-24.769,26.428
		c-1.711,13.238,4.335,24.858,16.687,31.326c10.473,5.484,21.521,6.109,32.32,1.476c12.003-5.151,19.813-14.051,20.274-27.755
		C744.808,432.2,729.695,417.884,710.064,417.865z M569.887,449.2c0,6.326-0.288,12.67,0.104,18.972
		c0.25,4.02-2.405,9.649,1.56,11.694c3.577,1.845,8.798,0.331,13.159-0.999c0.955-0.292,1.91-0.59,2.841-0.945
		c12.406-4.723,20.618-15.684,20.874-27.842c0.27-12.756-6.999-23.531-19.41-28.702c-4.999-2.083-10.252-2.596-15.631-2.748
		c-2.922-0.083-3.613,0.813-3.563,3.604C569.989,431.219,569.884,440.21,569.887,449.2z M491.98,467.057
		c4.692,3.568,8.382,6.361,12.058,9.174c6.262,4.789,6.258,4.794,12.268,3.242c-5.512-4.218-10.983-8.403-16.811-12.862
		c8.34-3.394,14.808-7.988,17.441-16.226c5.809-18.161-10.102-32.812-27.676-31.999c-2.181,0.102-2.307,1.28-2.305,2.927
		c0.019,18.803,0.037,37.606-0.027,56.41c-0.007,2.014,0.745,2.541,2.616,2.568c2.059,0.029,2.527-0.891,2.465-2.729
		C491.904,474.453,491.98,471.336,491.98,467.057z M633.9,438.176c-0.27-5.296-3.959-4.518-6.851-4.166
		c-4.897,0.598-6.693-0.818-6.364-6.086c0.241-3.889,1.131-5.41,5.052-4.868c1.796,0.249,3.655,0.003,5.484,0.037
		c1.493,0.027,2.027-0.671,2.005-2.125c-0.022-1.337-0.254-2.29-1.871-2.257c-4.974,0.102-10.481-1.073-14.709,0.744
		c-2.439,1.048-0.488,7.034-0.801,10.783c-0.041,0.496-0.005,0.998,0.004,1.497c0.018,1.065-0.146,2.021-1.464,2.173
		c-5.188,0.597-1.688,3.783-0.663,4.085c3.074,0.908,2.086,3.061,2.096,4.821c0.063,11.149,0.104,22.302-0.04,33.449
		c-0.038,2.889,0.503,4.285,3.794,4.03c3.805-0.295,7.65-0.093,11.478-0.055c1.36,0.013,2.171-0.304,2.185-1.913
		c0.013-1.602-0.358-2.536-2.186-2.455c-1.826,0.081-3.684-0.172-5.485,0.055c-3.593,0.451-4.978-0.636-4.785-4.558
		c0.35-7.141,0.1-14.309,0.1-21.464c0-11.395,0-11.394,11.146-11.601C632.521,438.295,633.018,438.237,633.9,438.176z
		 M638.136,449.729c-0.104,1.843,0.234,4.468,0.869,7.068c3.104,12.729,17.192,23.641,30.236,23.397
		c1.276-0.024,2.703,0.385,2.813-1.755c0.102-1.949-0.623-2.652-2.532-2.705c-1.647-0.047-3.305-0.377-4.926-0.727
		c-15.887-3.409-25.373-18.802-20.199-33.556c3.992-11.385,12.975-16.795,24.591-18.204c1.812-0.22,3.259-0.227,3.091-2.689
		c-0.172-2.522-1.888-1.78-3.255-1.75C652.295,419.189,638.417,432.811,638.136,449.729z M529.382,451.6
		c0,7.98-0.088,15.963,0.069,23.941c0.034,1.73-1.55,4.614,2.361,4.737c3.946,0.124,2.532-2.749,2.541-4.52
		c0.09-15.795,0.176-31.592-0.032-47.384c-0.053-3.929,0.695-6.021,5.073-5.313c1.574,0.254,2.898,0.052,2.897-2.213
		c-0.001-2.391-1.549-2.15-3.019-2.156c-4.654-0.02-9.312-0.076-13.964,0.052c-1.548,0.043-3.958-1.087-3.995,2.104
		c-0.038,3.172,2.367,2.332,3.908,2.162c3.779-0.416,4.298,1.435,4.22,4.646C529.248,435.636,529.379,443.62,529.382,451.6z"/>
	<path fill="#194B55" d="M272.248,826.203c0-168.534,0-336.929,0-505.355c1.671-0.265,1.734,1.266,2.238,2.137
		c16.837,29.109,33.582,58.273,50.538,87.313c1.789,3.066,1.482,4.646-0.976,7.031c-10.044,9.744-19.714,19.875-29.832,29.54
		c-2.912,2.782-2.311,4.063,0.162,6.513c19.771,19.581,39.372,39.33,59.132,58.921c2.16,2.142,2.669,3.922,1.861,6.931
		c-27.203,101.305-54.29,202.64-81.42,303.964C273.675,824.229,273.736,825.538,272.248,826.203z"/>
	<path fill="#194B55" d="M926.197,824.888c-8.208-30.898-16.372-61.811-24.633-92.695c-18.976-70.946-37.97-141.89-57.088-212.796
		c-0.856-3.179,0.179-4.862,2.209-6.884c19.729-19.624,39.311-39.398,59.147-58.913c3.058-3.007,2.796-4.389-0.128-7.194
		c-9.977-9.576-19.49-19.636-29.49-29.186c-2.934-2.802-2.729-4.637-0.853-7.861c17.07-29.358,33.95-58.829,50.887-88.267
		c1.877,1.151,1.032,3.013,1.032,4.533c0.049,164.914,0.055,329.827,0.025,494.741C927.308,821.902,928.077,823.76,926.197,824.888z
		"/>
	<path fill="#194B55" d="M778.248,52.226c6.051,10.467,12.107,20.931,18.152,31.402c17.645,30.571,35.271,61.152,52.953,91.702
		c1.121,1.938,1.766,3.562,1.107,5.997c-14.662,54.342-29.2,108.718-43.771,163.084c-0.127,0.471-0.392,0.905-0.756,1.727
		c-3.01-1.659-4.894-4.399-7.189-6.615c-4.438-4.279-8.338-9.214-13.172-12.96c-6.987-5.415-8.538-11.995-8.506-20.571
		c0.313-83.824,0.183-167.65,0.178-251.476c0-0.637,0.001-1.273,0.001-1.91C777.579,52.479,777.913,52.353,778.248,52.226z"/>
	<path fill="#194B55" d="M422.479,318.076c-8.648,10.143-18.773,18.832-27.741,28.488c-1.794-0.471-1.491-1.881-1.764-2.893
		c-14.43-53.704-28.813-107.42-43.298-161.109c-0.75-2.782-0.584-4.978,0.881-7.506c23.215-40.038,46.328-80.135,69.551-120.168
		c0.458-0.789,0.26-3.298,2.578-1.973c-0.967,2.585-0.509,5.279-0.51,7.916c-0.029,83.759-0.022,167.519-0.005,251.278
		C422.172,314.098,422.372,316.087,422.479,318.076z"/>
	<path fill="#194B55" d="M277.727,826.605c27.392-102.232,54.784-204.464,82.176-306.694c0.481-0.318,0.964-0.637,1.446-0.956
		c2.446,2.883,4.71,5.944,7.367,8.617c16.562,16.666,33.189,33.266,49.857,49.826c1.813,1.801,2.703,2.99,1.096,5.769
		c-46.703,80.701-93.277,161.478-139.875,242.239c-0.317,0.549-0.697,1.063-1.047,1.593
		C278.406,826.867,278.066,826.736,277.727,826.605z"/>
	<path fill="#194B55" d="M839.789,519.372c27.657,103.22,55.084,205.58,82.592,308.238c-1.573-0.151-1.773-1.196-2.181-1.901
		c-46.427-80.451-92.814-160.925-139.327-241.326c-1.754-3.031-1.594-4.591,0.904-7.061
		C800.959,558.363,819.962,539.224,839.789,519.372z"/>
	<path fill="#194B55" d="M758.869,299.678c-18.595-18.606-36.48-36.517-54.391-54.402c-1.237-1.237-1.85-2.69-2.287-4.335
		c-5.232-19.62-10.472-39.239-15.793-58.835c-0.65-2.397-0.521-4.365,0.766-6.59c23.495-40.624,46.91-81.294,70.353-121.948
		c0.229-0.397,0.605-0.709,1.354-1.562C758.869,134.603,758.869,216.646,758.869,299.678z"/>
	<path fill="#194B55" d="M442.045,53.017c21.521,37.357,42.722,74.902,64.778,111.94c5.605,9.414,7.448,17.559,3.823,28.199
		c-5.195,15.249-8.615,31.104-12.69,46.729c-0.825,3.163-2.292,5.696-4.637,8.025c-17.137,17.024-34.159,34.162-51.218,51.263
		c-2.226-1.382-1.244-3.618-1.246-5.432c-0.067-78.597-0.071-157.193-0.021-235.789C440.835,56.3,439.902,54.222,442.045,53.017z"/>
	<path fill="#194B55" d="M345.599,184.833c14.468,53.925,28.707,107.296,43.23,160.59c1.2,4.405,0.414,6.962-2.798,9.841
		c-4.828,4.328-9.297,9.066-13.784,13.758c-1.72,1.799-2.574,2.477-4.172-0.306c-20.972-36.498-42.054-72.933-63.166-109.35
		c-1.021-1.762-1.274-3.044-0.164-4.955c13.204-22.73,26.297-45.524,39.438-68.292C344.399,185.748,344.845,185.507,345.599,184.833
		z"/>
	<path fill="#194B55" d="M854.689,184.562c7.91,13.66,15.482,26.717,23.035,39.785c5.577,9.648,11.057,19.354,16.745,28.937
		c1.414,2.382,1.677,4.11,0.161,6.711c-20.754,35.65-41.408,71.359-61.912,107.153c-2.063,3.601-3.189,3.532-5.82,0.679
		c-4.733-5.137-9.797-9.977-14.809-14.851c-1.562-1.519-2.271-2.9-1.643-5.224c14.525-53.799,28.972-107.621,43.438-161.437
		C853.971,186.002,854.157,185.715,854.689,184.562z"/>
	<path fill="#194B55" d="M330.433,410.785c-6.807-11.773-13.379-23.137-19.947-34.503c-11.995-20.757-23.943-41.541-36.038-62.24
		c-1.515-2.593-1.616-4.503-0.048-7.16c8.792-14.903,17.369-29.934,26.358-45.507c2.257,3.831,4.282,7.211,6.253,10.623
		c19.069,33.013,38.074,66.064,57.285,98.994c1.802,3.089,1.492,4.625-0.973,7.024C352.351,388.688,341.613,399.602,330.433,410.785
		z"/>
	<path fill="#194B55" d="M899.044,261.282c9.346,16.228,18.252,31.771,27.275,47.246c0.941,1.615,0.601,2.67-0.202,4.058
		c-18.325,31.684-36.637,63.377-54.883,95.107c-1.19,2.069-1.84,2.637-3.805,0.639c-10.505-10.688-21.115-21.271-31.79-31.792
		c-1.634-1.611-1.656-2.764-0.551-4.672C856.286,335.313,877.412,298.72,899.044,261.282z"/>
	<path fill="#194B55" d="M583.438,825.688c-37.015-64.112-74.028-128.227-111.077-192.399c2.108-0.908,2.934,0.979,3.985,2.026
		c25.583,25.525,51.124,51.093,76.701,76.623c1.34,1.339,2.287,2.785,2.776,4.618c9.474,35.538,18.971,71.069,28.457,106.604
		c0.128,0.479,0.171,0.982,0.253,1.475C584.167,824.984,583.802,825.336,583.438,825.688z"/>
	<path fill="#194B55" d="M725.98,635.576c-25.854,44.865-51.705,89.731-77.562,134.598c-10.725,18.609-21.454,37.217-32.192,55.818
		c-0.468,0.811-1.054,1.552-2.143,2.098c3.73-13.942,7.459-27.887,11.192-41.829c5.987-22.358,11.967-44.722,17.987-67.071
		c0.598-2.213,1.092-4.405,2.907-6.208c26.249-26.062,52.429-52.19,78.625-78.306C725.192,634.977,725.586,635.275,725.98,635.576z"
		/>
	<path fill="#194B55" d="M562.981,721.818c8.781,8.821,17.552,17.654,26.357,26.453c1.129,1.127,1.671,2.313,1.668,3.95
		c-0.042,24.601-0.028,49.199-0.978,74.021c-9.299-34.645-18.598-69.287-27.896-103.933
		C562.417,722.148,562.699,721.982,562.981,721.818z"/>
	<path fill="#194B55" d="M608.935,826.1c0-14.805,0-29.607,0-44.412c0-9.326-0.012-18.653,0.012-27.98
		c0.003-1.46-0.376-3.02,0.861-4.254c8.929-8.906,17.85-17.819,27.643-26.29c-9.183,34.272-18.365,68.547-27.548,102.82
		C609.58,826.021,609.257,826.061,608.935,826.1z"/>
	<path fill="#194B55" d="M503.205,237.807c4.921-18.389,9.498-35.493,14.355-53.647c4.848,8.333,9.197,15.903,13.662,23.405
		c0.83,1.395,0.217,2.083-0.651,2.947C521.764,219.28,512.971,228.061,503.205,237.807z"/>
	<path fill="#194B55" d="M682.252,184.066c4.83,18.04,9.325,34.828,13.82,51.616c-0.333,0.28-0.667,0.56-1.001,0.839
		c-5.677-5.894-11.354-11.789-17.03-17.681c-3.224-3.345-8.547-6.386-9.081-10.114c-0.522-3.653,3.795-8.023,6.049-12.044
		C677.189,192.792,679.447,188.945,682.252,184.066z"/>
	<path fill="#869487" d="M926.197,824.888c1.88-1.128,1.111-2.984,1.111-4.521c0.027-164.914,0.021-329.827-0.026-494.741
		c0-1.52,0.845-3.382-1.032-4.533c0.521-0.813,1.32-1.385,1.692-0.134c0.364,1.231,0.185,2.635,0.185,3.963
		c0.005,164.511,0.003,329.021,0.006,493.532c0,2.331,0.089,4.662,0.043,6.992c-0.013,0.672,0.288,1.951-1.076,1.573
		C926.219,826.776,926.186,825.74,926.197,824.888z"/>
	<path fill="#869487" d="M422.479,318.076c-0.106-1.989-0.307-3.978-0.308-5.966c-0.018-83.759-0.024-167.519,0.005-251.278
		c0.001-2.637-0.457-5.331,0.51-7.916c0.103,3.154,0.293,6.309,0.293,9.463c0.019,83.096,0.021,166.193,0,249.289
		C422.979,313.805,423.404,316,422.479,318.076z"/>
	<path fill="#869487" d="M442.045,53.017c-2.144,1.205-1.21,3.283-1.211,4.935c-0.051,78.596-0.046,157.192,0.021,235.789
		c0.001,1.813-0.979,4.05,1.246,5.432c-0.627,0.788-1.511,1.098-1.822-0.009c-0.351-1.244-0.227-2.634-0.228-3.961
		c-0.01-79.532-0.013-159.064-0.007-238.596c0-1.325-0.183-2.767,0.271-3.942C440.742,51.557,441.588,52.189,442.045,53.017z"/>
	<path fill="#869487" d="M422.465,597.084c-0.396-2.4-0.545-4.799,0.115-7.183C423.16,592.306,423.378,594.704,422.465,597.084z"/>
	<path fill="#194B55" d="M584.532,824.634c0.472,0.96,1.303,1.886,0.277,2.985c-0.458-0.646-0.915-1.289-1.372-1.933
		C583.802,825.336,584.167,824.984,584.532,824.634z"/>
	<path fill="#194B55" d="M724.797,634.676c0.521-0.725,1.158-1.984,2.007-1.313c0.905,0.715-0.438,1.479-0.823,2.215
		C725.586,635.275,725.192,634.977,724.797,634.676z"/>
	<path fill="#194B55" d="M945.616,320.881c2.239-0.432,2.159,1.701,2.772,2.763c29.776,51.43,59.453,102.917,89.291,154.312
		c1.616,2.782,0.992,5.004,0.313,7.546c-28.742,107.26-57.484,214.52-86.227,321.778c-1.466,5.468-2.905,10.941-4.433,16.393
		c-0.263,0.939,0.188,2.581-1.731,2.383c0.854-2.77,0.457-5.62,0.459-8.431c0.029-160.085,0.033-320.171,0.022-480.256
		c0-4.489-0.194-8.977-0.298-13.465c-0.014-0.594-0.028-1.188-0.042-1.783C945.701,321.707,945.659,321.294,945.616,320.881z"/>
	<path fill="#194B55" d="M1095.949,51.157c0,133.987,0,266.527,0,399.11c-1.465-0.438-1.373-1.777-1.65-2.811
		c-23.535-87.809-47.021-175.63-70.658-263.411c-1.085-4.032-0.639-7.075,1.444-10.655c23.022-39.568,45.869-79.239,68.768-118.879
		C1094.263,53.799,1094.723,53.114,1095.949,51.157z"/>
	<path fill="#194B55" d="M951.04,827.682c30.381-113.386,60.762-226.771,91.404-341.135c4.831,8.318,9.17,15.759,13.481,23.215
		c12.584,21.752,25.102,43.545,37.807,65.228c1.657,2.83,1.576,4.797-0.06,7.623c-46.929,81.1-93.749,162.262-140.599,243.407
		c-0.396,0.686-0.958,1.272-1.443,1.906C951.434,827.844,951.237,827.763,951.04,827.682z"/>
	<path fill="#194B55" d="M974.502,261.293c13.468,23.329,26.526,45.949,39.587,68.569c26.549,45.983,53.08,91.979,79.691,137.928
		c1.646,2.845,2.394,5.645,2.384,8.935c-0.091,30.482-0.054,60.966-0.054,91.494c-1.982,0.183-1.998-1.57-2.565-2.551
		c-48.404-83.72-96.759-167.469-145.195-251.17c-1.659-2.868-1.928-4.991-0.129-8.009
		C956.988,291.779,965.467,276.898,974.502,261.293z"/>
	<path fill="#194B55" d="M1019.111,184.078c23.97,89.533,47.628,177.9,71.326,266.42c-2.087,0.104-2.168-1.33-2.666-2.192
		c-36.161-62.55-72.278-125.125-108.485-187.649c-1.57-2.711-1.904-4.639-0.177-7.577
		C992.347,230.562,1005.343,207.9,1019.111,184.078z"/>
	<path fill="#869487" d="M945.786,323.902c0.104,4.488,0.298,8.977,0.298,13.465c0.011,160.085,0.007,320.171-0.023,480.256
		c0,2.81,0.396,5.661-0.457,8.431c-0.113-7.146-0.322-14.291-0.324-21.437c-0.026-157.269-0.034-314.536-0.008-471.803
		C945.271,329.848,944.743,326.82,945.786,323.902z"/>
	<path fill="#869487" d="M945.616,320.881c0.043,0.413,0.085,0.826,0.128,1.239c-0.122-0.277-0.277-0.546-0.348-0.835
		C945.369,321.174,945.537,321.017,945.616,320.881z"/>
	<path fill="#194B55" d="M253.905,319.698c0,169.498,0,337.879,0,506.339c-1.576-0.479-1.383-1.995-1.68-3.103
		c-30.146-112.427-60.253-224.862-90.434-337.28c-0.818-3.045-0.978-5.535,0.722-8.465c29.837-51.409,59.557-102.888,89.309-154.347
		C252.281,322.05,252.833,321.311,253.905,319.698z"/>
	<path fill="#194B55" d="M103.495,52.946c2.692-1.459,2.302,1.431,2.812,2.308c16.647,28.641,33.176,57.35,49.723,86.05
		c6.403,11.105,12.738,22.25,19.257,33.288c1.538,2.604,1.997,4.86,1.174,7.921c-23.631,87.948-47.134,175.929-70.753,263.88
		c-0.335,1.247,0.501,3.69-2.234,3.642c1.054-2.741,0.555-5.604,0.556-8.402c0.033-127.59,0.032-255.18,0.019-382.77
		C104.047,56.881,104.358,54.853,103.495,52.946z"/>
	<path fill="#194B55" d="M157.495,486.93c30.522,113.918,60.783,226.861,91.134,340.143c-2.13-0.553-2.338-2.019-2.953-3.081
		c-46.625-80.705-93.219-161.427-139.875-242.113c-1.187-2.053-1.618-3.526-0.285-5.814c16.841-28.905,33.551-57.889,50.304-86.846
		C156.127,488.686,156.545,488.218,157.495,486.93z"/>
	<path fill="#194B55" d="M103.879,471.938c24.091-41.815,48.178-83.634,72.274-125.446c15.457-26.821,30.924-53.635,46.4-80.444
		c0.813-1.406,1.746-2.741,2.903-4.547c9.211,15.978,18.105,31.534,27.164,46.995c1.533,2.616-0.256,4.09-1.248,5.813
		c-25.919,44.994-51.885,89.961-77.842,134.934c-22.378,38.771-44.742,77.552-67.204,116.274c-0.559,0.962-0.156,3.633-2.79,2.548
		c0.164-0.807,0.471-1.61,0.471-2.416C103.982,534.411,103.929,503.175,103.879,471.938z"/>
	<path fill="#194B55" d="M108.607,453.382c24.209-90.394,48.001-179.232,71.794-268.074c1.938,0.167,2.042,1.789,2.648,2.835
		c12.597,21.74,25.122,43.522,37.749,65.245c1.271,2.187,1.75,3.805,0.308,6.295c-36.936,63.791-73.762,127.645-110.618,191.48
		C110.25,451.578,109.867,451.908,108.607,453.382z"/>
	<path fill="#869487" d="M103.495,52.946c0.863,1.907,0.553,3.935,0.553,5.915c0.013,127.59,0.014,255.18-0.019,382.77
		c-0.001,2.799,0.498,5.661-0.556,8.402c-0.085-1.489-0.244-2.979-0.244-4.466c-0.013-129.218-0.015-258.437-0.004-387.654
		C103.226,56.257,103.401,54.602,103.495,52.946z"/>
	<path fill="#869487" d="M103.879,471.938c0.05,31.236,0.103,62.474,0.128,93.709c0,0.807-0.307,1.61-0.471,2.416
		c-0.107-7.474-0.294-14.946-0.307-22.421c-0.041-22.617-0.027-45.235,0.01-67.854C103.242,475.834,102.752,473.785,103.879,471.938
		z"/>
	<path fill="#869487" d="M104.595,451.727c-0.239,0.17-0.482,0.341-0.724,0.513c-0.112-0.376-0.258-0.748-0.297-1.132
		c-0.006-0.059,0.49-0.166,0.753-0.252C104.414,451.141,104.502,451.425,104.595,451.727z"/>
	<path fill="#194B55" d="M1114.186,450.43c0-132.83,0-265.294,0-397.802c2.017-0.27,2.029,1.533,2.589,2.499
		c23.102,39.917,46.127,79.879,69.263,119.776c1.448,2.497,1.797,4.636,1.045,7.437c-23.756,88.449-47.43,176.921-71.134,265.384
		C1115.707,448.623,1115.73,449.733,1114.186,450.43z"/>
	<path fill="#194B55" d="M84.146,448.995c-8.128-30.549-16.224-61.106-24.393-91.645c-15.61-58.352-31.236-116.7-46.973-175.018
		c-0.772-2.861-0.388-4.963,1.047-7.445c23.487-40.613,46.883-81.278,70.3-121.931c2.1,1.248,1.13,3.306,1.131,4.959
		c0.061,128.867,0.066,257.733,0.038,386.601C85.297,446.043,86.086,447.91,84.146,448.995z"/>
	<path fill="#869487" d="M84.146,448.995c1.94-1.084,1.15-2.952,1.151-4.479c0.028-128.867,0.022-257.733-0.038-386.601
		c-0.001-1.654,0.969-3.712-1.131-4.959c0.41-0.939,1.088-2.191,1.806-0.537c0.55,1.269,0.182,2.947,0.182,4.442
		c0.008,130.149,0.012,260.299,0.019,390.448c0,0.833,0.089,1.672,0.01,2.497c-0.069,0.72,0.067,1.928-1.246,1.389
		C84.038,450.842,84.118,449.832,84.146,448.995z"/>
	<path fill="#869487" d="M85.722,563.236c-0.119-0.482-0.342-0.965-0.342-1.446c0.026-29.97,0.07-59.938,0.113-89.907
		c0.208,1.117,0.597,2.234,0.598,3.354c0.031,28.352,0.024,56.703,0.001,85.056C86.091,561.273,85.851,562.254,85.722,563.236z"/>
	<path fill="#869487" d="M85.788,568.877c-0.496-1.357-0.594-2.723-0.077-4.099C86.121,566.137,86.473,567.497,85.788,568.877z"/>
	<path fill="#D5C8AC" d="M598.637,508.555c56.655,0.008,113.313-0.008,169.967,0.078c1.719,0.002,5-1.385,4.992,1.323
		c-0.008,3.188-3.433,1.613-5.249,1.614c-113.311,0.081-226.622,0.078-339.933-0.008c-1.874-0.002-5.454,1.483-5.434-1.316
		c0.024-3.227,3.721-1.612,5.689-1.615C485.326,508.529,541.982,508.549,598.637,508.555z"/>
	<path fill="#D5C8AC" d="M598.1,390.149c-56.484-0.007-112.97-0.007-169.455-0.007c-1.167,0-2.333,0.01-3.498-0.002
		c-1.161-0.013-2.513,0.15-2.375-1.651c0.102-1.354,1.148-1.408,2.198-1.395c1.166,0.016,2.333,0.001,3.499,0.001
		c113.303,0.002,226.605,0.004,339.909,0.005c1,0,2-0.007,2.999-0.01c1.221-0.004,2.487,0.051,2.404,1.723
		c-0.068,1.389-1.243,1.303-2.229,1.326c-1.166,0.026-2.332,0.017-3.499,0.017C711.403,390.156,654.751,390.156,598.1,390.149z"/>
	<path fill="#D5C8AC" d="M710.063,417.862c19.633,0.021,34.745,14.337,34.13,32.666c-0.462,13.704-8.271,22.604-20.274,27.755
		c-10.801,4.635-21.849,4.01-32.32-1.476c-12.352-6.468-18.396-18.088-16.687-31.327c1.601-12.389,11.675-23.125,24.769-26.427
		C703.091,418.194,706.55,417.807,710.063,417.862z M739.214,449.668c-0.016-8.741-3.557-15.736-10.487-21.021
		c-11.648-8.881-29.188-8.523-39.738,0.784c-8.93,7.877-11.877,19.382-7.639,29.812c4.354,10.714,16.364,17.958,28.93,17.448
		C726.749,476.021,739.266,464.329,739.214,449.668z"/>
	<path fill="#D5C8AC" d="M569.886,449.2c-0.001-8.99,0.104-17.981-0.063-26.968c-0.053-2.789,0.64-3.687,3.563-3.604
		c5.379,0.152,10.633,0.666,15.631,2.748c12.411,5.171,19.679,15.946,19.41,28.702c-0.256,12.158-8.468,23.119-20.874,27.842
		c-0.932,0.355-1.887,0.653-2.841,0.945c-4.36,1.33-9.582,2.844-13.159,0.999c-3.965-2.045-1.31-7.676-1.56-11.694
		C569.599,461.87,569.887,455.526,569.886,449.2z M574.931,449.09c0,7.651,0.04,15.303-0.023,22.954
		c-0.02,2.254,0.066,3.656,3.153,3.466c13.778-0.848,25.258-12.522,25.301-26.054c0.042-13.476-11.355-25.457-24.995-26.441
		c-2.528-0.183-3.558,0.358-3.5,3.123C575.026,433.785,574.921,441.438,574.931,449.09z"/>
	<path fill="#D5C8AC" d="M491.98,467.057c0,4.279-0.076,7.396,0.029,10.508c0.063,1.837-0.407,2.757-2.465,2.728
		c-1.871-0.027-2.623-0.556-2.616-2.568c0.064-18.804,0.046-37.606,0.027-56.411c-0.001-1.646,0.124-2.824,2.305-2.926
		c17.574-0.813,33.484,13.838,27.677,31.999c-2.635,8.236-9.103,12.832-17.442,16.226c5.827,4.459,11.299,8.646,16.811,12.862
		c-6.01,1.552-6.006,1.546-12.268-3.243C500.362,473.418,496.673,470.625,491.98,467.057z M491.977,442.709
		c0,5.825,0.09,11.652-0.042,17.473c-0.056,2.491,0.742,3.099,3.192,2.715c10.11-1.584,18.008-10.12,17.97-19.658
		c-0.04-9.885-8.011-18.53-18.236-20c-2.263-0.326-2.95,0.265-2.91,2.497C492.053,431.392,491.984,437.051,491.977,442.709z"/>
	<path fill="#D5C8AC" d="M477.266,452.641c0,8,0,15.998,0,23.998c0,1.81,0.409,3.687-2.573,3.642c-3.06-0.046-2.438-2.077-2.44-3.79
		c-0.023-11.331-0.314-22.676,0.128-33.99c0.212-5.411-2.968-4.309-5.981-4.402c-3.06-0.095-5.745-0.646-5.565,4.307
		c0.41,11.317,0.163,22.66,0.106,33.992c-0.009,1.592,0.942,3.782-2.244,3.906c-3.338,0.131-2.749-2.022-2.75-3.951
		c-0.006-11.332,0.009-22.662-0.012-33.996c-0.003-1.875,0.629-3.916-2.303-4.699c-0.732-0.196-4.22-3.285,0.768-4.021
		c3.013-0.445,1.423-3.322,1.59-5.01c0.726-7.352,3.467-10.506,9.869-10.751c7.105-0.271,11.098,3.143,11.306,10.274
		c0.238,8.158,0.055,16.328,0.055,24.493C477.233,452.641,477.25,452.641,477.266,452.641z M466.313,433.733
		c3.137-0.021,6.468,1.065,6.026-4.08c-0.329-3.837-0.733-7.147-5.421-7.408c-3.894-0.216-5.607,2.516-6.043,7.442
		C460.413,434.905,463.847,433.629,466.313,433.733z"/>
	<path fill="#D5C8AC" d="M633.9,438.176c-0.883,0.063-1.379,0.119-1.877,0.128c-11.146,0.207-11.146,0.206-11.146,11.601
		c0,7.155,0.25,14.324-0.1,21.464c-0.191,3.922,1.192,5.009,4.785,4.558c1.803-0.227,3.659,0.026,5.485-0.055
		s2.197,0.854,2.186,2.455c-0.014,1.609-0.823,1.926-2.185,1.913c-3.827-0.038-7.673-0.24-11.478,0.055
		c-3.291,0.255-3.832-1.143-3.794-4.03c0.146-11.146,0.104-22.3,0.039-33.449c-0.01-1.761,0.979-3.913-2.096-4.821
		c-1.022-0.302-4.524-3.488,0.664-4.085c1.316-0.151,1.48-1.106,1.463-2.173c-0.008-0.499-0.044-1.001-0.003-1.497
		c0.313-3.749-1.64-9.735,0.8-10.783c4.229-1.817,9.736-0.643,14.709-0.744c1.618-0.033,1.85,0.919,1.871,2.257
		c0.023,1.455-0.511,2.153-2.004,2.125c-1.83-0.034-3.688,0.211-5.484-0.037c-3.922-0.542-4.811,0.979-5.053,4.868
		c-0.328,5.269,1.467,6.685,6.365,6.086C629.941,433.658,633.631,432.88,633.9,438.176z"/>
	<path fill="#D5C8AC" d="M638.136,449.729c0.281-16.918,14.159-30.539,30.688-30.918c1.367-0.03,3.083-0.772,3.255,1.75
		c0.168,2.463-1.279,2.47-3.091,2.689c-11.616,1.408-20.599,6.819-24.59,18.204c-5.175,14.754,4.313,30.146,20.198,33.556
		c1.621,0.35,3.277,0.68,4.925,0.727c1.91,0.053,2.635,0.756,2.533,2.705c-0.109,2.14-1.536,1.729-2.813,1.755
		c-13.044,0.241-27.133-10.67-30.236-23.397C638.371,454.195,638.033,451.57,638.136,449.729z"/>
	<path fill="#D5C8AC" d="M529.381,451.6c-0.001-7.979-0.133-15.964,0.063-23.939c0.079-3.213-0.44-5.063-4.22-4.646
		c-1.541,0.169-3.946,1.011-3.908-2.162c0.039-3.192,2.447-2.063,3.995-2.104c4.652-0.128,9.31-0.071,13.965-0.052
		c1.469,0.006,3.017-0.234,3.018,2.156c0.001,2.265-1.324,2.467-2.897,2.213c-4.377-0.709-5.125,1.384-5.073,5.313
		c0.208,15.792,0.122,31.589,0.033,47.384c-0.011,1.771,1.403,4.644-2.542,4.52c-3.911-0.123-2.327-3.006-2.361-4.737
		C529.294,467.563,529.382,459.58,529.381,451.6z"/>
	<path fill="#194B55" d="M739.214,449.668c0.052,14.661-12.466,26.354-28.936,27.021c-12.564,0.51-24.576-6.734-28.931-17.448
		c-4.237-10.429-1.291-21.934,7.64-29.812c10.55-9.308,28.09-9.665,39.737-0.783C735.658,433.932,739.199,440.927,739.214,449.668z"
		/>
	<path fill="#194B55" d="M574.926,449.09c-0.005-7.65,0.101-15.305-0.06-22.953c-0.059-2.765,0.971-3.306,3.5-3.123
		c13.64,0.985,25.037,12.967,24.995,26.441c-0.043,13.531-11.522,25.207-25.301,26.054c-3.087,0.19-3.173-1.212-3.153-3.466
		C574.971,464.393,574.931,456.741,574.926,449.09z"/>
	<path fill="#194B55" d="M491.98,442.709c0.003-5.658,0.071-11.318-0.03-16.974c-0.041-2.232,0.646-2.822,2.91-2.497
		c10.227,1.47,18.197,10.115,18.236,20c0.038,9.538-7.859,18.074-17.97,19.658c-2.451,0.384-3.249-0.224-3.191-2.715
		C492.066,454.361,491.977,448.534,491.98,442.709z"/>
	<path fill="#194B55" d="M571.694,332.896c-0.074,5.234-4.476,9.423-9.706,9.238c-5.021-0.178-9.01-4.392-8.954-9.461
		c0.056-5.241,4.492-9.502,9.666-9.285C567.675,323.596,571.765,327.919,571.694,332.896z"/>
	<path fill="#194B55" d="M647.462,327.208c-0.229-1.986-0.067-3.583,2.729-3.399c2.646,0.174,4.739,0.908,4.645,3.945
		c-0.09,2.845-2.252,3.194-4.605,3.402C646.865,331.454,647.447,329.217,647.462,327.208z"/>
</g>
</svg>
